<svg xmlns="http://www.w3.org/2000/svg" width="16" height="16" viewBox="0 0 16 16">
  <path fill="#fff" fill-rule="evenodd" d="M231,103.414214 L229.707107,104.707107 C229.316582,105.097631 228.683418,105.097631 228.292893,104.707107 C227.902369,104.316582 227.902369,103.683418 228.292893,103.292893 L231.292893,100.292893 C231.683418,99.9023689 232.316582,99.9023689 232.707107,100.292893 L235.707107,103.292893 C236.097631,103.683418 236.097631,104.316582 235.707107,104.707107 C235.316582,105.097631 234.683418,105.097631 234.292893,104.707107 L233,103.414214 L233,111 C233,111.552285 232.552285,112 232,112 C231.447715,112 231,111.552285 231,111 L231,103.414214 Z M225,99 L239,99 C239.552285,99 240,98.5522847 240,98 C240,97.4477153 239.552285,97 239,97 L225,97 C224.447715,97 224,97.4477153 224,98 C224,98.5522847 224.447715,99 225,99 Z" transform="matrix(1 0 0 -1 -224 113)"/>
</svg>
