<svg width="15" height="16" viewBox="0 0 15 16" fill="none" xmlns="http://www.w3.org/2000/svg"><path d="M3.2.5h5.792L13.9 5.407V12.8a2.7 2.7 0 0 1-2.7 2.7h-8a2.7 2.7 0 0 1-2.7-2.7V3.2A2.7 2.7 0 0 1 3.2.5Z" fill="#FDFAF5" stroke="#FF9500"/><path d="M14.4 5.4 9 0v2.793C9 4.233 10.128 5.4 11.52 5.4h2.88Z" fill="#FF9500"/><path fill-rule="evenodd" clip-rule="evenodd" d="M5.557 8.4v4.4h.836v-1.588h1c.701 0 1.27-.63 1.27-1.406 0-.776-.569-1.406-1.27-1.406H5.557Zm.836 2.15V9.062h.821c.371 0 .672.333.672.744s-.3.744-.672.744h-.821Z" fill="#FF9500"/></svg>