<svg xmlns="http://www.w3.org/2000/svg" width="24" height="24" viewBox="0 0 24 24">
  <path fill="#95999D" fill-rule="evenodd" d="M35.5708019,43 L45.6757246,33.7371541 C46.0828436,33.3639617 46.1103465,32.7313944 45.7371541,32.3242754 C45.3639617,31.9171564 44.7313944,31.8896535 44.3242754,32.2628459 L32.3270117,43.2603376 C32.1261015,43.443244 32,43.7068957 32,44 C32,44.2931043 32.1261015,44.556756 32.3270117,44.7396624 L44.3242754,55.7371541 C44.7313944,56.1103465 45.3639617,56.0828436 45.7371541,55.6757246 C46.1103465,55.2686056 46.0828436,54.6360383 45.6757246,54.2628459 L35.5708019,45 L55,45 C55.5522847,45 56,44.5522847 56,44 C56,43.4477153 55.5522847,43 55,43 L35.5708019,43 Z" transform="translate(-32 -32)"/>
</svg>
