<svg width="15" height="17" viewBox="0 0 15 17" fill="none" xmlns="http://www.w3.org/2000/svg"><path d="M3.52 1.3H9.312l4.908 4.907V13.6a2.7 2.7 0 0 1-2.7 2.7h-8a2.7 2.7 0 0 1-2.7-2.7V4a2.7 2.7 0 0 1 2.7-2.7Z" fill="#FDF5FA" stroke="#E643B3"/><path d="M14.72 6.2 9.32.8v2.793c0 1.44 1.128 2.607 2.52 2.607h2.88ZM6.316 12.289a.359.359 0 0 1-.492 0l-2.004-1.88 2-1.875a.365.365 0 1 1 .5.534l-1.44 1.35 1.436 1.347a.36.36 0 0 1 0 .524Zm3.004-.005a.365.365 0 0 1-.5-.533l1.44-1.35-1.436-1.347a.36.36 0 1 1 .491-.524l2.005 1.88-2 1.874Z" fill="#E643B3"/></svg>