<svg xmlns="http://www.w3.org/2000/svg" width="16" height="16" viewBox="0 0 16 16">
  <g fill="#95999D" fill-rule="evenodd" transform="translate(-224 -32)">
    <path d="M238.249356,39.0782973 C238.301407,39.3371436 238.327432,39.6459602 238.327432,40.0037478 C238.327432,40.3615353 238.301407,40.6693526 238.249356,40.9291983 L239.869946,42.2624067 C240.000074,42.3483557 240.032105,42.4652862 239.968042,42.6141978 C239.642723,43.5646335 239.109199,44.4401137 238.36647,45.2416378 C238.262368,45.3655642 238.137246,45.3965458 237.995106,45.335582 L235.964113,44.6679784 C235.443602,45.0637434 234.884053,45.37256 234.284464,45.5944283 L233.875062,47.5932415 C233.849037,47.7401543 233.757948,47.8271027 233.601794,47.8520878 C233.041244,47.9520285 232.507721,48 232.000222,48 C231.492724,48 230.9582,47.9510291 230.398651,47.8520878 C230.242497,47.8281021 230.151408,47.7411537 230.125382,47.5932415 L229.715981,45.5944283 C229.077354,45.3605672 228.517805,45.0507511 228.036332,44.6679784 L226.005339,45.335582 C225.861197,45.3975452 225.738077,45.3655642 225.633974,45.2416378 C224.892246,44.4401137 224.358723,43.5646335 224.032403,42.6141978 C223.967339,42.4662856 224.000371,42.3483557 224.130499,42.2624067 L225.751089,40.9291983 C225.699038,40.6693526 225.673013,40.3625347 225.673013,40.0037478 C225.673013,39.6459602 225.699038,39.3371436 225.751089,39.0782973 L224.130499,37.7460883 C224.000371,37.6601393 223.967339,37.5422093 224.032403,37.3942971 C224.357722,36.4448609 224.891245,35.5683813 225.633974,34.7668572 C225.738077,34.6439302 225.862198,34.6129486 226.005339,34.6739124 L228.036332,35.3405166 C228.516804,34.9577438 229.077354,34.6499266 229.715981,34.4150661 L230.125382,32.4162528 C230.151408,32.2683407 230.242497,32.1823917 230.398651,32.1574065 C231.465698,31.9475312 232.533746,31.9475312 233.600793,32.1574065 C233.756947,32.1813923 233.848036,32.2683407 233.874061,32.4162528 L234.283463,34.4150661 C234.883052,34.6379337 235.442601,34.945751 235.963112,35.3405166 L237.994105,34.6739124 C238.137246,34.6119492 238.261367,34.6439302 238.36547,34.7668572 C239.107197,35.5693807 239.640721,36.4448609 239.967041,37.3942971 C240.031104,37.5422093 239.999073,37.6601393 239.868945,37.7460883 L238.249356,39.0782973 L238.249356,39.0782973 Z M232,36.5 C230.067125,36.5 228.5,38.067125 228.5,40 C228.5,41.932875 230.067125,43.5 232,43.5 C233.932875,43.5 235.5,41.932875 235.5,40 C235.5,38.067125 233.932875,36.5 232,36.5 L232,36.5 Z"/>
    <path d="M238.249356,39.0782973 C238.301407,39.3371436 238.327432,39.6459602 238.327432,40.0037478 C238.327432,40.3615353 238.301407,40.6693526 238.249356,40.9291983 L239.869946,42.2624067 C240.000074,42.3483557 240.032105,42.4652862 239.968042,42.6141978 C239.642723,43.5646335 239.109199,44.4401137 238.36647,45.2416378 C238.262368,45.3655642 238.137246,45.3965458 237.995106,45.335582 L235.964113,44.6679784 C235.443602,45.0637434 234.884053,45.37256 234.284464,45.5944283 L233.875062,47.5932415 C233.849037,47.7401543 233.757948,47.8271027 233.601794,47.8520878 C233.041244,47.9520285 232.507721,48 232.000222,48 C231.492724,48 230.9582,47.9510291 230.398651,47.8520878 C230.242497,47.8281021 230.151408,47.7411537 230.125382,47.5932415 L229.715981,45.5944283 C229.077354,45.3605672 228.517805,45.0507511 228.036332,44.6679784 L226.005339,45.335582 C225.861197,45.3975452 225.738077,45.3655642 225.633974,45.2416378 C224.892246,44.4401137 224.358723,43.5646335 224.032403,42.6141978 C223.967339,42.4662856 224.000371,42.3483557 224.130499,42.2624067 L225.751089,40.9291983 C225.699038,40.6693526 225.673013,40.3625347 225.673013,40.0037478 C225.673013,39.6459602 225.699038,39.3371436 225.751089,39.0782973 L224.130499,37.7460883 C224.000371,37.6601393 223.967339,37.5422093 224.032403,37.3942971 C224.357722,36.4448609 224.891245,35.5683813 225.633974,34.7668572 C225.738077,34.6439302 225.862198,34.6129486 226.005339,34.6739124 L228.036332,35.3405166 C228.516804,34.9577438 229.077354,34.6499266 229.715981,34.4150661 L230.125382,32.4162528 C230.151408,32.2683407 230.242497,32.1823917 230.398651,32.1574065 C231.465698,31.9475312 232.533746,31.9475312 233.600793,32.1574065 C233.756947,32.1813923 233.848036,32.2683407 233.874061,32.4162528 L234.283463,34.4150661 C234.883052,34.6379337 235.442601,34.945751 235.963112,35.3405166 L237.994105,34.6739124 C238.137246,34.6119492 238.261367,34.6439302 238.36547,34.7668572 C239.107197,35.5693807 239.640721,36.4448609 239.967041,37.3942971 C240.031104,37.5422093 239.999073,37.6601393 239.868945,37.7460883 L238.249356,39.0782973 L238.249356,39.0782973 Z M232,36.5 C230.067125,36.5 228.5,38.067125 228.5,40 C228.5,41.932875 230.067125,43.5 232,43.5 C233.932875,43.5 235.5,41.932875 235.5,40 C235.5,38.067125 233.932875,36.5 232,36.5 L232,36.5 Z"/>
  </g>
</svg>
