<svg xmlns="http://www.w3.org/2000/svg" width="80" height="65" viewBox="0 0 80 65">
  <g fill="none" fill-rule="evenodd">
    <rect width="80" height="65" fill="#D6D8DA" rx="10"/>
    <path fill="#95999D" d="M0,50 L15.3786797,34.6213203 L15.3786797,34.6213203 C16.5502525,33.4497475 18.4497475,33.4497475 19.6213203,34.6213203 L27.5,42.5 L47.8786797,22.1213203 L47.8786797,22.1213203 C49.0502525,20.9497475 50.9497475,20.9497475 52.1213203,22.1213203 L80,50 L80,62 L80,62 C80,63.6568542 78.6568542,65 77,65 L3,65 L3,65 C1.34314575,65 1.11788946e-14,63.6568542 1.46549439e-14,62 L0,50 Z"/>
    <circle cx="20" cy="17.5" r="7.5" fill="#FFFFFF"/>
    <path stroke="#D6D8DA" stroke-width="2" d="M28.25,40.75 L14.75,53.75 L28.25,40.75 Z" stroke-linecap="round" stroke-linejoin="round"/>
  </g>
</svg>
