<svg xmlns="http://www.w3.org/2000/svg" width="16" height="16" viewBox="0 0 16 16">
  <g fill="#979797" fill-rule="evenodd" transform="translate(1 2)">
    <path d="M-1.33226763e-14,13 L6.02479339,13 L8,13 C12.0522847,13 15,10.0522847 15,6 C15,1.94771525 12.0522847,-1 8,-1 C3.94771525,-1 1,1.94771525 1,6 C1,6.55228475 1.44771525,7 2,7 C2.55228475,7 3,6.55228475 3,6 C3,3.05228475 5.05228475,1 8,1 C10.9477153,1 13,3.05228475 13,6 C13,8.94771525 10.9477153,11 8,11 L-1.57651669e-14,11 C-0.55228475,11 -1,11.4477153 -1,12 C-1,12.5522847 -0.55228475,13 -1.33226763e-14,13 Z"/>
    <path d="M0.832050294,2.4452998 C0.525697835,1.98577112 -0.0951715076,1.86159725 -0.554700196,2.16794971 C-1.01422888,2.47430216 -1.13840275,3.09517151 -0.832050294,3.5547002 L1.16794971,6.5547002 C1.47430216,7.01422888 2.09517151,7.13840275 2.5547002,6.83205029 L5.5547002,4.83205029 C6.01422888,4.52569784 6.13840275,3.90482849 5.83205029,3.4452998 C5.52569784,2.98577112 4.90482849,2.86159725 4.4452998,3.16794971 L2.2773501,4.61324951 L0.832050294,2.4452998 Z"/>
  </g>
</svg>
