<svg xmlns="http://www.w3.org/2000/svg" viewBox="0 0 32 32" fill="none"><path fill="#197BFF" d="M2.799 16.501A4 4 0 0 1 5.923 15h20.155a4 4 0 0 1 3.123 1.501l2.142 2.677A3 3 0 0 1 32 21.052V24H0v-2.948a3 3 0 0 1 .657-1.874L2.8 16.501ZM2.799 2.501A4 4 0 0 1 5.923 1h20.155A4 4 0 0 1 29.2 2.501l2.142 2.677A3 3 0 0 1 32 7.052V10H0V7.052a3 3 0 0 1 .657-1.874L2.8 2.501Z"/><path fill="#B2D3FF" d="M0 21a2 2 0 0 1 2-2h28a2 2 0 0 1 2 2v8a2 2 0 0 1-2 2H2a2 2 0 0 1-2-2v-8ZM0 7a2 2 0 0 1 2-2h28a2 2 0 0 1 2 2v8a2 2 0 0 1-2 2H2a2 2 0 0 1-2-2V7Z"/><path fill="#297EF2" d="M8 25a2 2 0 1 1-4 0 2 2 0 0 1 4 0ZM8 11a2 2 0 1 1-4 0 2 2 0 0 1 4 0Z"/></svg>
