<svg xmlns="http://www.w3.org/2000/svg" width="17" height="16" viewBox="0 0 17 16">
  <path fill="#32363f" fill-rule="evenodd" d="M64,34.0068455 C64,33.4507801 64.4509752,33 64.990778,33 L69.5089948,33 C69.7801695,33 70.1569366,33.1569366 70.3483734,33.3483734 L71.6516266,34.6516266 C71.8440279,34.8440279 72.2307968,35 72.5004358,35 L79.0029699,35 C79.5536144,35 80,35.455761 80,36.0024733 L80,44.9914698 C80,46.1007504 79.1054862,47 78.0059397,47 L65.9940603,47 C64.8927712,47 64,46.1029399 64,44.9941413 L64,34.0068455 Z M73,37 L75,37 L75,40 L78,40 L78,42 L75,42 L75,45 L73,45 L73,42 L70,42 L70,40 L73,40 L73,37 Z" transform="translate(-64 -32)"/>
</svg>
