<svg xmlns="http://www.w3.org/2000/svg" fill="none" viewBox="0 0 32 32"><path fill="#0082C9" fill-rule="evenodd" d="M9.025 14.005c.871-3.046 3.682-5.295 7-5.295 3.292 0 6.089 2.215 6.982 5.227.772-1.58 2.392-2.68 4.256-2.68 2.6 0 4.737 2.137 4.737 4.736 0 2.6-2.138 4.738-4.737 4.738-1.864 0-3.484-1.102-4.256-2.681-.893 3.012-3.69 5.228-6.983 5.228-3.317 0-6.128-2.25-7-5.296-.756 1.616-2.397 2.749-4.288 2.749-2.6 0-4.736-2.138-4.736-4.738 0-2.599 2.137-4.736 4.736-4.736 1.89 0 3.532 1.132 4.289 2.748Zm11.504 1.988c0-2.504-2-4.503-4.505-4.503-2.504 0-4.503 2-4.503 4.503 0 2.504 2 4.504 4.503 4.504 2.504 0 4.505-2 4.505-4.504ZM4.736 14.037c1.097 0 1.957.86 1.957 1.956 0 1.097-.86 1.957-1.957 1.957a1.936 1.936 0 0 1-1.956-1.957c0-1.097.86-1.956 1.956-1.956Zm24.484 1.956c0-1.097-.86-1.956-1.957-1.956a1.935 1.935 0 0 0-1.956 1.956c0 1.097.859 1.957 1.956 1.957s1.957-.86 1.957-1.957Z" clip-rule="evenodd"/></svg>
