<svg xmlns="http://www.w3.org/2000/svg" width="16" height="16" viewBox="0 0 16 16">
  <path fill="#297EF2" fill-rule="evenodd" d="M198.881966,42 L194.345138,42 C194.345138,42 194,40.7052006 194,40 C194,36.6862915 196.686292,34 200,34 C203.313708,34 206,36.6862915 206,40 C206,40.7216708 205.649994,42 205.649994,42 L201.118034,42 L202.894427,38.4472136 C203.141416,37.9532351 202.941192,37.3525621 202.447214,37.1055728 C201.953235,36.8585836 201.352562,37.0588079 201.105573,37.5527864 L198.881966,42 Z M200,48 C204.418278,48 208,44.418278 208,40 C208,35.581722 204.418278,32 200,32 C195.581722,32 192,35.581722 192,40 C192,44.418278 195.581722,48 200,48 Z" transform="translate(-192 -32)"/>
</svg>
