<svg width="15" height="17" viewBox="0 0 15 17" fill="none" xmlns="http://www.w3.org/2000/svg"><path d="M3.52 1.3h5.792l4.908 4.907V13.6a2.7 2.7 0 0 1-2.7 2.7h-8a2.7 2.7 0 0 1-2.7-2.7V4a2.7 2.7 0 0 1 2.7-2.7Z" fill="#FDFAF5" stroke="#FFB81E"/><path d="M14.72 6.2 9.32.8v2.793c0 1.44 1.128 2.607 2.52 2.607h2.88ZM4.127 14.183v-1.476L8.71 8.132a.78.78 0 0 1 .23-.147.718.718 0 0 1 .534 0 .61.61 0 0 1 .226.156l.477.486c.07.064.12.14.152.226a.75.75 0 0 1 0 .525.65.65 0 0 1-.152.23l-4.574 4.575H4.127Zm5.07-4.584.485-.486-.486-.486-.486.486.486.486Z" fill="#FFB81E"/></svg>