<svg width="16" height="16" viewBox="0 0 16 16" fill="none" xmlns="http://www.w3.org/2000/svg"><path fill-rule="evenodd" clip-rule="evenodd" d="M0 10.146a2 2 0 0 1 2-2h12a2 2 0 0 1 2 2v3a2 2 0 0 1-2 2H2a2 2 0 0 1-2-2v-3Zm5 1.5a1.5 1.5 0 1 1-3 0 1.5 1.5 0 0 1 3 0Z" fill="url(#paint0_linear_11291_1488)"/><path fill-rule="evenodd" clip-rule="evenodd" d="M0 2.854a2 2 0 0 1 2-2h12a2 2 0 0 1 2 2v3a2 2 0 0 1-2 2H2a2 2 0 0 1-2-2v-3Zm5 1.5a1.5 1.5 0 1 1-3 0 1.5 1.5 0 0 1 3 0Z" fill="url(#paint1_linear_11291_1488)"/><defs><linearGradient id="paint0_linear_11291_1488" x1="8" y1="8.146" x2="8" y2="16.627" gradientUnits="userSpaceOnUse"><stop offset=".044" stop-color="#1D7AFF"/><stop offset=".13" stop-color="#7CB2FF"/><stop offset=".617" stop-color="#76AFFF"/><stop offset="1" stop-color="#4290FF"/></linearGradient><linearGradient id="paint1_linear_11291_1488" x1="8" y1=".854" x2="8" y2="9.335" gradientUnits="userSpaceOnUse"><stop offset=".044" stop-color="#1D7AFF"/><stop offset=".13" stop-color="#7CB2FF"/><stop offset=".617" stop-color="#76AFFF"/><stop offset="1" stop-color="#4290FF"/></linearGradient></defs></svg>