<svg xmlns="http://www.w3.org/2000/svg" width="16" height="16" viewBox="0 0 16 16">
  <g fill="none" fill-rule="evenodd" transform="translate(-224 -160)">
    <path fill="#95999D" d="M227.414214,167 L238.993155,167 C239.54922,167 240,167.443865 240,168 C240,168.552285 239.550051,169 238.993155,169 L227.414214,169 L232.707107,174.292893 C233.097631,174.683418 233.097631,175.316582 232.707107,175.707107 C232.316582,176.097631 231.683418,176.097631 231.292893,175.707107 L224.292893,168.707107 C223.902369,168.316582 223.902369,167.683418 224.292893,167.292893 L231.292893,160.292893 C231.683418,159.902369 232.316582,159.902369 232.707107,160.292893 C233.097631,160.683418 233.097631,161.316582 232.707107,161.707107 L227.414214,167 Z"/>
  </g>
</svg>
