<svg width="15" height="16" viewBox="0 0 15 16" fill="none" xmlns="http://www.w3.org/2000/svg"><path d="M3.2.5h5.792L13.9 5.407V12.8a2.7 2.7 0 0 1-2.7 2.7h-8a2.7 2.7 0 0 1-2.7-2.7V3.2A2.7 2.7 0 0 1 3.2.5Z" fill="#FDF5F4" stroke="#D32C3C"/><path d="M14.4 5.4 9 0v2.793C9 4.233 10.128 5.4 11.52 5.4h2.88ZM2.757 12.8V9.2h1.486c.255 0 .479.053.67.158.192.106.341.254.448.445.106.19.16.414.16.67 0 .257-.055.48-.165.67a1.102 1.102 0 0 1-.46.435 1.472 1.472 0 0 1-.687.153h-.888v-.76h.7c.11 0 .203-.02.28-.059a.426.426 0 0 0 .18-.174.528.528 0 0 0 .064-.265.513.513 0 0 0-.063-.264.408.408 0 0 0-.18-.169.606.606 0 0 0-.281-.06h-.33v2.82h-.934ZM7.188 12.8H5.863V9.2h1.312c.354 0 .66.072.918.216.259.143.458.35.598.619.142.268.212.59.212.965s-.07.697-.21.967c-.14.268-.338.474-.595.618a1.84 1.84 0 0 1-.91.215Zm-.39-.83h.357a1 1 0 0 0 .435-.086.57.57 0 0 0 .276-.297c.064-.14.096-.336.096-.587 0-.25-.033-.447-.098-.587a.572.572 0 0 0-.282-.297 1.07 1.07 0 0 0-.454-.086h-.33v1.94ZM9.336 12.8V9.2h2.42v.787H10.27v.62h1.339v.787H10.27V12.8h-.934Z" fill="#D32C3C"/></svg>