<svg xmlns="http://www.w3.org/2000/svg" width="16" height="16" viewBox="0 0 16 16">
  <path fill-rule="evenodd" d="M329.207107,68.2071068 L330.794953,66.6192609 C331.183529,66.2306845 331.816419,66.2306326 332.203144,66.6173571 L333.382643,67.7968564 C333.77055,68.1847639 333.769244,68.8165428 333.376339,69.2094477 L329.91212,72.6736661 C329.147023,73.438763 327.877207,73.4629938 327.207107,72.7928932 C326.816582,72.4023689 326.183418,72.4023689 325.792893,72.7928932 C325.402369,73.1834175 325.402369,73.8165825 325.792893,74.2071068 C327.256375,75.6705883 329.792011,75.6222029 331.326334,74.0878797 L334.790552,70.6236612 C335.963199,69.4510143 335.967125,67.5529115 334.796856,66.3826429 L333.617357,65.2031436 C332.449532,64.0353186 330.550312,64.0354741 329.380739,65.2050473 L327.792893,66.7928932 C327.402369,67.1834175 327.402369,67.8165825 327.792893,68.2071068 C328.183418,68.5976311 328.816582,68.5976311 329.207107,68.2071068 Z M326.792893,75.7928932 L325.205047,77.3807391 C324.816471,77.7693155 324.183581,77.7693674 323.796856,77.3826429 L322.617357,76.2031436 C322.22945,75.8152361 322.230756,75.1834572 322.623661,74.7905523 L326.08788,71.3263339 C326.852977,70.561237 328.122793,70.5370062 328.792893,71.2071068 C329.183418,71.5976311 329.816582,71.5976311 330.207107,71.2071068 C330.597631,70.8165825 330.597631,70.1834175 330.207107,69.7928932 C328.743625,68.3294117 326.207989,68.3777971 324.673666,69.9121203 L321.209448,73.3763388 C320.036801,74.5489857 320.032875,76.4470885 321.203144,77.6173571 L322.382643,78.7968564 C323.550468,79.9646814 325.449688,79.9645259 326.619261,78.7949527 L328.207107,77.2071068 C328.597631,76.8165825 328.597631,76.1834175 328.207107,75.7928932 C327.816582,75.4023689 327.183418,75.4023689 326.792893,75.7928932 Z" transform="translate(-320 -64)"/>
</svg>
