<svg xmlns="http://www.w3.org/2000/svg" width="16" height="16" viewBox="0 0 16 16">
  <path fill="#95999D" fill-rule="evenodd" d="M33,99.0094776 C33,97.347389 34.3423789,96 36.0033512,96 L45.9931545,96 C46.5492199,96 47,96.4438648 47,97 L47,97 C47,97.5522847 46.544239,98 45.9975267,98 L36.0024733,98 C35.4488226,98 35,98.4438648 35,99 L35,99 C35,99.5522847 35.4509752,100 35.990778,100 L40.5089948,100 C40.7801695,100 41,100.22788 41,100.491005 L41,106 L42.5,105 L44,106 L44,100.491005 C44,100.219831 44.2157526,100 44.495389,100 L46.0010434,100 C46.5527519,100 47,100.455761 47,101.002473 L47,110.997527 C47,111.551177 46.5500512,112 45.9931545,112 L36.0033512,112 C34.3446462,112 33,110.663369 33,108.990522 L33,99.0094776 Z" transform="translate(-32 -96)"/>
</svg>
