<svg width="15" height="17" viewBox="0 0 15 17" fill="none" xmlns="http://www.w3.org/2000/svg"><path d="M3.52 1.2H9.354l4.966 4.966V13.6a2.8 2.8 0 0 1-2.8 2.8h-8a2.8 2.8 0 0 1-2.8-2.8V4a2.8 2.8 0 0 1 2.8-2.8Z" fill="#E8EDF3" stroke="#4F5B69" stroke-width=".8"/><path d="M14.72 6.2 9.32.8v2.793c0 1.44 1.128 2.607 2.52 2.607h2.88Z" fill="#4F5B69"/><path d="M4.695 14.05v-1.476L9.278 8a.78.78 0 0 1 .23-.148.718.718 0 0 1 .534 0 .61.61 0 0 1 .226.156l.477.486c.07.064.12.14.152.226a.753.753 0 0 1 0 .525.65.65 0 0 1-.152.23L6.171 14.05H4.695Zm5.07-4.583.486-.486-.487-.487-.486.487.486.486Z" fill="#4F5B69" fill-opacity=".72"/></svg>