<svg xmlns="http://www.w3.org/2000/svg" width="16" height="16" viewBox="0 0 16 16">
  <path fill="#fff" fill-rule="evenodd" d="M65,99.0094776 C65,97.347389 66.3423789,96 68.0033512,96 L77.9931545,96 C78.5492199,96 79,96.4438648 79,97 C79,97.5522847 78.544239,98 77.9975267,98 L68.0024733,98 C67.4488226,98 67,98.4438648 67,99 C67,99.5522847 67.455761,100 68.0024733,100 L77.9975267,100 C78.5511774,100 79,100.455761 79,101.002473 L79,110.997527 C79,111.551177 78.5500512,112 77.9931545,112 L68.0033512,112 C66.3446462,112 65,110.663369 65,108.990522 L65,99.0094776 Z M72,102 L74,102 L74,105 L77,105 L77,107 L74,107 L74,110 L72,110 L72,107 L69,107 L69,105 L72,105 L72,102 Z" transform="translate(-64 -96)"/>
</svg>
