<svg xmlns="http://www.w3.org/2000/svg" width="32" height="32" viewBox="0 0 32 32">
  <g fill="none" fill-rule="evenodd" transform="translate(2)">
    <path fill="#D1D5DB" d="M2,8 L26,8 L26,28.009947 C26,30.2135924 24.2157067,32 22.009947,32 L5.99005301,32 C3.78640758,32 2,30.2157067 2,28.009947 L2,8 Z"/>
    <path fill="#A3ACB8" d="M7,2 L1.99124431,2 C0.899897516,2 0,2.8954305 0,4 L0,6 L28,6 L28,4 C28,2.88772964 27.1084896,2 26.0087557,2 L21,2 L20.4438648,0.887729645 C20.1990795,0.398159027 19.5511774,0 18.9975267,0 L9.00247329,0 C8.45576096,0 7.80127495,0.3974501 7.55613518,0.887729645 L7,2 Z"/>
  </g>
</svg>
