<svg width="15" height="16" viewBox="0 0 15 16" fill="none" xmlns="http://www.w3.org/2000/svg"><path d="M3.52.5h5.792l4.908 4.907V12.8a2.7 2.7 0 0 1-2.7 2.7h-8a2.7 2.7 0 0 1-2.7-2.7V3.2A2.7 2.7 0 0 1 3.52.5Z" fill="#E8EDF3" stroke="#4F5B69"/><path d="M14.72 5.4 9.32 0v2.793c0 1.44 1.128 2.607 2.52 2.607h2.88ZM6.52 9.071a1.23 1.23 0 0 1-.703-.2 1.267 1.267 0 0 1-.45-.578 2.354 2.354 0 0 1-.156-.91c0-.352.053-.653.157-.902a1.24 1.24 0 0 1 .45-.568c.197-.13.43-.196.701-.196.271 0 .504.065.7.196.195.13.346.32.451.57.106.247.158.548.157.9 0 .356-.053.66-.158.912a1.257 1.257 0 0 1-.45.577c-.194.133-.428.2-.7.2Zm0-.568c.185 0 .333-.093.443-.28.111-.186.166-.466.165-.84 0-.245-.025-.45-.076-.613a.79.79 0 0 0-.212-.368.462.462 0 0 0-.32-.124c-.185 0-.333.093-.444.277-.11.185-.166.46-.167.829 0 .249.024.456.074.623.05.165.122.29.214.373.091.082.199.123.322.123Zm3.204-2.742V9H9.04V6.411H9.02l-.741.465V6.27l.802-.508h.643ZM6.697 9.761V13h-.684v-2.589h-.02l-.741.465v-.607l.802-.508h.643Zm2.04 3.31a1.23 1.23 0 0 1-.702-.2 1.267 1.267 0 0 1-.45-.578 2.354 2.354 0 0 1-.156-.91c0-.352.052-.653.157-.902a1.24 1.24 0 0 1 .45-.568c.196-.13.43-.196.7-.196.272 0 .505.065.7.196.196.13.347.32.452.57.106.247.158.548.157.9 0 .356-.053.66-.158.912a1.257 1.257 0 0 1-.45.577c-.195.133-.428.2-.7.2Zm0-.567c.185 0 .334-.094.444-.28.111-.187.166-.467.165-.84 0-.246-.026-.45-.076-.614a.79.79 0 0 0-.212-.368.462.462 0 0 0-.321-.123c-.185 0-.332.092-.443.276-.11.185-.166.46-.168.829 0 .249.025.456.075.623.05.165.122.29.213.373.092.082.2.123.323.123Z" fill="#4F5B69"/></svg>