<svg xmlns="http://www.w3.org/2000/svg" width="16" height="16" viewBox="0 0 16 16">
  <g fill="#fff" fill-rule="evenodd" transform="translate(-96 -32)">
    <path d="M100.5,33 L98.0068455,33 C97.4499488,33 97,33.4477153 97,34 L97,35 L111,35 L111,34 C111,33.4438648 110.54922,33 109.993155,33 L107.5,33 L107,32 L101,32 L100.5,33 Z M98,36 L110,36 L110,45.9914698 C110,47.1007504 109.09805,48 107.99147,48 L100.00853,48 C98.8992496,48 98,47.0980496 98,45.9914698 L98,36 Z"/>
    <path d="M100.5,33 L98.0068455,33 C97.4499488,33 97,33.4477153 97,34 L97,35 L111,35 L111,34 C111,33.4438648 110.54922,33 109.993155,33 L107.5,33 L107,32 L101,32 L100.5,33 Z M98,36 L110,36 L110,45.9914698 C110,47.1007504 109.09805,48 107.99147,48 L100.00853,48 C98.8992496,48 98,47.0980496 98,45.9914698 L98,36 Z"/>
  </g>
</svg>
