<svg xmlns="http://www.w3.org/2000/svg" width="32" height="32" viewBox="0 0 32 32">
  <g fill="none" fill-rule="evenodd" transform="translate(0 2)">
    <rect width="32" height="28" fill="#FDD5D5" rx="2"/>
    <path fill="#F52D2D" d="M24,20 L13,15 L19.2902805,8.70971949 C19.6822478,8.31775224 20.3203148,8.32031476 20.7062149,8.7062149 L29,17 L24,20 Z"/>
    <path fill="#F52D2D" d="M0,22 L6.29028051,15.7097195 C6.68224776,15.3177522 7.31387329,15.3138733 7.70591205,15.7059121 L11,19 L15.0233154,14.9766846 L24,19 L27.2486572,17.2486572 L32,22 L32,26.0020869 C32,27.1055038 31.1107383,28 29.9982567,28 L2.00174332,28 C0.89621101,28 0,27.1017394 0,26.0020869 L0,22 Z"/>
    <circle cx="8" cy="7" r="3" fill="#FFFFFF"/>
    <path stroke="#FDD5D5" d="M11,18.3000031 L5.5,23.8000031 L11,18.3000031 Z" stroke-linecap="round" stroke-linejoin="round"/>
    <polyline stroke="#FFFFFF" stroke-width="2" points="0 17 8 13 24 20 32 16" stroke-linecap="round" stroke-linejoin="round"/>
  </g>
</svg>
