<svg width="15" height="17" viewBox="0 0 15 17" fill="none" xmlns="http://www.w3.org/2000/svg"><path d="M3.52 1.3H9.312l4.908 4.907V13.6a2.7 2.7 0 0 1-2.7 2.7h-8a2.7 2.7 0 0 1-2.7-2.7V4a2.7 2.7 0 0 1 2.7-2.7Z" fill="#F5FDFD" stroke="#0DCBCF"/><path d="M14.72 6.2 9.32.8v2.793c0 1.44 1.128 2.607 2.52 2.607h2.88ZM6.32 12.133c0 .92-.746 1.667-1.667 1.667a.802.802 0 0 1-.588-.245.803.803 0 0 1-.245-.588V10.05c0-.52.099-1.009.297-1.463.198-.455.465-.851.802-1.188a3.812 3.812 0 0 1 1.187-.802A3.628 3.628 0 0 1 7.57 6.3c.52 0 1.009.099 1.463.297.455.198.851.465 1.188.802.337.337.604.733.802 1.188.198.454.297.942.297 1.463v2.917c0 .229-.082.425-.245.588a.802.802 0 0 1-.588.245c-.92 0-1.667-.746-1.667-1.667V11.3c0-.46.373-.833.833-.833h.417c.23 0 .417-.187.417-.417 0-.812-.283-1.502-.85-2.068-.565-.566-1.255-.849-2.067-.849-.813 0-1.502.283-2.068.85-.566.565-.849 1.255-.849 2.067 0 .23.187.417.417.417h.417c.46 0 .833.373.833.833v.833Z" fill="#0DCBCF"/></svg>