<svg xmlns="http://www.w3.org/2000/svg" width="16" height="16" viewBox="0 0 16 16">
  <path fill="#fff" fill-rule="evenodd" d="M65,99.009C65,97.347 66.342,96 68.003,96L77.993,96C78.549,96 79,96.444 79,97C79,97.552 78.544,98 77.998,98L68.002,98C67.449,98 67,98.444 67,99C67,99.552 67.456,100 68.002,100L77.998,100C78.551,100 79,100.456 79,101.002L79,110.998C79,111.551 78.55,112 77.993,112L68.003,112C66.345,112 65,110.663 65,108.991L65,99.009ZM72,105L77,105L77,107L74,107L72,107L69,107L69,105L72,105Z" transform="translate(-64 -96)"/>
</svg>
