<svg xmlns="http://www.w3.org/2000/svg" width="16" height="16" viewBox="0 0 16 16">
  <path fill="#95999D" fill-rule="evenodd" d="M34,74 C35.1045695,74 36,73.1045695 36,72 C36,70.8954305 35.1045695,70 34,70 C32.8954305,70 32,70.8954305 32,72 C32,73.1045695 32.8954305,74 34,74 Z M46,74 C47.1045695,74 48,73.1045695 48,72 C48,70.8954305 47.1045695,70 46,70 C44.8954305,70 44,70.8954305 44,72 C44,73.1045695 44.8954305,74 46,74 Z M40,74 C41.1045695,74 42,73.1045695 42,72 C42,70.8954305 41.1045695,70 40,70 C38.8954305,70 38,70.8954305 38,72 C38,73.1045695 38.8954305,74 40,74 Z" transform="translate(-32 -64)"/>
</svg>
