<svg width="15" height="17" viewBox="0 0 15 17" fill="none" xmlns="http://www.w3.org/2000/svg"><path d="M3.52 1.3H9.312l4.908 4.907V13.6a2.7 2.7 0 0 1-2.7 2.7h-8a2.7 2.7 0 0 1-2.7-2.7V4a2.7 2.7 0 0 1 2.7-2.7Z" fill="#FBFDF5" stroke="#A8D306"/><path d="M14.72 6.2 9.32.8v2.793c0 1.44 1.128 2.607 2.52 2.607h2.88Z" fill="#A8D306"/><circle cx="10.632" cy="7.818" r=".938" fill="#A8D306"/><path d="M3.11 13.385a.23.23 0 0 0 .18.37h8.435a.23.23 0 0 0 .18-.37l-2.64-3.38-2.343 3-1.758-2.25-2.054 2.63Z" fill="#A8D306"/></svg>