<svg width="160" height="160" viewBox="0 0 160 160" fill="none" xmlns="http://www.w3.org/2000/svg">
<path d="M65.8338 62.0948C65.8338 62.0948 74.8326 82.2294 84.8803 87.5876L99.1954 74.2873C99.1954 74.2873 91.4931 66.8776 85.4333 53.9329L80.9741 52.4016L65.8338 62.0948Z" fill="#FFE09D"/>
<path d="M82.8883 56.4346L85.4982 53.9173L81.0559 52.3846L82.8883 56.4346Z" fill="white"/>
<path d="M73.0652 67.1837C73.0194 67.1253 72.9988 67.0511 73.0078 66.9774C73.0168 66.9038 73.0547 66.8367 73.1131 66.791L83.1826 58.9116C83.2412 58.8677 83.3147 58.8485 83.3873 58.8581C83.4599 58.8677 83.5258 58.9054 83.5709 58.9631C83.616 59.0208 83.6367 59.0938 83.6286 59.1666C83.6205 59.2394 83.5841 59.3061 83.5274 59.3523L73.4581 67.2322C73.4291 67.2549 73.396 67.2716 73.3605 67.2814C73.3251 67.2912 73.2881 67.2939 73.2516 67.2894C73.2151 67.2849 73.1798 67.2733 73.1479 67.2551C73.1159 67.237 73.0878 67.2127 73.0652 67.1837ZM74.1853 72.1949C74.1211 72.2081 74.0542 72.1983 73.9964 72.1672C73.9387 72.1361 73.8937 72.0857 73.8693 72.0248C73.8449 71.9639 73.8427 71.8963 73.8631 71.8339C73.8834 71.7716 73.9251 71.7183 73.9807 71.6835C78.5765 68.8018 82.9604 65.5952 87.0988 62.0882C87.1269 62.0644 87.1593 62.0464 87.1943 62.0352C87.2293 62.0239 87.2662 62.0197 87.3028 62.0227C87.3394 62.0257 87.3751 62.0359 87.4078 62.0527C87.4405 62.0695 87.4695 62.0926 87.4933 62.1207C87.5171 62.1487 87.5351 62.1811 87.5463 62.2161C87.5575 62.2511 87.5618 62.288 87.5587 62.3246C87.5557 62.3612 87.5455 62.3969 87.5287 62.4296C87.5119 62.4623 87.4888 62.4913 87.4608 62.5151C81.3309 67.7122 74.4608 72.1387 74.1853 72.1949ZM76.2824 77.094C76.2188 77.1071 76.1526 77.0976 76.0952 77.0672C76.0378 77.0368 75.9927 76.9874 75.9677 76.9275C75.9428 76.8675 75.9394 76.8007 75.9583 76.7386C75.9772 76.6764 76.0171 76.6227 76.0712 76.5868C80.9827 73.3172 85.5631 69.5757 89.7472 65.4157C89.7732 65.3898 89.8041 65.3693 89.8381 65.3553C89.8721 65.3413 89.9085 65.3342 89.9453 65.3342C89.982 65.3343 90.0184 65.3417 90.0523 65.3558C90.0862 65.37 90.117 65.3907 90.143 65.4167C90.1689 65.4428 90.1894 65.4737 90.2034 65.5077C90.2174 65.5417 90.2245 65.5781 90.2244 65.6148C90.2243 65.6516 90.217 65.688 90.2028 65.7219C90.1887 65.7558 90.168 65.7866 90.1419 65.8125C83.5754 72.3438 76.5399 77.0414 76.2824 77.094ZM79.3948 81.5904C79.3524 81.5295 79.336 81.4542 79.3491 81.3812C79.3622 81.3082 79.4038 81.2433 79.4647 81.201C84.1262 77.9582 88.9459 74.6053 92.9427 70.4426C92.9679 70.4153 92.9984 70.3933 93.0322 70.3779C93.0661 70.3624 93.1027 70.3539 93.1398 70.3528C93.177 70.3517 93.2141 70.358 93.2488 70.3714C93.2835 70.3847 93.3152 70.4049 93.3421 70.4307C93.3689 70.4564 93.3903 70.4873 93.4051 70.5214C93.4199 70.5556 93.4277 70.5923 93.4281 70.6295C93.4284 70.6667 93.4214 70.7036 93.4074 70.7381C93.3933 70.7726 93.3726 70.8039 93.3463 70.8302C89.3112 75.0331 84.4681 78.4021 79.7844 81.6604C79.7542 81.6814 79.7202 81.6962 79.6843 81.7041C79.6484 81.7119 79.6113 81.7126 79.5751 81.7061C79.5389 81.6996 79.5044 81.686 79.4734 81.6662C79.4425 81.6463 79.4158 81.6206 79.3948 81.5904Z" fill="white"/>
<path d="M106.86 43.4123L97.8375 46.5101L99.7933 50.0004L107.009 45.6573L121.923 59.7939L118.39 66.173L121.301 68.7049L124.67 60.168L106.86 43.4123Z" fill="#AACCFF"/>
<path d="M75.1242 38.9191C75.1242 38.9191 103.312 68.5719 131.287 89.5001L135.629 80.2144L84.0343 33.3848L75.1242 38.9191Z" fill="#E0EDFF"/>
<path d="M47.4246 40.8556L25.8593 51.0589C24.9182 51.5042 24.5162 52.628 24.9615 53.5691L35.1648 75.1345C35.61 76.0756 36.7339 76.4775 37.675 76.0322L59.2404 65.829C60.1815 65.3837 60.5834 64.2598 60.1381 63.3187L49.9348 41.7534C49.4896 40.8123 48.3657 40.4103 47.4246 40.8556Z" fill="#E0EDFF"/>
<path d="M31.1571 55.951C30.6822 56.1983 30.5001 56.7854 30.7516 57.258L31.4379 58.5474C31.6854 59.0124 32.2607 59.1924 32.7291 58.9512L39.1614 55.6399C39.6368 55.3952 39.8219 54.8101 39.5738 54.3365L38.8805 53.0127C38.634 52.5423 38.0533 52.36 37.5823 52.6053L31.1571 55.951Z" fill="white"/>
<path d="M33.6128 61.6828C33.1428 61.9203 32.9507 62.4912 33.1814 62.9645L34.2032 65.0613C34.438 65.5431 35.0209 65.7405 35.5002 65.5007L49.2675 58.6109C49.7576 58.3657 49.9446 57.7615 49.6788 57.2823L48.5169 55.1876C48.2659 54.735 47.702 54.5616 47.24 54.7951L33.6128 61.6828Z" fill="#AACCFF"/>
<path d="M36.3419 67.6456C35.8622 67.8746 35.6586 68.4487 35.8868 68.9287L36.9141 71.0887C37.1422 71.5685 37.7157 71.773 38.1959 71.5458L55.1512 63.5258C55.6477 63.291 55.8476 62.6892 55.5904 62.2039L54.4387 60.0313C54.1969 59.5753 53.6386 59.3908 53.1727 59.6132L36.3419 67.6456Z" fill="#FFE09D"/>
<path d="M48.2961 81.4777C48.2961 81.4777 103.03 82.8444 120.017 80.3486L112.286 151.925C112.286 151.925 86.8071 160.081 57.1038 152.954L48.2961 81.4777Z" fill="#E0EDFF"/>
<path d="M65.6371 148.071L56.2513 89.4748C56.2374 89.3902 56.2403 89.3036 56.26 89.2202C56.2796 89.1367 56.3155 89.0579 56.3657 88.9884C56.4158 88.9188 56.4792 88.8598 56.5522 88.8148C56.6252 88.7698 56.7064 88.7397 56.7911 88.7261C56.8757 88.7125 56.9622 88.7158 57.0456 88.7358C57.129 88.7557 57.2077 88.7919 57.2771 88.8423C57.3464 88.8927 57.4052 88.9564 57.4499 89.0295C57.4946 89.1027 57.5245 89.184 57.5377 89.2687L66.9238 147.865C66.9512 148.036 66.9096 148.21 66.8083 148.35C66.7069 148.49 66.5542 148.584 66.3835 148.612C66.2129 148.639 66.0384 148.597 65.8984 148.496C65.7585 148.395 65.6645 148.242 65.6371 148.071ZM75.6903 148.801L70.9984 90.6826C70.9916 90.5973 71.0016 90.5115 71.0279 90.43C71.0542 90.3486 71.0963 90.2732 71.1518 90.208C71.2073 90.1429 71.275 90.0893 71.3512 90.0503C71.4274 90.0114 71.5105 89.9878 71.5958 89.981C71.6811 89.9741 71.7669 89.9841 71.8483 90.0105C71.9297 90.0368 72.0052 90.0789 72.0703 90.1343C72.1355 90.1898 72.189 90.2576 72.228 90.3337C72.267 90.4099 72.2905 90.493 72.2974 90.5783L76.9893 148.697C77.0031 148.869 76.9479 149.04 76.8359 149.171C76.7804 149.236 76.7127 149.29 76.6365 149.329C76.5603 149.368 76.4772 149.391 76.3919 149.398C76.2197 149.412 76.049 149.357 75.9174 149.245C75.7858 149.133 75.7041 148.973 75.6903 148.801ZM84.5238 149.562L81.7802 90.8402C81.7721 90.6674 81.833 90.4985 81.9495 90.3707C82.066 90.2428 82.2285 90.1665 82.4012 90.1584C82.574 90.1504 82.7429 90.2113 82.8708 90.3277C82.9986 90.4442 83.075 90.6067 83.083 90.7795L85.8251 149.5C85.8304 149.587 85.8185 149.673 85.7901 149.755C85.7617 149.836 85.7174 149.911 85.6597 149.976C85.6021 150.04 85.5322 150.092 85.4542 150.129C85.3761 150.166 85.2915 150.187 85.2052 150.191C85.1189 150.195 85.0327 150.182 84.9516 150.153C84.8704 150.123 84.796 150.078 84.7326 150.019C84.6692 149.96 84.618 149.89 84.5822 149.811C84.5463 149.732 84.5265 149.648 84.5238 149.561V149.562ZM94.9511 150.382C94.8645 150.382 94.7787 150.365 94.6988 150.331C94.619 150.298 94.5466 150.249 94.4859 150.187C94.4252 150.125 94.3775 150.052 94.3456 149.971C94.3136 149.891 94.298 149.804 94.2997 149.718L95.4501 90.582C95.4536 90.4092 95.5255 90.2449 95.6501 90.1251C95.7747 90.0054 95.9418 89.9401 96.1146 89.9436C96.2873 89.947 96.4517 90.019 96.5714 90.1436C96.6911 90.2682 96.7564 90.4353 96.753 90.608L95.6026 149.744C95.599 149.915 95.5288 150.077 95.407 150.196C95.2852 150.315 95.1216 150.382 94.9511 150.382ZM103.806 149.055C103.634 149.04 103.475 148.958 103.363 148.826C103.252 148.694 103.197 148.523 103.212 148.351L108.199 89.5819C108.214 89.4097 108.296 89.2504 108.428 89.139C108.56 89.0275 108.731 88.9732 108.903 88.9878C109.075 89.0024 109.235 89.0848 109.346 89.2169C109.458 89.349 109.512 89.5199 109.497 89.6921L104.51 148.461C104.496 148.633 104.413 148.792 104.281 148.904C104.149 149.015 103.978 149.069 103.806 149.055Z" fill="#AACCFF"/>
<path d="M39.7539 27.2508C39.7539 27.2508 45.5848 10.7635 48.0706 10.9408C50.5566 11.1185 77.7335 17.0261 78.1667 18.8549C78.6 20.6836 72.1439 40.1899 68.2682 39.5819C64.3924 38.9741 39.7539 27.2508 39.7539 27.2508Z" fill="#AACCFF"/>
<path d="M68.2679 39.5821C68.2679 39.5821 38.7624 34.925 38.0776 32.5602C37.3934 30.1959 39.4563 14.4144 39.6815 12.4273C39.9075 10.4399 43.6829 11.9738 46.0943 12.5573C48.5053 13.1406 49.0825 13.8065 49.3501 15.3946C49.6177 16.983 48.6562 17.6457 51.805 18.7845C54.9534 19.9233 73.1265 23.0558 74.2738 24.806C75.4208 26.5558 70.7967 39.9072 68.2679 39.5821Z" fill="#E0EDFF"/>
</svg>
