<svg xmlns="http://www.w3.org/2000/svg" width="160" height="160" fill="none"><path fill="#ACF" d="M30.936 112.766a147.632 147.632 0 0 1-3.778-22.89c19.45 1 38.919 1.627 58.513 2.05 2.71-5.157 4.415-5.485 7.593-5.472l30.604.112c2.618 0 5.472.1 7.478 1.778 1.79 1.494 2.475 3.9 3.281 6.138-.041 0-.078 0-.103.09 1.928-.09 3.861 0 5.772.272 2.684.385 2.603 1.875 1.206 6.722-4.322 15-6.375 29.969-10.381 45.069-.031 0-1.25-.288-1.806 0-8.26-6.622-19.832-9.232-29.579-13.369-16.778-7.122-15.937-9.284-44.459-17.025-8.044-2.178-16.31-4.366-24.34-3.475Z"/><path fill="#FFE09D" d="M152.518 27.475c0-3.219 1.347-5.469-4.319-6.153a124.506 124.506 0 0 0-31.084.175c-2.981.394-4.469 1.15-5.119 5.775a89.954 89.954 0 0 0-.669 18.475c.291 4.35 1.716 6.375 8.157 5.86l28.921-2.32c2.697-.215 4.419-.996 4.375-6.118-.059-5.222-.109-10.44-.262-15.694Z"/><path fill="#E0EDFF" d="M135.674 59.478c-11.019.57-10.779.45-11.313.844-.447.328-.594.922-.709 1.466a80.848 80.848 0 0 0-1.685 17.065c0 1.897.525 2.666 2.897 2.785 5.865.293 11.744.135 17.585-.472 1.562-.163 2.071-.556 2.315-2.36a124.432 124.432 0 0 0 1.097-15.68c0-.938-.041-2.01-.709-2.688-1.344-1.375-7.575-1.063-9.478-.96ZM80.727 88.409c.838-3.384 1.825-4.575 6.303-4.59 7.709-.03 15.417.268 23.125.893 3.897.313 4.569 1.988 3.175 5.203a124.678 124.678 0 0 0-7.734 24.55c-.391 1.903-1.016 2.213-2.56 2.035-3.75-.429-27.812-2.241-28.168-2.813-.213-.353-.447.228 5.86-25.278Z"/><path fill="#fff" d="M128.565 70.31h-2.813a.781.781 0 0 0-.781.78v5.391c0 .432.35.782.781.782h2.813c.431 0 .781-.35.781-.782v-5.39a.781.781 0 0 0-.781-.781Z"/><path fill="#ACF" d="M134.719 66.565h-2.813a.781.781 0 0 0-.781.782v9.134c0 .431.35.781.781.781h2.813c.431 0 .781-.35.781-.78v-9.135a.781.781 0 0 0-.781-.782Z"/><path fill="#FFE09D" d="M142.072 63.89h-2.812a.78.78 0 0 0-.781.782v11.81a.78.78 0 0 0 .781.78h2.812c.432 0 .782-.35.782-.78v-11.81a.782.782 0 0 0-.782-.781Z"/><path fill="#fff" d="M115.907 41.01c.868-2.582 2.162-4.507 3.846-5.713 2.147-1.54 5.025-1.747 6.997-.5 1.222.772 1.96 1.922 2.897 2.781.75.69 1.86 1.203 2.65.803 1.25-.625 3.381-5.231 6.469-7.666 4.709-3.715 10.194-.912 8.916.55a.79.79 0 0 1-.536.268.775.775 0 0 1-.568-.193c-1.875-1.634-4.925-.912-6.843.6-3.025 2.388-4.857 6.875-6.732 7.838-1.562.788-3.3-.025-4.412-1.047-.966-.887-1.703-2-2.675-2.612-1.45-.916-3.606-.732-5.25.447-1.416 1.012-2.516 2.674-3.278 4.94-.328.994-1.81.484-1.481-.497Z"/><path fill="#fff" d="M131.949 40.878a2.406 2.406 0 1 0 0-4.812 2.406 2.406 0 0 0 0 4.812ZM122.564 37.13a2.407 2.407 0 1 0 0-4.813 2.407 2.407 0 0 0 0 4.814ZM142.854 32.044a2.406 2.406 0 1 0 0-4.812 2.406 2.406 0 0 0 0 4.812Z"/><path fill="#E0EDFF" d="M103.438 37.441a207.29 207.29 0 0 1-8.06 37.447c-12.993 1.962-26.874 3.906-40.446 1.734 2.097-6.36 1.912-8.531 5.722-57.606 12.987-.625 25.696-1.09 38.406-1.178.019.022.047.044.069.066 5.412 4.909 5.131 12.559 4.309 19.537Z"/><path fill="#ACF" d="M103.818 28.69a10.086 10.086 0 0 0-9.2-4.2 33.567 33.567 0 0 0 4.494-6.587c2.947 2.663 4.441 6.785 4.706 10.788ZM71.89 22.035c-.134.85-.381 3.582.272 4.147.286.193.629.282.972.253 6.875.197 18.394.338 18.75.05a.938.938 0 0 0 .262-.647c.155-1.235.272-2.472.353-3.712a158.131 158.131 0 0 0-20.609-.09ZM96.344 31.35c-9.52-.65-19.068-.831-28.606-.54a.314.314 0 0 1-.322-.304.313.313 0 0 1 .303-.322 289.572 289.572 0 0 1 28.669.54.313.313 0 0 1-.044.626Zm-4.397 5.494c-9.419 0-19.04-2.263-28.334-1.013a.316.316 0 0 1-.084-.625c10.98-1.456 22.096 1.853 33.034.806a.314.314 0 1 1 .06.625c-1.56.144-3.116.207-4.676.207ZM71.332 40.69c-8.035-.459-8.57-.065-8.544-.662.025-.597.56-.16 8.569.037a.313.313 0 1 1-.025.625Zm33.14 60.444c-.49 3.472-3.953 7.5-6.54 9.041-4.325 2.562-10.547 1.05-13.31-3.15-2.762-4.2-1.787-10.4 2.06-13.64 3.846-3.242 10-3.226 13.918-.054 2.382 1.928 4.307 4.766 3.872 7.803Z"/><path fill="#fff" d="M104.471 101.134c-.312 2.187-1.562 4.147-2.975 5.841-1.99 2.371-4.062 4.003-7.118 4.375-.207-6.741-1.044-13.782.69-20.313 5.888.725 9.988 5.994 9.403 10.097Z"/><path fill="#FFE09D" d="M101.496 106.975c-2.838 3.381-6.066 5.244-10.681 4.188 4.79-12.613 1.115-7.403 13.703-11.353.168 2.662-1.31 5.118-3.022 7.165Z"/><path fill="#E0EDFF" d="M17.275 102a547.164 547.164 0 0 1 61.925-.244c4.688 2.787 9.357 5.578 13.991 8.625 8.672 0 17.341 0 25.753.212 3.497 14.444 6.531 20.313 7.431 23.916.872 3.494.625 7.209 4.747 12.125a2261.551 2261.551 0 0 0-99.375-.534c-4.437-9.85-9-18.385-11.681-28.913-1.172-4.578-1.875-9.325-2.79-15.187Z"/><path fill="#FFE09D" d="M38.623 33.704C25.02 37.028 7.482 43.195 5.603 44.837c-.908.795-1.365 1.999-1.56 3.19-.663 4.141.807 6.785 7.939 24.695 1.206 3.032 2.392 3.665 5.625 2.57a733.74 733.74 0 0 0 29.93-10.838c2.97-1.15 3.471-2.32 2.457-5.273-8.283-24.09-7.916-23.597-8.964-24.71a2.618 2.618 0 0 0-2.407-.767Z"/><path fill="#fff" d="M32.552 41.263a10.078 10.078 0 0 1 5.604-2.643c.625-.077.762.147.8.504.265 1.663.433 3.34.505 5.022.053.36-.018.727-.2 1.042a1.11 1.11 0 0 1-1.117.331c-.417-.091-.667-.272-1.878-1.024-1.73 4.103-3.429 8.322-5.587 12.33a1.65 1.65 0 0 1-2.164.716 51.549 51.549 0 0 0-5.383-2.234 2.06 2.06 0 0 0-1.295-.143c-.685.227-.496.236-7.207 10.54-.611.943-2.13.478-2.037-.641.066-.791.492-1.518.89-2.193 5.39-9.047 5.873-10.53 7.605-10.522.602.003.73.12 6.621 2.504.433.165.938.326 1.302.064.434-.317 4.492-9.99 5.293-11.57-1.66-.906-2.802-1.106-1.752-2.083Z"/></svg>