<svg xmlns="http://www.w3.org/2000/svg" width="160" height="160" fill="none"><path fill="#FFE09D" d="M65.834 62.095s8.999 20.134 19.046 25.493l14.315-13.3s-7.702-7.41-13.762-20.355l-4.459-1.531-15.14 9.693Z"/><path fill="#fff" d="m82.888 56.435 2.61-2.518-4.442-1.532 1.832 4.05ZM73.065 67.184a.28.28 0 0 1 .048-.393l10.07-7.88a.28.28 0 0 1 .344.441l-10.069 7.88a.278.278 0 0 1-.393-.048Zm1.12 5.01a.28.28 0 0 1-.204-.51 113.799 113.799 0 0 0 13.118-9.596.28.28 0 0 1 .362.427c-6.13 5.197-13 9.624-13.276 9.68Zm2.097 4.9a.28.28 0 0 1-.21-.507 90.62 90.62 0 0 0 13.675-11.171.28.28 0 1 1 .395.397c-6.567 6.53-13.602 11.228-13.86 11.281Zm3.113 4.496a.28.28 0 0 1 .07-.389c4.661-3.243 9.48-6.596 13.478-10.758a.28.28 0 1 1 .403.387c-4.035 4.203-8.878 7.572-13.562 10.83a.281.281 0 0 1-.39-.07Z"/><path fill="#ACF" d="m106.86 43.412-9.022 3.098L99.793 50l7.216-4.343 14.914 14.137-3.533 6.379 2.911 2.532 3.369-8.537-17.81-16.756Z"/><path fill="#E0EDFF" d="M75.124 38.92s28.188 29.652 56.163 50.58l4.342-9.286-51.595-46.83-8.91 5.535ZM47.425 40.856 25.859 51.059a1.885 1.885 0 0 0-.898 2.51l10.204 21.566a1.885 1.885 0 0 0 2.51.897L59.24 65.83a1.885 1.885 0 0 0 .898-2.51L49.935 41.753a1.885 1.885 0 0 0-2.51-.897Z"/><path fill="#fff" d="M31.157 55.951a.963.963 0 0 0-.405 1.307l.686 1.29a.963.963 0 0 0 1.291.403l6.432-3.311a.963.963 0 0 0 .413-1.303l-.694-1.324a.963.963 0 0 0-1.298-.408l-6.425 3.346Z"/><path fill="#ACF" d="M33.613 61.683a.963.963 0 0 0-.432 1.282l1.022 2.096a.963.963 0 0 0 1.297.44l13.767-6.89a.963.963 0 0 0 .412-1.329l-1.162-2.094a.963.963 0 0 0-1.277-.393l-13.627 6.888Z"/><path fill="#FFE09D" d="M36.342 67.646a.963.963 0 0 0-.455 1.283l1.027 2.16a.963.963 0 0 0 1.282.457l16.955-8.02a.963.963 0 0 0 .44-1.322l-1.152-2.173a.963.963 0 0 0-1.266-.418l-16.831 8.033Z"/><path fill="#E0EDFF" d="M48.296 81.478s54.734 1.366 71.721-1.13l-7.731 71.577s-25.479 8.156-55.182 1.029l-8.808-71.476Z"/><path fill="#ACF" d="m65.637 148.071-9.386-58.596a.65.65 0 0 1 .795-.74.651.651 0 0 1 .492.534l9.386 58.596a.65.65 0 1 1-1.287.206Zm10.053.73-4.692-58.118a.653.653 0 0 1 .85-.673.652.652 0 0 1 .45.568l4.691 58.119a.65.65 0 0 1-1.072.548.652.652 0 0 1-.227-.444Zm8.834.761L81.78 90.84a.652.652 0 1 1 1.303-.06l2.742 58.72a.655.655 0 0 1-.37.629.652.652 0 0 1-.931-.568v.001Zm10.427.82a.644.644 0 0 1-.465-.195.647.647 0 0 1-.186-.469l1.15-59.136a.652.652 0 0 1 1.303.026l-1.15 59.136a.65.65 0 0 1-.652.638Zm8.855-1.327a.655.655 0 0 1-.594-.704l4.987-58.77a.653.653 0 0 1 .704-.593.651.651 0 0 1 .594.704l-4.987 58.769a.651.651 0 0 1-.704.594ZM39.754 27.25s5.83-16.486 8.317-16.31c2.486.178 29.663 6.086 30.096 7.915.433 1.829-6.023 21.335-9.899 20.727-3.876-.608-28.514-12.331-28.514-12.331Z"/><path fill="#E0EDFF" d="M68.268 39.582s-29.506-4.657-30.19-7.022c-.685-2.364 1.378-18.146 1.603-20.133.227-1.987 4.002-.453 6.413.13 2.411.584 2.989 1.25 3.256 2.838.268 1.588-.694 2.25 2.455 3.39 3.148 1.138 21.321 4.27 22.469 6.021 1.147 1.75-3.477 15.101-6.006 14.776Z"/></svg>