<svg width="29" height="32" viewBox="0 0 29 32" fill="none" xmlns="http://www.w3.org/2000/svg">
<path d="M6.31146 0.986328H17.7363L27.414 10.6641V25.2441C27.414 28.1851 25.0297 30.5693 22.0888 30.5693H6.31146C3.37055 30.5693 0.986267 28.1851 0.986267 25.2441V6.31152C0.986267 3.37061 3.37055 0.986328 6.31146 0.986328Z" fill="#F5FDF7" stroke="#248A3D" stroke-width="1.97222"/>
<path d="M28.3999 10.65L17.7499 0V5.50862C17.7499 8.34813 19.975 10.65 22.7199 10.65H28.3999Z" fill="#248A3D"/>
<path fill-rule="evenodd" clip-rule="evenodd" d="M9.93218 12H12.5361L14.1247 14.4425L15.7509 12.0095H18.3179L15.2813 16.1224L18.4532 20.6687H16.0881L14.0982 17.822L12.9603 19.5177L14.1137 19.5192V20.6778H9.77539L12.9308 16.1489L9.93218 12Z" fill="#34C759"/>
</svg>
