<svg width="29" height="32" viewBox="0 0 29 32" fill="none" xmlns="http://www.w3.org/2000/svg">
<path d="M6.31152 0.986328H17.7363L27.4141 10.6641V25.2441C27.4141 28.1851 25.0298 30.5693 22.0889 30.5693H6.31152C3.37061 30.5693 0.986328 28.1851 0.986328 25.2441V6.31152C0.986328 3.37061 3.37061 0.986328 6.31152 0.986328Z" fill="#F2F8FF" stroke="#006BD8" stroke-width="1.97222"/>
<path d="M28.4001 10.65L17.7501 0V5.50862C17.7501 8.34813 19.9752 10.65 22.7201 10.65H28.4001Z" fill="#006BD8"/>
<path d="M10.2923 12.0003H8.22247L10.386 21.7765H12.5085L13.9145 16.0844L15.2647 21.7778H17.2607L19.778 12H16.2798V13.6282H17.4722L16.2627 18.3035L15.0129 12H13.0128L11.4607 18.3938L10.2923 12.0003Z" fill="#006BD8"/>
<rect x="15" y="18" width="12.9998" height="13" rx="6.49991" fill="#006BD8"/>
<path d="M20.9694 25.0306H18.3164C18.2463 25.0324 18.1766 25.0198 18.1115 24.9936C18.0464 24.9674 17.9874 24.9282 17.9381 24.8783C17.8882 24.829 17.849 24.77 17.8228 24.7049C17.7966 24.6399 17.784 24.5701 17.7858 24.5C17.7858 24.3498 17.8367 24.2241 17.9381 24.1217C17.9874 24.0718 18.0464 24.0326 18.1115 24.0064C18.1766 23.9802 18.2463 23.9676 18.3164 23.9694H20.9694V21.3164C20.9694 21.1663 21.0203 21.0405 21.1217 20.9381C21.171 20.8882 21.23 20.849 21.2951 20.8228C21.3601 20.7966 21.4299 20.784 21.5 20.7858C21.6502 20.7858 21.7759 20.8367 21.8783 20.9381C21.928 20.9875 21.9671 21.0466 21.9933 21.1116C22.0195 21.1766 22.0322 21.2463 22.0306 21.3164V23.9694H24.6836C24.8338 23.9694 24.9595 24.0203 25.0619 24.1217C25.1633 24.2236 25.2142 24.3498 25.2142 24.5C25.2142 24.6502 25.1633 24.7759 25.0619 24.8783C25.0126 24.9282 24.9536 24.9674 24.8885 24.9936C24.8234 25.0198 24.7537 25.0324 24.6836 25.0306H22.0306V27.6836C22.0306 27.8338 21.9797 27.9595 21.8783 28.0619C21.829 28.1118 21.77 28.1511 21.7049 28.1772C21.6399 28.2034 21.5701 28.216 21.5 28.2142C21.4299 28.216 21.3601 28.2034 21.2951 28.1772C21.23 28.1511 21.171 28.1118 21.1217 28.0619C21.0718 28.0126 21.0326 27.9536 21.0064 27.8885C20.9802 27.8234 20.9676 27.7537 20.9694 27.6836V25.0306Z" fill="white"/>
</svg>
