<svg width="29" height="32" viewBox="0 0 29 32" fill="none" xmlns="http://www.w3.org/2000/svg">
<path d="M6.31152 0.986328H17.7363L27.4141 10.6641V25.2441C27.4141 28.1851 25.0298 30.5693 22.0889 30.5693H6.31152C3.37061 30.5693 0.986328 28.1851 0.986328 25.2441V6.31152C0.986328 3.37061 3.37061 0.986328 6.31152 0.986328Z" fill="#F2F8FF" stroke="#006BD8" stroke-width="1.97222"/>
<path d="M28.4001 10.65L17.7501 0V5.50862C17.7501 8.34813 19.9752 10.65 22.7201 10.65H28.4001Z" fill="#006BD8"/>
<path d="M10.2923 12.0003H8.22247L10.386 21.7765H12.5085L13.9145 16.0844L15.2647 21.7778H17.2607L19.778 12H16.2798V13.6282H17.4722L16.2627 18.3035L15.0129 12H13.0128L11.4607 18.3938L10.2923 12.0003Z" fill="#006BD8"/>
</svg>
