<svg width="29" height="32" viewBox="0 0 29 32" fill="none" xmlns="http://www.w3.org/2000/svg">
<path d="M6.31165 0.986328H17.7365L27.4142 10.6641V25.2441C27.4142 28.1851 25.0299 30.5693 22.089 30.5693H6.31165C3.37073 30.5693 0.98645 28.1851 0.98645 25.2441V6.31152C0.98645 3.37061 3.37073 0.986328 6.31165 0.986328Z" fill="#FDFAF5" stroke="#FF9500" stroke-width="1.97222"/>
<path d="M28.4001 10.65L17.7501 0V5.50862C17.7501 8.34813 19.9752 10.65 22.7201 10.65H28.4001Z" fill="#FF9500"/>
<path fill-rule="evenodd" clip-rule="evenodd" d="M10.959 12V20.6778H12.6082V17.5459H14.5813C15.9638 17.5459 17.0845 16.3044 17.0845 14.773C17.0845 13.2415 15.9638 12 14.5813 12H10.959ZM12.6082 16.241V13.3049H14.2279C14.9598 13.3049 15.5532 13.9622 15.5532 14.773C15.5532 15.5838 14.9598 16.241 14.2279 16.241H12.6082Z" fill="#FF9500"/>
</svg>
