<svg xmlns="http://www.w3.org/2000/svg" xmlns:xlink="http://www.w3.org/1999/xlink" width="272" height="196" viewBox="0 0 272 196">
  <defs>
    <path id="illustration---contacts-b" d="M200,67 L200,71 L200,67 Z M143,90 L143,98.0011235 C143,100.035089 142.865087,102.037536 142.603717,104 L147.746431,104 L158,104 L158,99 L180,99 L180,104 L190.503996,104 L198.001158,104 C203.523366,104 208,108.472076 208,113.990507 L208,144 L131.5,144 L63,144 C63,144 63,136.560577 65.2419581,128.855773 C57.6516899,120.800718 53,109.945435 53,98.0011235 L53,60.9988765 C53,36.1466832 73.1417218,16 98,16 C107.407958,16 116.14161,18.8861705 123.363329,23.8218204 L121.213346,17.4793707 C119.438664,12.2440588 122.480798,8 128.00236,8 C128.00236,8 164,8 174,8 C184,8 184,18 184,18 C184,18 184,8 194,8 L199.991223,8 C205.518918,8 209.252464,12.4104604 208.329041,17.85866 L201.663326,57.1863752 C204.264274,57.6786922 209,59.4714833 209,66 C209,75 200,75 200,75 L200,71 Z"/>
    <filter id="illustration---contacts-a" width="137.2%" height="142.6%" x="-18.6%" y="-14%" filterUnits="objectBoundingBox">
      <feOffset dy="10" in="SourceAlpha" result="shadowOffsetOuter1"/>
      <feGaussianBlur in="shadowOffsetOuter1" result="shadowBlurOuter1" stdDeviation="8"/>
      <feColorMatrix in="shadowBlurOuter1" values="0 0 0 0 0.221705603   0 0 0 0 0.376707582   0 0 0 0 0.585485757  0 0 0 0.154013813 0"/>
    </filter>
  </defs>
  <g fill="none" fill-rule="evenodd" transform="translate(5 17)">
    <use fill="#000" filter="url(#illustration---contacts-a)" xlink:href="#illustration---contacts-b"/>
    <g transform="translate(120 8)">
      <path fill="#32363F" d="M1.213346,9.47937071 C-0.56133599,4.24405883 2.48079765,5.79672862e-17 8.00235981,1.21103398e-16 C8.00235981,1.21103398e-16 44,6.52257534e-16 54,0 C64,0 64,10 64,10 C64,10 64,0 74,0 L79.991223,0 C85.5189179,0 89.2524643,4.41046039 88.3290407,9.85865996 L80,59 L18,59 L1.213346,9.47937071 Z"/>
      <path fill="#000" d="M1.97799958,9.48729881 C0.333295827,4.79989311 3.02824994,1 7.99674473,1 L49,1 L49,58 L19,58 L1.97799958,9.48729881 Z"/>
      <path fill="#FFF0CF" d="M38,96 L23.9926348,96 C18.4858876,96 14.0005395,100.474185 14.0004313,105.993372 L14,128 L84,128 L84,105.993372 C84,100.483157 79.5264258,96 74.0079924,96 L60,96 L60,88 L38,88 L38,96 Z"/>
      <rect width="22" height="4" x="38" y="91" fill="#FFDE94"/>
      <path fill="#B2D3FF" d="M10.0004706,105.990507 C10.0005571,100.472902 14.4834531,96 19.99081,96 L31.5002276,96 C31.500227,106 67,106 67,96 L78.0011577,96 C83.5233658,96 88,100.472076 88,105.990507 L88,136 L10,136 L10.0004706,105.990507 Z"/>
      <path fill="#FFF0CF" d="M20.8331089,79.8331089 C19.2684261,78.2684261 18,75.2079681 18,72.9997876 L18,43 C18,43 34,43 49,43 C64,43 64,29 64,29 C64,29 65,43 80,43 L80,72.9997876 C80,75.2090439 78.7329014,78.2670986 77.1668911,79.8331089 L68.8331089,88.1668911 C67.2684261,89.7315739 64.2079681,91 61.9997876,91 L36.0002124,91 C33.7909561,91 30.7329014,89.7329014 29.1668911,88.1668911 L20.8331089,79.8331089 Z"/>
      <rect width="2" height="6" x="63" y="20" fill="#000" rx="1"/>
      <path fill="#FFF0CF" d="M80,58 C80,49 89,49 89,49 L89,67 C89,67 80,67 80,58 Z" transform="matrix(-1 0 0 1 169 0)"/>
      <g stroke-width="2" transform="translate(22 41)">
        <circle cx="12" cy="12" r="12" fill="#FFF" stroke="#32363F" stroke-linecap="round" stroke-linejoin="round"/>
        <circle cx="42" cy="12" r="12" fill="#FFF" stroke="#32363F" stroke-linecap="round" stroke-linejoin="round"/>
        <path stroke="#FFC543" stroke-linecap="round" d="M20,28 C20,28 20,32 27,32 C34,32 34,28 34,28"/>
        <path stroke="#32363F" d="M24,12 C24,12 24,10 27,10 C30,10 30,12 30,12"/>
        <path stroke="#35CE68" stroke-linecap="round" d="M15 14C15 14 15 11 12 11 9 11 9 14 9 14M45 14C45 14 45 11 42 11 39 11 39 14 39 14"/>
      </g>
      <path fill="#197BFF" d="M23 123.998502C23 123.447045 23.4438648 123 24 123L24 123C24.5522847 123 25 123.447489 25 123.998502L25 136 23 136 23 123.998502zM73 123.998502C73 123.447045 73.4438648 123 74 123L74 123C74.5522847 123 75 123.447489 75 123.998502L75 136 73 136 73 123.998502z"/>
    </g>
    <g transform="translate(53 16)">
      <rect width="90" height="127" fill="#8B572A" rx="45"/>
      <path fill="#6E3E14" d="M1,46 C1,21 19.9999998,1 45,1 C44.9999989,8.00000012 45,118 45,126 C19,126 0.999999837,104 1,81 C1.00000006,73 1,55.6460601 1,46 Z"/>
      <path fill="#E4C2A4" d="M35.8906788,96 C33.6478432,96 31.6336847,96 30.0006272,96 C10,96 10,128 10,128 L80,128 C80,128 80,96 60,96 C57.8999561,96 55.5276745,96 53.0356202,96 L53,88 L37,88 L37,96 Z"/>
      <path fill="#FFDEC1" d="M30.0006272,96 C30.0006275,126 60,126 60,96 C80,96 80,128 80,128 L10,128 C10,128 10,96 30.0006272,96 Z"/>
      <path fill="#CDA27D" d="M37,90 L53,90 L53,94 C53,94 50,95 45,95 C40,95 37,94 37,94 L37,90 Z"/>
      <path fill="#E4C2A4" d="M14,43 C14,43 15,43 30,43 C45,43 45,29 45,29 C45,29 46,43 61,43 L76,43 L76,61.0099928 C76,77.5730164 62.5660196,91 45.9988697,91 L44.0011303,91 C27.4319635,91 14,77.5654971 14,61.0099928 L14,43 Z"/>
      <path fill="#DF8E6E" d="M26,68 C23.790861,68 22,67.1045695 22,66 C22,64.8954305 23.790861,64 26,64 C28.209139,64 30,64.8954305 30,66 C30,67.1045695 28.209139,68 26,68 Z M64,68 C61.790861,68 60,67.1045695 60,66 C60,64.8954305 61.790861,64 64,64 C66.209139,64 68,64.8954305 68,66 C68,67.1045695 66.209139,68 64,68 Z"/>
      <path fill="#E4C2A4" d="M5,58 C5,49 14,49 14,49 L16,67 L14,67 C14,67 5,67 5,58 Z"/>
      <path fill="#E4C2A4" d="M74,58 C74,49 83,49 83,49 L85,67 L83,67 C83,67 74,67 74,58 Z" transform="matrix(-1 0 0 1 159 0)"/>
      <g transform="translate(28 51)">
        <circle cx="4" cy="4" r="4" fill="#32363F"/>
        <circle cx="30" cy="4" r="4" fill="#32363F"/>
        <path fill="#FD7461" d="M7,18 L27,18 C27,18 28,30 17,30 C6,30 7,18 7,18 Z"/>
      </g>
      <path fill="#FF9433" d="M67 122.002929C67 121.449027 67.4438648 121 68 121L68 121C68.5522847 121 69 121.437881 69 122.002929L69 128 67 128 67 122.002929zM21 122.002929C21 121.449027 21.4438648 121 22 121L22 121C22.5522847 121 23 121.437881 23 122.002929L23 128 21 128 21 122.002929z"/>
    </g>
    <path fill="#FFEAA5" d="M24,129 L24,127 C24,127 29,127 29,122 L31,122 C31,122 31,127 36,127 L36,129 C36,129 31,129 31,134 L29,134 C29,134 29,129 24,129 Z"/>
    <path fill="#FFE441" fill-rule="nonzero" d="M62,12 C65.3137085,12 68,9.3137085 68,6 C68,2.6862915 65.3137085,0 62,0 C58.6862915,0 56,2.6862915 56,6 C56,9.3137085 58.6862915,12 62,12 L62,12 Z M62,8 C60.8954305,8 60,7.1045695 60,6 C60,4.8954305 60.8954305,4 62,4 C63.1045695,4 64,4.8954305 64,6 C64,7.1045695 63.1045695,8 62,8 L62,8 Z"/>
    <circle cx="3" cy="32" r="3" fill="#FFEAA5"/>
    <path fill="#FFEAA5" d="M252,68 L252,66 C252,66 257,66 257,61 L259,61 C259,61 259,66 264,66 L264,68 C264,68 259,68 259,73 L257,73 C257,73 257,68 252,68 Z"/>
    <path fill="#FFE441" fill-rule="nonzero" d="M243,102 C246.313708,102 249,99.3137085 249,96 C249,92.6862915 246.313708,90 243,90 C239.686292,90 237,92.6862915 237,96 C237,99.3137085 239.686292,102 243,102 L243,102 Z M243,98 C241.895431,98 241,97.1045695 241,96 C241,94.8954305 241.895431,94 243,94 C244.104569,94 245,94.8954305 245,96 C245,97.1045695 244.104569,98 243,98 L243,98 Z"/>
    <circle cx="234" cy="44" r="3" fill="#FFEAA5"/>
  </g>
</svg>
