<svg xmlns="http://www.w3.org/2000/svg" width="272" height="196" viewBox="0 0 272 196" xmlns:xlink="http://www.w3.org/1999/xlink">
  <defs>
    <path id="b" d="M58,36.0492939 L58,34.9942008 C58,29.4745561 62.4748366,25 68.0066862,25 L98.0025078,25 C99.1056923,25 100.538927,25.7185699 101.194477,26.5926361 L110.805523,39.4073639 C111.465214,40.2869525 112.895725,41 113.998468,41 L125,41 L125,14.9971887 C125,9.47589385 129.476278,5 134.995532,5 L181,5 L207,31 L207,105.999469 C207,111.52261 202.51848,116 197.0067,116 L186,116 L186,124.004112 C186,128.418957 182.411137,131.998116 177.996514,131.999999 C177.999412,132 178,132 178,132 L59.001688,132 C53.4779082,132 49,127.53042 49,121.997993 L49,46.0020066 C49,40.8153034 52.9510115,36.5506929 58,36.0492939 Z"/>
    <filter id="a" width="200%" height="200%" x="-50%" y="-50%" filterUnits="objectBoundingBox">
      <feOffset dy="10" in="SourceAlpha" result="shadowOffsetOuter1"/>
      <feGaussianBlur stdDeviation="8" in="shadowOffsetOuter1" result="shadowBlurOuter1"/>
      <feColorMatrix values="0 0 0 0 0.221705603 0 0 0 0 0.376707582 0 0 0 0 0.585485757 0 0 0 0.154013813 0" in="shadowBlurOuter1"/>
    </filter>
  </defs>
  <g fill="none" fill-rule="evenodd" transform="translate(9 26)">
    <use fill="black" filter="url(#a)" xlink:href="#b"/>
    <g transform="translate(49)">
      <path fill="#197BFF" d="M9,34.9942008 C9,29.4745561 13.4748366,25 19.0066862,25 L49.0025078,25 C50.1056923,25 51.5389274,25.7185699 52.1944771,26.5926361 L61.8055229,39.4073639 C62.4652144,40.2869525 63.8957251,41 64.9984678,41 L127.000799,41 C132.523205,41 137,45.4816649 137,50.9989019 L137,124.004112 C137,128.420119 133.409247,132 128.993027,132 L18.9906302,132 C13.4729575,132 9,127.521642 9,122.005799 L9,34.9942008 Z"/>
      <g transform="translate(76)">
        <path fill="#FFDEC1" d="M0,14.9971887 C0,9.47589385 4.47627836,5 9.99553171,5 L56,5 L82,31 L82,105.999469 C82,111.52261 77.5184801,116 72.0066997,116 L9.99330035,116 C4.47415296,116 0,111.528481 0,106.002811 L0,14.9971887 Z"/>
        <path fill="#FF9433" d="M44,73 C44,72.4477153 44.4398131,72 44.9965348,72 L71.0034652,72 C71.5538362,72 72,72.4438648 72,73 C72,73.5522847 71.5601869,74 71.0034652,74 L44.9965348,74 C44.4461638,74 44,73.5561352 44,73 Z M44,89 C44,88.4477153 44.4398131,88 44.9965348,88 L71.0034652,88 C71.5538362,88 72,88.4438648 72,89 C72,89.5522847 71.5601869,90 71.0034652,90 L44.9965348,90 C44.4461638,90 44,89.5561352 44,89 Z M44,97 C44,96.4477153 44.4398131,96 44.9965348,96 L71.0034652,96 C71.5538362,96 72,96.4438648 72,97 C72,97.5522847 71.5601869,98 71.0034652,98 L44.9965348,98 C44.4461638,98 44,97.5561352 44,97 Z M44,81 C44,80.4477153 44.4474692,80 45.0006946,80 L66.9993054,80 C67.5519738,80 68,80.4438648 68,81 C68,81.5522847 67.5525308,82 66.9993054,82 L45.0006946,82 C44.4480262,82 44,81.5561352 44,81 Z M44,105 C44,104.447715 44.4446309,104 45.0008717,104 L58.9991283,104 C59.5518945,104 60,104.443865 60,105 C60,105.552285 59.5553691,106 58.9991283,106 L45.0008717,106 C44.4481055,106 44,105.556135 44,105 Z"/>
        <path fill="#9169F2" stroke="#000000" stroke-width="2" d="M11,17.9974922 C11,16.8943077 11.8988921,16 12.9916575,16 L54.0083425,16 C55.1083045,16 56.6349504,16.6349504 57.4111636,17.4111636 L69.5888364,29.5888364 C70.3682005,30.3682005 71,31.8983383 71,33.0073299 L71,55.9926701 C71,57.1012878 70.1052696,58 69.0036926,58 L12.9963074,58 C11.8937773,58 11,57.1033397 11,56.0025078 L11,17.9974922 Z" stroke-linecap="round" stroke-linejoin="round"/>
        <g transform="translate(9 14)">
          <path fill="#FFFFFF" d="M0,3.99400932 C0,1.78817888 1.79426827,0 4.00718972,0 L50,0 L64,14 L64,48.0051562 C64,50.2114475 62.2046235,52 59.9965134,52 L4.00348663,52 C1.79242202,52 0,50.2100423 0,48.0059907 L0,3.99400932 Z"/>
          <path fill="#FF9433" d="M0,40 L12.580561,27.419439 C13.3644955,26.6355045 14.6277466,26.6277466 15.4118241,27.4118241 L22,34 L38.5875702,17.4124298 C39.3676336,16.6323664 40.6296055,16.6296055 41.4117085,17.4117085 L64,40 L64,48.0041738 C64,50.2110077 62.2046235,52 59.9965134,52 L4.00348663,52 C1.79242202,52 0,50.2034788 0,48.0041738 L0,40 Z"/>
          <circle cx="16" cy="14" r="6" fill="#FF9433"/>
          <path stroke="#FFFFFF" stroke-width="3" d="M22,32 L11,43 L22,32 Z" stroke-linecap="round" stroke-linejoin="round"/>
        </g>
        <path fill="#FF9433" d="M56 5L82 31 65.9965015 31C60.4755862 31 56 26.5304407 56 21.0034985L56 5zM16 20C16 20.1146278 15.98685 20.3447514 15.9462721 20.6490863 15.8783416 21.1585649 15.7565424 21.6660615 15.5715233 22.1286093 15.086305 23.341655 14.296291 24 13 24 11.703709 24 10.913695 23.341655 10.4284767 22.1286093 10.2434576 21.6660615 10.1216584 21.1585649 10.0537279 20.6490863 10.0131499 20.3447514 10 20.1146278 10 20L10 7C10 6.85584103 10.0168467 6.57281652 10.0686173 6.20006837 10.1552756 5.57612825 10.3107692 4.95415388 10.5480769 4.38461538 11.1852165 2.85548046 12.2545671 2 14 2 15.7946737 2 16.8631121 2.71229226 17.4805728 3.9472136 17.7055134 4.39709468 17.8531704 4.88928473 17.9354811 5.38314899 17.9843258 5.67621732 18 5.89565614 18 6L20 6C20 5.23361275 19.8200798 4.15409166 19.2694272 3.0527864 18.3243879 1.16270774 16.5803263-.66133815e-16 14 0 11.3704329.66133815e-16 9.62728353 1.39451954 8.70192308 3.61538462 8.17284262 4.88517772 8 6.12964455 8 7L8 20C8.00000001 20.741003 8.14031589 21.7933721 8.57152332 22.8713907 9.33630508 24.783345 10.796291 26 13 26 15.203709 26 16.6636949 24.783345 17.4284767 22.8713907 17.8596841 21.7933721 18 20.741003 18 20L18 10 16 10 16 20z"/>
      </g>
      <path fill="#B2D3FF" d="M0,46.0020066 C0,40.4780509 4.48152556,36 9.99803603,36 L41.9950767,36 C43.1023652,36 44.5389274,36.7185699 45.1944771,37.5926361 L54.8055229,50.4073639 C55.4652144,51.2869525 56.8941241,52 57.998668,52 L111.003953,52 C116.524617,52 121,56.4866132 121,61.9952729 L121,124 C121,132 129,132 129,132 L10.001688,132 C4.47790824,132 0,127.53042 0,121.997993 L0,46.0020066 Z"/>
    </g>
    <g transform="translate(0 8)">
      <path fill="#FFEBA5" d="M40,7 L40,5 C40,5 45,5 45,0 L47,0 C47,0 47,5 52,5 L52,7 C52,7 47,7 47,12 L45,12 C45,12 45,7 40,7 Z"/>
      <path fill="#FFEBA5" fill-rule="nonzero" d="M29,92 C32.3137085,92 35,89.3137085 35,86 C35,82.6862915 32.3137085,80 29,80 C25.6862915,80 23,82.6862915 23,86 C23,89.3137085 25.6862915,92 29,92 L29,92 Z M29,88 C27.8954305,88 27,87.1045695 27,86 C27,84.8954305 27.8954305,84 29,84 C30.1045695,84 31,84.8954305 31,86 C31,87.1045695 30.1045695,88 29,88 L29,88 Z"/>
      <circle cx="3" cy="41" r="3" fill="#FFE541"/>
      <path fill="#FFE541" d="M238,83 L238,81 C238,81 243,81 243,76 L245,76 C245,76 245,81 250,81 L250,83 C250,83 245,83 245,88 L243,88 C243,88 243,83 238,83 Z"/>
      <path fill="#FFEBA5" fill-rule="nonzero" d="M220,23 C223.313708,23 226,20.3137085 226,17 C226,13.6862915 223.313708,11 220,11 C216.686292,11 214,13.6862915 214,17 C214,20.3137085 216.686292,23 220,23 L220,23 Z M220,19 C218.895431,19 218,18.1045695 218,17 C218,15.8954305 218.895431,15 220,15 C221.104569,15 222,15.8954305 222,17 C222,18.1045695 221.104569,19 220,19 L220,19 Z"/>
      <circle cx="203" cy="131" r="3" fill="#FFEBA5"/>
    </g>
  </g>
</svg>
