<svg xmlns="http://www.w3.org/2000/svg" width="128" height="96" fill="none"><path fill="#fff" d="M52.707 36.495c-5.734-4.877-11.575-9.861-15.22-16.506A125.275 125.275 0 0 0 49.76 9.645a46.38 46.38 0 0 0 14.845 14.899c-3.645 4.234-7.61 8.253-11.898 11.95Z"/><path fill="#2BD1D4" d="M50.617 35.637c-1.232-3.054-1.607-6.324-1.983-9.54-.16-1.553-.321-3.107-.59-4.608-.16-.75-.481-1.179-1.232-1.393-.857-.268-1.822-.375-2.68-.536-2.036-.322-4.019-.643-6.055-.858 0-.053-.054-.107-.16-.053-.323.214-.698.375-1.02.59-.213.106-.481.267-.589.482-.214.428.161.964.43 1.286.856 1.232 2.035 2.25 3.107 3.376 2.251 2.358 4.502 4.716 6.7 7.128 1.285 1.34 2.518 2.733 3.75 4.126.054.054.054.054.108 0v.054c.053.053.268.053.214-.054Z"/><path fill="#2BD1D4" d="M58.227 31.886c.108-.322-.053-.697-.107-1.018a22.638 22.638 0 0 0-.964-2.412c-.161-.375-.376-.75-.536-1.18-.161-.32-.322-.642-.644-.857-.321-.214-.75-.214-1.071-.321-.483-.107-1.019-.16-1.555-.268-2.036-.268-4.126-.429-6.216-.59-1.983-.107-4.02-.107-6.002.161-.054 0-.108.107-.054.107-.375.054-.697-.214-1.072-.214-.268 0-.429.16-.643.322a4.009 4.009 0 0 0-.965 2.036c-.053.75.483 1.18.911 1.661.644.697 1.34 1.34 2.037 1.983 1.447 1.233 2.948 2.412 4.448 3.59l2.25 1.77c.644.535 1.287 1.232 2.091 1.66.375.215.804.322 1.233.43.321.053.643.16.964.053.322-.107.536-.322.804-.536.375-.321.75-.697 1.125-1.072.644-.643 1.18-1.34 1.715-2.09.59-.857 1.019-1.768 1.662-2.572.268-.107.536-.322.59-.643Z"/><path fill="#BBD9FD" d="m65.998 23.793-.16-.16C59.62 19.935 54.421 14.737 50.67 8.52c-.107-.16-.215-.268-.375-.268-.215-.268-.643-.375-.965-.054a125.432 125.432 0 0 1-15.756 12.916c-.214.107-1.554 1.125-1.554 1.232-.054.108 0 .376.107.536.697 1.715 1.608 3.162 2.68 4.502 1.393 1.822 2.84 3.59 4.394 5.252a62.901 62.901 0 0 0 8.682 7.77c.107.108 1.233.912 1.286.965.161.108.268.215.43.322.106.054.213.107.267.107.214.054.429 0 .643-.16 5.413-5.413 10.718-10.933 15.81-16.668.375-.428.107-1.018-.322-1.179Zm-13.29 12.702c-5.735-4.877-11.576-9.861-15.22-16.507A125.282 125.282 0 0 0 49.76 9.645a46.38 46.38 0 0 0 14.845 14.899c-3.645 4.233-7.61 8.253-11.898 11.95Z"/><path fill="#FD9E2A" d="M56.995 22.132c-.107-.91-.965-1.608-1.822-1.608-.376 0-.75.108-1.019.322-.59.268-.964.965-.857 1.661.107 1.072 1.125 1.822 2.197 1.715.965-.107 1.608-1.125 1.5-2.09Z"/><path fill="#fff" d="M40.985 41.297c-7.396-1.34-14.952-2.733-21.437-6.645a127.167 127.167 0 0 0 5.467-15.113 45.818 45.818 0 0 0 20.31 5.467 123.781 123.781 0 0 1-4.34 16.291Z"/><path fill="#2BD1D4" d="M38.734 41.619c-2.626-1.983-4.555-4.663-6.485-7.288-.91-1.233-1.822-2.52-2.84-3.698-.482-.536-1.018-.75-1.768-.59-.858.215-1.769.59-2.573.911-1.93.697-3.805 1.5-5.68 2.305-.054-.054-.108-.054-.161 0-.215.321-.375.696-.59 1.018-.107.214-.268.429-.268.697 0 .482.643.75 1.018.91 1.394.644 2.948.912 4.395 1.34 3.162.912 6.27 1.823 9.378 2.787 1.769.536 3.538 1.126 5.306 1.662.054 0 .107 0 .107-.054 0 0 .054 0 .054.054.053.107.214 0 .107-.054Z"/><path fill="#2BD1D4" d="M43.45 34.545c-.053-.322-.375-.59-.643-.804a19.157 19.157 0 0 0-2.037-1.608c-.375-.268-.696-.482-1.071-.75-.322-.214-.643-.429-1.019-.429-.375 0-.75.161-1.071.268-.483.161-.965.375-1.447.536a267.569 267.569 0 0 0-5.627 2.68c-1.823.91-3.538 1.929-5.092 3.162-.053.053-.053.107 0 .16-.321.215-.696.161-1.018.322-.214.16-.322.375-.375.59-.16.696-.107 1.554.214 2.197.322.643 1.018.803 1.662.964.91.268 1.822.483 2.786.643 1.876.376 3.752.59 5.681.858.965.107 1.876.268 2.84.429.858.16 1.715.428 2.626.375.43 0 .858-.107 1.233-.215.322-.107.643-.16.911-.428.215-.215.322-.59.429-.858.16-.482.321-.965.429-1.447.214-.857.375-1.768.428-2.68.108-1.018 0-2.036.161-3.054-.053-.268.107-.59 0-.911Z"/><path fill="#BBD9FD" d="M46.13 23.666c-.054 0-.108-.054-.215-.054a44.097 44.097 0 0 1-20.74-5.52c-.16-.107-.268-.107-.428-.053-.322-.108-.75 0-.858.428a127.86 127.86 0 0 1-7.181 19.079c-.107.214-.804 1.769-.697 1.876.054.107.215.321.322.428 1.447 1.126 3 1.93 4.555 2.573 2.09.91 4.234 1.661 6.431 2.358a68.616 68.616 0 0 0 11.415 2.412c.16 0 1.5.16 1.608.16.16 0 .375.054.536.054.107 0 .214 0 .321-.054.215-.053.375-.214.483-.482a398.046 398.046 0 0 0 5.305-22.348c.107-.59-.429-.91-.857-.857Zm-5.145 17.631c-7.396-1.34-14.952-2.733-21.437-6.645a127.167 127.167 0 0 0 5.467-15.113 45.82 45.82 0 0 0 20.31 5.467 123.784 123.784 0 0 1-4.34 16.291Z"/><path fill="#FD9E2A" d="M37.448 26.72c-.59-.75-1.608-.91-2.412-.482-.321.16-.59.429-.75.804-.375.536-.322 1.286.107 1.876.643.857 1.93.964 2.787.375.857-.59.91-1.769.268-2.572Z"/><path fill="#fff" d="M33.82 52.386c-7.046 2.578-14.319 5.168-21.915 5.004a125.2 125.2 0 0 0-2.812-15.798 45.853 45.853 0 0 0 20.3-5.458 122.525 122.525 0 0 1 4.427 16.252Z"/><path fill="#2BD1D4" d="M31.993 53.84c-3.244-.413-6.306-1.744-9.252-3.044-1.396-.615-2.831-1.267-4.335-1.763-.732-.23-1.258-.129-1.802.39-.652.64-1.185 1.386-1.797 2.06-1.29 1.58-2.54 3.196-3.75 4.848-.04-.036-.151.008-.147.083.018.379 0 .797.019 1.175.01.227.025.53.112.754.249.443.927.334 1.341.276 1.51-.148 3.002-.676 4.466-1.012a430.022 430.022 0 0 1 9.526-2.282c1.838-.43 3.64-.82 5.443-1.211.075-.004.036-.04.072-.08 0 0 .04.036.076-.003.075-.004.18-.199.028-.191Z"/><path fill="#2BD1D4" d="M32.607 45.35c-.242-.292-.624-.35-.93-.41a18.783 18.783 0 0 0-2.56-.37c-.418-.018-.876-.072-1.294-.09-.343-.02-.76-.039-1.056.127-.332.206-.544.52-.796.798-.36.396-.645.79-1.005 1.187-1.286 1.655-2.457 3.343-3.623 5.107-1.095 1.684-2.11 3.44-2.855 5.297-.036.04.043.112.119.108-.173.35-.584.484-.72.794-.141.234-.09.498-.004.721.224.71.675 1.41 1.263 1.798.628.425 1.262.205 1.936.02a59.125 59.125 0 0 0 2.732-.777c1.791-.617 3.575-1.387 5.323-2.116.894-.347 1.748-.73 2.642-1.076.782-.304 1.719-.539 2.458-.954.367-.245.695-.527.983-.844.216-.238.468-.516.57-.786.06-.307.006-.645-.084-.945a10.733 10.733 0 0 0-.376-1.5 12.776 12.776 0 0 0-.957-2.533c-.423-.89-.997-1.773-1.383-2.702-.126-.26-.18-.599-.383-.855Z"/><path fill="#BBD9FD" d="M29.43 34.577c-.075.003-.11.043-.223.086-6.317 3.53-13.471 5.432-20.71 5.592-.151.007-.339.054-.447.173-.338.055-.627.372-.529.823 1.72 6.556 2.843 13.293 3.4 20.095.01.227.206 1.925.322 1.957.079.072.35.173.5.166 1.872.25 3.537.17 5.271-.066a58.246 58.246 0 0 0 6.733-1.198 67.375 67.375 0 0 0 11.054-3.645c.148-.083 1.413-.6 1.485-.679.148-.083.335-.13.483-.213.112-.043.184-.122.256-.202.144-.159.248-.353.158-.652-1.952-7.418-4.163-14.71-6.602-21.99-.173-.446-.783-.493-1.15-.247Zm4.39 17.809c-7.046 2.578-14.319 5.168-21.915 5.004a125.23 125.23 0 0 0-2.812-15.798 45.853 45.853 0 0 0 20.3-5.458 122.514 122.514 0 0 1 4.427 16.252Z"/><path fill="#FD9E2A" d="M23.47 41.542c-.851-.338-1.821.012-2.314.795-.213.313-.27.696-.252 1.074-.082.65.365 1.272.985 1.546 1.006.407 2.12-.102 2.606-1.037.45-.894-.095-1.968-1.026-2.378Z"/><rect width="22.374" height="22.374" x="25.787" y="51.621" fill="#fff" stroke="#A7F4F5" rx="1.5" transform="rotate(18.68 25.787 51.621)"/><path fill="#fff" fill-rule="evenodd" d="M30.878 61.762a1 1 0 0 1 1.71-.327l3.66 4.308a1 1 0 0 1-.549 1.625l-5.524 1.203a1 1 0 0 1-1.16-1.298l1.863-5.51Z" clip-rule="evenodd"/><path fill="#A7F4F5" fill-rule="evenodd" d="m28.915 52.974.738.249-6.987 20.667-.738-.25 1.247-3.69-2.952-.998.25-.739 2.952.999 1.248-3.69-2.953-.999.25-.738 2.952.998.998-2.952-2.952-.998.25-.739 2.952.999 1.247-3.69-2.952-1 .25-.737 2.952.998 1.248-3.69ZM42.939 57.715l.738.25-1.248 3.69 2.953.998-.25.738-2.952-.998-1.248 3.69 2.952.999-.25.738-2.952-.998-.998 2.952 2.953.998-.25.738-2.952-.998-1.248 3.69 2.952.999-.25.738-2.952-.998-1.247 3.69-.738-.25 6.987-20.666Z" clip-rule="evenodd"/><path fill="#A7F4F5" fill-rule="evenodd" d="M24.833 52.882a2 2 0 0 1 2.536-1.254l18.353 6.205a2 2 0 0 1 1.254 2.535l-6.205 18.354a2 2 0 0 1-2.535 1.254l-18.354-6.205a2 2 0 0 1-1.254-2.535l6.205-18.354Zm-2.185 8.898a1 1 0 0 1 1.267-.627l1.058.357a1 1 0 0 1 .627 1.268l-.358 1.058a1 1 0 0 1-1.267.627l-1.058-.358a1 1 0 0 1-.627-1.267l.358-1.058Zm18.982 5.362a1 1 0 0 0-1.268.627l-.358 1.057a1 1 0 0 0 .628 1.268l1.057.358a1 1 0 0 0 1.268-.627l.357-1.058a1 1 0 0 0-.627-1.268l-1.057-.357Zm-17.485-9.79a1 1 0 0 1 1.268-.628l1.057.358a1 1 0 0 1 .627 1.267l-.607 1.796a1 1 0 0 1-1.267.627l-1.058-.357a1 1 0 0 1-.627-1.268l.607-1.796Zm18.982 5.361a1 1 0 0 0-1.268.627l-.607 1.796a1 1 0 0 0 .627 1.268l1.058.357a1 1 0 0 0 1.268-.627l.607-1.796a1 1 0 0 0-.627-1.267l-1.058-.358ZM19.903 69.9a1 1 0 0 1 1.267-.627l1.058.357a1 1 0 0 1 .627 1.268l-.607 1.796a1 1 0 0 1-1.268.627l-1.057-.358a1 1 0 0 1-.627-1.267l.607-1.796Zm18.982 5.362a1 1 0 0 0-1.268.627l-.607 1.796a1 1 0 0 0 .627 1.267l1.058.358a1 1 0 0 0 1.267-.627l.607-1.796a1 1 0 0 0-.627-1.268l-1.057-.357ZM25.642 52.923a1 1 0 0 1 1.268-.627l1.058.357a1 1 0 0 1 .627 1.268l-.608 1.796a1 1 0 0 1-1.267.627l-1.058-.358a1 1 0 0 1-.627-1.267l.607-1.796Zm18.982 5.361a1 1 0 0 0-1.268.628l-.607 1.795a1 1 0 0 0 .627 1.268l1.058.358a1 1 0 0 0 1.268-.627l.607-1.796a1 1 0 0 0-.627-1.268l-1.058-.358ZM21.4 65.47a1 1 0 0 1 1.268-.627l1.057.358a1 1 0 0 1 .627 1.268l-.607 1.795a1 1 0 0 1-1.267.627l-1.058-.357a1 1 0 0 1-.627-1.268l.607-1.796Zm18.982 5.362a1 1 0 0 0-1.268.627l-.607 1.796a1 1 0 0 0 .627 1.268l1.058.357a1 1 0 0 0 1.268-.627l.607-1.796a1 1 0 0 0-.627-1.267l-1.058-.358Z" clip-rule="evenodd"/><path fill="#2BD1D4" fill-rule="evenodd" d="M30.878 61.762a1 1 0 0 1 1.71-.327l3.66 4.308a1 1 0 0 1-.549 1.625l-5.524 1.203a1 1 0 0 1-1.16-1.298l1.863-5.51Z" clip-rule="evenodd"/><path fill="#BBD9FD" fill-rule="evenodd" d="M38.15 93.955c2.147.763 7.653 1.424 12.09 1.688 12.119.722 29.052.33 36.23-.998 7.231-1.34 7.553-3.364-10.83-4.366-15.654-.854-33.926.363-37.833 2.175-1.049.487-.991 1.028.343 1.5Z" clip-rule="evenodd"/><path fill="#297EF1" fill-rule="evenodd" d="M68.641 13.698 42.583 19.09c-3.788.788-6.22 4.474-5.436 8.242l10.852 51.938c.784 3.772 4.493 6.186 8.278 5.413l26.062-5.413a6.962 6.962 0 0 0 5.432-8.242l-10.848-51.93c-.788-3.769-4.493-6.19-8.282-5.401Z" clip-rule="evenodd"/><path fill="#BBD9FD" fill-rule="evenodd" d="m80.66 62.672-29.485 6.114-8.385-40.121 29.493-6.107 8.377 40.114Zm-10.502 12.15a2.636 2.636 0 0 1-3.638.748 2.601 2.601 0 0 1-.748-3.618 2.72 2.72 0 0 1 3.634-.757 2.607 2.607 0 0 1 .76 3.618l-.008.008Z" clip-rule="evenodd"/><path fill="#fff" d="M97.828 0c-14.083 0-25.5 11.417-25.5 25.5l.003.345a25.496 25.496 0 0 0 13.273 22.04l.18.096.071-.122c-.38.64-.617 1.306-.617 1.967 0 1.424.679 2.62 2.05 3.099l.23.077c2.601.819 4.952.042 7.797-1.95l.217-.155.561.045a25.8 25.8 0 0 0 1.735.058c14.084 0 25.5-11.417 25.5-25.5S111.912 0 97.828 0Z"/><path fill="#BBD9FD" d="M97.828 0c-14.083 0-25.5 11.417-25.5 25.5l.003.345a25.496 25.496 0 0 0 13.273 22.04l.18.096.071-.122c-.38.64-.617 1.306-.617 1.967 0 1.424.679 2.62 2.05 3.099l.23.077c2.601.819 4.952.042 7.797-1.95l.217-.155.561.045a25.8 25.8 0 0 0 1.735.058c14.084 0 25.5-11.417 25.5-25.5S111.912 0 97.828 0Zm0 3c12.427 0 22.5 10.074 22.5 22.5S110.255 48 97.828 48c-.856 0-1.705-.048-2.547-.142l-.579-.066-.893.65c-2.24 1.608-3.823 2.172-5.372 1.703l-.16-.052c-.037-.013-.04-.018-.04-.267 0-.029.068-.218.181-.409l.061-.097a5.366 5.366 0 0 0 .723-1.677l.294-1.2-1.12-.518A22.501 22.501 0 0 1 75.328 25.5c0-12.426 10.074-22.5 22.5-22.5Z"/><path fill="#35CE68" fill-rule="evenodd" d="M99.5 25.121V36.5a1.5 1.5 0 0 1-3 0V25.121l-1.94 1.94a1.5 1.5 0 0 1-2.12-2.122l4.5-4.5a1.5 1.5 0 0 1 2.12 0l4.501 4.5a1.501 1.501 0 0 1-2.122 2.121L99.5 25.122Zm-12-6.621a1.5 1.5 0 0 1 0-3h21a1.5 1.5 0 0 1 0 3h-21Z" clip-rule="evenodd"/></svg>