<svg xmlns="http://www.w3.org/2000/svg" width="24" height="24" viewBox="0 0 24 24">
  <path fill="#ffffff" d="M35.5708019,45.0000059 L45.6757246,54.2628518 C46.0828436,54.6360442 46.1103465,55.2686115 45.7371541,55.6757305 C45.3639617,56.0828495 44.7313944,56.1103524 44.3242754,55.73716 L32.3270117,44.7396683 C32.1261015,44.5567619 32,44.2931102 32,44.0000059 C32,43.7069016 32.1261015,43.4432499 32.3270117,43.2603435 L44.3242754,32.2628518 C44.7313944,31.8896593 45.3639617,31.9171623 45.7371541,32.3242813 C46.1103465,32.7314003 46.0828436,33.3639676 45.6757246,33.73716 L35.5708019,43.0000059 L55,43.0000059 C55.5522847,43.0000059 56,43.4477211 56,44.0000059 C56,44.5522906 55.5522847,45.0000059 55,45.0000059 L35.5708019,45.0000059 Z" transform="translate(-32 -32)"/>
</svg>
