<svg width="32" height="32" viewBox="0 0 32 32" fill="none" xmlns="http://www.w3.org/2000/svg">
<g clip-path="url(#clip0_3094_3715)">
<g clip-path="url(#clip1_3094_3715)">
<rect width="32" height="32" rx="10" fill="white"/>
<rect width="32" height="32" fill="white"/>
<rect width="32" height="32" fill="url(#paint0_linear_3094_3715)"/>
<g filter="url(#filter0_d_3094_3715)">
<path fill-rule="evenodd" clip-rule="evenodd" d="M15.9919 18.1948C15.9919 18.1081 15.9897 18.0213 15.9855 17.9346C15.9812 17.8479 15.9749 17.7614 15.9663 17.675C15.9578 17.5886 15.9472 17.5025 15.9345 17.4167C15.9218 17.3308 15.9069 17.2453 15.89 17.1602C15.8731 17.075 15.854 16.9904 15.833 16.9062C15.8119 16.822 15.7887 16.7384 15.7635 16.6554C15.7383 16.5723 15.7111 16.4899 15.6819 16.4081C15.6526 16.3265 15.6214 16.2455 15.5881 16.1653C15.555 16.0851 15.5198 16.0058 15.4827 15.9273C15.4456 15.8488 15.4066 15.7714 15.3657 15.6948C15.3248 15.6182 15.2819 15.5428 15.2373 15.4683C15.1927 15.3939 15.1463 15.3206 15.0981 15.2484C15.0498 15.1762 14.9999 15.1053 14.9482 15.0356C14.8965 14.9659 14.8431 14.8975 14.788 14.8304C14.733 14.7632 14.6763 14.6975 14.618 14.6333C14.5597 14.569 14.4999 14.5061 14.4385 14.4447C14.3771 14.3834 14.3143 14.3235 14.25 14.2652C14.1857 14.207 14.12 14.1502 14.0529 14.0952C13.9858 14.0401 13.9174 13.9867 13.8477 13.935C13.778 13.8833 13.707 13.8334 13.6348 13.7852C13.5626 13.7369 13.4894 13.6905 13.4149 13.6459C13.3404 13.6013 13.265 13.5585 13.1884 13.5176C13.1119 13.4766 13.0344 13.4376 12.9559 13.4006C12.8775 13.3635 12.7981 13.3283 12.718 13.2951C12.6378 13.2619 12.5568 13.2306 12.4751 13.2014C12.3933 13.1721 12.311 13.1449 12.2279 13.1198C12.1449 13.0945 12.0612 13.0714 11.977 13.0503C11.8928 13.0292 11.8082 13.0102 11.723 12.9932C11.6379 12.9763 11.5524 12.9615 11.4665 12.9487C11.3807 12.9361 11.2946 12.9254 11.2082 12.9169C11.1218 12.9084 11.0353 12.902 10.9486 12.8978C10.8619 12.8935 10.7752 12.8914 10.6884 12.8914C10.6016 12.8914 10.5148 12.8935 10.4282 12.8978C10.3415 12.902 10.2549 12.9084 10.1685 12.9169C10.0822 12.9254 9.99605 12.9361 9.9102 12.9487C9.82434 12.9615 9.73885 12.9763 9.65372 12.9932C9.56859 13.0102 9.48393 13.0292 9.39974 13.0503C9.31554 13.0714 9.23191 13.0945 9.14886 13.1198C9.0658 13.1449 8.98341 13.1721 8.90169 13.2014C8.81996 13.2306 8.739 13.2619 8.65882 13.2951C8.57863 13.3283 8.49931 13.3635 8.42084 13.4006C8.34238 13.4376 8.26488 13.4766 8.18833 13.5176C8.11179 13.5585 8.03629 13.6013 7.96184 13.6459C7.8874 13.6905 7.81409 13.7369 7.74192 13.7852C7.66975 13.8334 7.59881 13.8833 7.52909 13.935C7.45937 13.9867 7.39097 14.0401 7.32388 14.0952C7.25679 14.1502 7.19108 14.207 7.12676 14.2652C7.06246 14.3235 6.99962 14.3834 6.93825 14.4447C6.87687 14.5061 6.81704 14.569 6.75875 14.6333C6.70046 14.6975 6.64379 14.7632 6.58873 14.8304C6.53367 14.8975 6.48028 14.9659 6.42858 15.0356C6.37687 15.1053 6.32691 15.1762 6.27869 15.2484C6.23047 15.3206 6.18404 15.3939 6.13942 15.4683C6.0948 15.5428 6.05203 15.6182 6.01111 15.6948C5.9702 15.7714 5.93119 15.8488 5.89408 15.9273C5.85697 16.0058 5.82181 16.0851 5.78859 16.1653C5.75537 16.2455 5.72415 16.3265 5.69491 16.4081C5.66567 16.4899 5.63845 16.5723 5.61325 16.6554C5.58806 16.7384 5.56492 16.822 5.54382 16.9062C5.52273 16.9904 5.50372 17.075 5.48679 17.1602C5.46986 17.2453 5.45503 17.3308 5.44229 17.4167C5.42955 17.5025 5.41894 17.5886 5.41043 17.675C5.40192 17.7614 5.39553 17.8479 5.39128 17.9346C5.38702 18.0213 5.38489 18.1081 5.38489 18.1948C5.38489 18.2816 5.38702 18.3684 5.39128 18.4551C5.39553 18.5418 5.40192 18.6283 5.41043 18.7147C5.41894 18.801 5.42955 18.8872 5.44229 18.9731C5.45503 19.0589 5.46986 19.1444 5.48679 19.2295C5.50372 19.3146 5.52273 19.3993 5.54382 19.4835C5.56492 19.5677 5.58806 19.6513 5.61325 19.7344C5.63845 19.8174 5.66567 19.8998 5.69491 19.9815C5.72415 20.0633 5.75537 20.1442 5.78859 20.2244C5.82181 20.3046 5.85697 20.3839 5.89408 20.4624C5.93119 20.5408 5.9702 20.6184 6.01111 20.6949C6.05203 20.7714 6.0948 20.847 6.13942 20.9213C6.18404 20.9958 6.23047 21.0692 6.27869 21.1413C6.32691 21.2135 6.37687 21.2844 6.42858 21.3541C6.48028 21.4239 6.53367 21.4923 6.58873 21.5594C6.64379 21.6264 6.70046 21.6921 6.75875 21.7565C6.81704 21.8208 6.87687 21.8836 6.93825 21.945C6.99962 22.0064 7.06246 22.0662 7.12676 22.1245C7.19108 22.1828 7.25679 22.2394 7.32388 22.2945C7.39097 22.3495 7.45937 22.4029 7.52909 22.4546C7.59881 22.5063 7.66975 22.5563 7.74192 22.6046C7.81409 22.6528 7.8874 22.6992 7.96184 22.7438C8.03629 22.7884 8.11179 22.8312 8.18833 22.8721C8.26488 22.913 8.34238 22.952 8.42084 22.9892C8.49931 23.0263 8.57863 23.0614 8.65882 23.0947C8.739 23.1279 8.81996 23.1591 8.90169 23.1883C8.98341 23.2175 9.0658 23.2447 9.14886 23.27C9.23191 23.2951 9.31554 23.3183 9.39974 23.3394C9.48393 23.3605 9.56859 23.3795 9.65372 23.3964C9.73885 23.4133 9.82434 23.4282 9.9102 23.4409C9.99605 23.4537 10.0822 23.4643 10.1685 23.4728C10.2549 23.4813 10.3415 23.4877 10.4282 23.492C10.5148 23.4962 10.6016 23.4984 10.6884 23.4984H19.174V18.1948H15.9919Z" fill="white"/>
<path d="M19.173 23.4982C23.2737 23.4982 26.598 20.174 26.598 16.0733C26.598 11.9726 23.2737 8.64844 19.173 8.64844C15.0724 8.64844 11.7482 11.9726 11.7482 16.0733C11.7482 20.174 15.0724 23.4982 19.173 23.4982Z" fill="white"/>
</g>
</g>
</g>
<defs>
<filter id="filter0_d_3094_3715" x="3.75311" y="7.34301" width="24.4767" height="18.1135" filterUnits="userSpaceOnUse" color-interpolation-filters="sRGB">
<feFlood flood-opacity="0" result="BackgroundImageFix"/>
<feColorMatrix in="SourceAlpha" type="matrix" values="0 0 0 0 0 0 0 0 0 0 0 0 0 0 0 0 0 0 127 0" result="hardAlpha"/>
<feOffset dy="0.326356"/>
<feGaussianBlur stdDeviation="0.815891"/>
<feComposite in2="hardAlpha" operator="out"/>
<feColorMatrix type="matrix" values="0 0 0 0 0 0 0 0 0 0 0 0 0 0 0 0 0 0 0.1 0"/>
<feBlend mode="normal" in2="BackgroundImageFix" result="effect1_dropShadow_3094_3715"/>
<feBlend mode="normal" in="SourceGraphic" in2="effect1_dropShadow_3094_3715" result="shape"/>
</filter>
<linearGradient id="paint0_linear_3094_3715" x1="3.50833" y1="28.9641" x2="38.4285" y2="-6.03759" gradientUnits="userSpaceOnUse">
<stop offset="0.248154" stop-color="#FF4759"/>
<stop offset="1" stop-color="#FFD600"/>
</linearGradient>
<clipPath id="clip0_3094_3715">
<rect width="32" height="32" fill="white"/>
</clipPath>
<clipPath id="clip1_3094_3715">
<rect width="32" height="32" rx="10" fill="white"/>
</clipPath>
</defs>
</svg>
