<svg xmlns="http://www.w3.org/2000/svg" width="16" height="16" viewBox="0 0 16 16">
  <path fill="#F52D2D" fill-rule="evenodd" d="M134.585786,136 L129.292893,130.707107 C128.902369,130.316582 128.902369,129.683418 129.292893,129.292893 C129.683418,128.902369 130.316582,128.902369 130.707107,129.292893 L136,134.585786 L141.292893,129.292893 C141.683418,128.902369 142.316582,128.902369 142.707107,129.292893 C143.097631,129.683418 143.097631,130.316582 142.707107,130.707107 L137.414214,136 L142.707107,141.292893 C143.097631,141.683418 143.097631,142.316582 142.707107,142.707107 C142.316582,143.097631 141.683418,143.097631 141.292893,142.707107 L136,137.414214 L130.707107,142.707107 C130.316582,143.097631 129.683418,143.097631 129.292893,142.707107 C128.902369,142.316582 128.902369,141.683418 129.292893,141.292893 L134.585786,136 Z" transform="translate(-128 -128)"/>
</svg>
