<svg xmlns="http://www.w3.org/2000/svg" width="16" height="16" viewBox="0 0 16 16">
  <g fill="none" fill-rule="evenodd" transform="translate(-288 -128)">
    <path fill="#F52D2D" d="M295.021699,129.735659 C295.564898,128.777255 296.450192,128.78566 296.988422,129.735659 L303.52045,141.26497 C304.063442,142.223374 303.613566,143.000315 302.503518,143.000315 L289.50373,143.000315 C288.399102,143.000315 287.948739,142.214969 288.487174,141.26497 L295.021699,129.735659 Z M295.003624,141.000315 C295.003624,140.44803 295.447489,140.000315 296.003624,140.000315 C296.555909,140.000315 297.003624,140.444179 297.003624,141.000315 C297.003624,141.552599 296.559759,142.000315 296.003624,142.000315 C295.45134,142.000315 295.003624,141.55645 295.003624,141.000315 Z M295.003624,133.003244 C295.003624,132.449341 295.447489,132.000315 296.003624,132.000315 C296.555909,132.000315 297.003624,132.438196 297.003624,133.003244 L297.003624,137.997385 C297.003624,138.551288 296.559759,139.000315 296.003624,139.000315 C295.45134,139.000315 295.003624,138.562433 295.003624,137.997385 L295.003624,133.003244 Z"/>
  </g>
</svg>
