<svg id="Calque_1" data-name="Calque 1" xmlns="http://www.w3.org/2000/svg" viewBox="0 0 70.58 66.63"><defs><style>.cls-1{fill:#cbf7d8}.cls-2{fill:#35ce68}.cls-3{fill:#9fe6a2}.cls-4{fill:#288afc}</style></defs><path class="cls-1" d="M41.2 9.05a15 15 0 0 0-2.69-4.68c-2-2.2-4.82-1.85-7.64-.7a30.66 30.66 0 0 0-3.63 1.75C21.9 8.23 2.75 18 2.17 18.42c-2.8 1.87-2.5 4.23-1.28 6.74.11.42 16.46 35.33 17.45 37.14 1.36 2.47 3.19 4.56 5.75 4.31s31.44-14.89 32.76-15.69C58.46 50 59 48.81 59 47.59a4.3 4.3 0 0 0-.43-2.27C57.71 43 43.69 12.93 41.2 9.05z"/><path class="cls-2" d="M51.46 8.47a14.84 14.84 0 0 0-1.83-5.07C48 .87 45.21.74 42.22 1.38a32.44 32.44 0 0 0-3.88 1.09C32.6 4.31 12 10.64 11.4 10.92c-3.09 1.36-3.19 3.73-2.4 6.42C9 17.77 19 55 19.71 57c.9 2.66 2.34 5 4.91 5.24s33.55-9.21 35-9.76c1.75-.68 2.52-1.71 2.68-2.92a4.43 4.43 0 0 0 0-2.31c-.47-2.47-9.06-34.53-10.84-38.78z"/><path class="cls-1" d="M61.21 8.6a15 15 0 0 0-.93-5.31C59.11.52 56.39-.1 53.34 0a30.7 30.7 0 0 0-4 .41c-6 .81-27.32 3.47-28 3.64-3.27.8-3.79 3.12-3.51 5.89 0 .45 3.38 38.83 3.7 40.88.43 2.78 1.43 5.37 3.93 6s34.63-3.22 36.14-3.51c1.84-.36 2.78-1.24 3.14-2.41a4.32 4.32 0 0 0 .37-2.28c0-2.46-2.88-35.52-3.9-40.02z"/><path class="cls-2" d="M32.25 24.76l.41 5-5 .41-.41-5 5-.42m.46-1.54h-.08l-6 .49a1 1 0 0 0-.92 1.08l.5 6a1 1 0 0 0 1 .92h.08l6-.49a1 1 0 0 0 .92-1.08l-.5-6a1 1 0 0 0-1-.92z"/><path class="cls-3" d="M39.93 29.64a3 3 0 0 1-.25-6l16.2-1.34a3 3 0 1 1 .49 6l-16.19 1.33zM38.94 17.68a3 3 0 0 1-.24-6l16.19-1.34a3 3 0 1 1 .49 6l-16.19 1.33z"/><path class="cls-2" d="M31.51 15.79l.16 2-5 .41-.41-5 2-.17-.12-1.49-2.49.2a1 1 0 0 0-.92 1.08l.5 6a1 1 0 0 0 1 .92h.09l6-.5a1 1 0 0 0 .91-1.08L33 15.67z"/><path class="cls-2" d="M28.89 16.92l-1.81-1.54.97-1.14.67.57 3.03-3.58 1.15.97-4.01 4.72z"/><path class="cls-4" d="M62.58 64.44c1.78 4.51 1.34-.48 1.77-3.67 1.72.7 8 3.26 4.38.41s-5.29-8.49-6.41-10.42c-.32-.53-.36-1.2-1-1.27a4.57 4.57 0 0 0-2.8.61c-.86.47-1.74 1.17-2.87.75a.55.55 0 0 0-.8.31 1.24 1.24 0 0 0-.1 1.73c2.4 3.42 6.04 7.04 7.83 11.55z"/><path class="cls-4" d="M59.53 52.89a1.23 1.23 0 0 0-.09-1.73.56.56 0 0 0-.81-.31c-1.12.42-2-.28-2.87-.75a4.52 4.52 0 0 0-2.76-.61c-.62.07-.67.74-1 1.27-1.12 1.93-2.76 7.57-6.42 10.42s2.67.29 4.38-.41c.44 3.19 0 8.18 1.78 3.67s5.41-8.13 7.79-11.55z"/><path d="M69.62 44.36a3 3 0 0 0 .42-4 2.55 2.55 0 0 0-1.42-1.13c-1.86-.4-2.4-1.8-3-3.62s-2.8-1.16-3.94-.62c-2.69 1.28-2.11-3-4.7-2.35a5.92 5.92 0 0 0-2.14 1.66c-.26.25-2-1.3-2.48-1.55-1.46-.78-2.27 2-2.5 3.07-.32 1.49-3.18.38-4.18 2.21-.87 1.59 0 3.69.52 5.56-1.31 1.9-3.15 2.27-2.67 5.48a4.22 4.22 0 0 0 1.12 2.7c.79 1.11 3-.21 3 2.26 0 2.07.87 3.28 2.45 3.53 1.18.18 3.5-2.35 4.46-1 .6.86 1 2 2.07 2.06 2.44.21 3.17-2.48 5.74-1.49 1.65.63 2.47-.17 3.23-2.06.65-1.59.29-2.36 2-2.9a2.88 2.88 0 0 0 1.76-1.74c1.41-2.66-2.36-3.98.26-6.07z" fill="#bbd9fd"/><path class="cls-4" d="M49.34 48.9a9.15 9.15 0 0 0 4 4.78c3.93 2 9.27.72 11.42-3.17s2.07-9.77-3.88-12.51c-5.07-2.34-10.75 1.32-11.81 6.58a8.38 8.38 0 0 0 .27 4.32z"/><path d="M64.07 46.84a3.21 3.21 0 0 0-.87-1.9 3.49 3.49 0 0 0-2.13-1.13 3.41 3.41 0 0 0-2.51-2.89 2.84 2.84 0 0 0-.81-.12 2.84 2.84 0 0 0-.81.12 3.4 3.4 0 0 0-2.51 2.89 3.49 3.49 0 0 0-2.13 1.13 3.21 3.21 0 0 0-.87 1.9 2.56 2.56 0 0 0 0 .73 3.75 3.75 0 0 0 .41 1.19 3.56 3.56 0 0 0 2.72 1.59 16.81 16.81 0 0 0 3.09.18h.12a16.81 16.81 0 0 0 3.09-.18 3.56 3.56 0 0 0 2.72-1.59 3.75 3.75 0 0 0 .42-1.19 2.56 2.56 0 0 0 .07-.73z" fill="#fff"/><path class="cls-4" d="M57.75 50.83h-.06a17.17 17.17 0 0 1-3.14-.19 3.51 3.51 0 0 1-3.37-3 3.15 3.15 0 0 1 0-.81 3.47 3.47 0 0 1 1-2.07 3.85 3.85 0 0 1 2.08-1.19 3.69 3.69 0 0 1 2.69-2.92 5 5 0 0 1 .86-.13h.06a4.71 4.71 0 0 1 .85.13 3.69 3.69 0 0 1 2.7 2.92 3.85 3.85 0 0 1 2.08 1.19 3.47 3.47 0 0 1 1 2.07 3.15 3.15 0 0 1 0 .81 3.51 3.51 0 0 1-3.37 3 17.17 17.17 0 0 1-3.14.19h-.06zm0-9.74a2.93 2.93 0 0 0-.73.11 3.1 3.1 0 0 0-2.3 2.65.3.3 0 0 1-.27.25 3.2 3.2 0 0 0-1.93 1 2.89 2.89 0 0 0-.8 1.72 2.1 2.1 0 0 0 0 .66 2.93 2.93 0 0 0 2.89 2.53 15.15 15.15 0 0 0 3 .18h.12a15.3 15.3 0 0 0 3-.18 2.93 2.93 0 0 0 2.89-2.53 2.1 2.1 0 0 0 0-.66 2.89 2.89 0 0 0-.8-1.72 3.2 3.2 0 0 0-1.93-1 .3.3 0 0 1-.27-.25 3.1 3.1 0 0 0-2.3-2.65 2.93 2.93 0 0 0-.57-.11zm0-.3z"/><path class="cls-4" d="M60 47c-.13-.09-.29-.29-.28-.38a.25.25 0 0 0-.12-.24.3.3 0 0 0-.29 0 .29.29 0 0 0-.15.23.76.76 0 0 0 .1.37 3.15 3.15 0 0 1-3-.06.7.7 0 0 0 .07-.39.3.3 0 0 0-.32-.25.24.24 0 0 0-.22.28c0 .17-.12.28-.3.42a.29.29 0 0 0-.11.26.27.27 0 0 0 .16.22.15.15 0 0 0 .09 0 .3.3 0 0 0 .16-.05l.15-.12a3.6 3.6 0 0 0 1.86.5 3.64 3.64 0 0 0 1.75-.44l.12.11a.3.3 0 0 0 .16 0 .24.24 0 0 0 .2-.11A.29.29 0 0 0 60 47z"/></svg>