<?xml version="1.0" encoding="UTF-8"?>
<svg width="32px" height="32px" viewBox="0 0 32 32" version="1.1" xmlns="http://www.w3.org/2000/svg" xmlns:xlink="http://www.w3.org/1999/xlink">
    <!-- Generator: Sketch 47.1 (45422) - http://www.bohemiancoding.com/sketch -->
    <title>icons/32/upload-OK</title>
    <desc>Created with Sketch.</desc>
    <defs>
        <path d="M26,18 C29.309,18 32,20.691 32,24 C32,27.309 29.309,30 26,30 C22.69,30 20,27.309 20,24 C20,20.691 22.69,18 26,18 Z M23.1421339,24.1215689 C22.880855,23.8603403 22.4572381,23.8603403 22.1959592,24.1215689 C21.9346803,24.3827976 21.9346803,24.8063329 22.1959592,25.0675615 L24.2030989,27.0743149 C24.4643778,27.3355435 24.8879946,27.3355435 25.1492736,27.0743149 L29.8040408,22.6419141 C30.0653197,22.3806854 30.0653197,21.9571501 29.8040408,21.6959215 C29.5427619,21.4346928 29.119145,21.4346928 28.8578661,21.6959215 L24.6761862,25.655326 L23.1421339,24.1215689 Z" id="path-1"/>
    </defs>
    <g id="ðŸ¦-icons" stroke="none" stroke-width="1" fill="none" fill-rule="evenodd">
        <g id="icons/32/upload-OK">
            <g id="icon-foto-OK">
                <g id="Fill-547-+-Fill-548-+-Fill-549" transform="translate(0.000000, 4.000000)" fill="#95999D">
                    <path d="M4.29375672,6.44063508 C3.70229173,6.44063508 3.22031754,6.92260927 3.22031754,7.51407425 C3.22031754,8.10661268 3.70229173,8.58751343 4.29375672,8.58751343 C4.8852217,8.58751343 5.3671959,8.10661268 5.3671959,7.51407425 C5.3671959,6.92260927 4.8852217,6.44063508 4.29375672,6.44063508" id="Fill-547"/>
                    <path d="M15.3649998,13.9404978 C13.4871099,13.9404978 11.9594999,12.4128879 11.9594999,10.5349979 C11.9594999,8.65710803 13.4871099,7.1294981 15.3649998,7.1294981 C17.2428897,7.1294981 18.7704996,8.65710803 18.7704996,10.5349979 C18.7704996,12.4128879 17.2428897,13.9404978 15.3649998,13.9404978 M15.3649998,5.66999817 C12.6824389,5.66999817 10.5,7.85243707 10.5,10.5349979 C10.5,13.2175588 12.6824389,15.3999977 15.3649998,15.3999977 C18.0475606,15.3999977 20.2299995,13.2175588 20.2299995,10.5349979 C20.2299995,7.85243707 18.0475606,5.66999817 15.3649998,5.66999817" id="Fill-548"/>
                    <path d="M15.3600001,16.4699965 C12.0840901,16.4699965 9.42000008,13.8059064 9.42000008,10.5299964 C9.42000008,7.25408636 12.0840901,4.58999634 15.3600001,4.58999634 C18.6349202,4.58999634 21.3000002,7.25408636 21.3000002,10.5299964 C21.3000002,13.8059064 18.6349202,16.4699965 15.3600001,16.4699965 M4.29375672,9.66095261 C3.1097533,9.66095261 2.14687836,8.69915111 2.14687836,7.51407425 C2.14687836,6.33114428 3.1097533,5.3671959 4.29375672,5.3671959 C5.47776013,5.3671959 6.44063508,6.33114428 6.44063508,7.51407425 C6.44063508,8.69915111 5.47776013,9.66095261 4.29375672,9.66095261 M23.0188298,3.22031754 L21.2637567,3.22031754 L20.3384521,1.36970839 L20.3051755,1.31281612 C19.7416199,0.466946043 19.0106079,0 18.248466,0 L12.8812702,0 C12.1191283,0 11.3891897,0.466946043 10.8417357,1.28812702 L9.39259282,3.22031754 L6.44063508,3.22031754 L6.44063508,2.68359795 C6.44063508,1.82592004 5.66024479,1.07343918 4.77036371,1.07343918 L3.75703713,1.07343918 C2.91546081,1.07343918 2.17693466,1.82592004 2.17693466,2.6685698 L2.16083307,3.25037383 C0.395025618,3.44251945 0,4.61042127 0,5.60657283 L0,16.757459 C0,18.3880131 0.999371876,19.3219052 2.74371054,19.3219052 L23.0188298,19.3219052 C24.7631684,19.3219052 25.7625403,18.3880131 25.7625403,16.757459 L25.7625403,5.60657283 C25.7625403,4.51810551 25.2870067,3.22031754 23.0188298,3.22031754" id="Fill-549"/>
                </g>
                <mask id="mask-2" fill="white">
                    <use xlink:href="#path-1"/>
                </mask>
                <use id="Mask" fill="#197BFF" xlink:href="#path-1"/>
                <g id="mixin/fill/highlight" mask="url(#mask-2)" fill="#35CE68">
                    <g transform="translate(20.000000, 18.000000)" id="background">
                        <rect x="0" y="0" width="12" height="12"/>
                    </g>
                </g>
            </g>
        </g>
    </g>
</svg>