<?xml version="1.0" encoding="UTF-8"?>
<svg width="32px" height="32px" viewBox="0 0 32 32" version="1.1" xmlns="http://www.w3.org/2000/svg" xmlns:xlink="http://www.w3.org/1999/xlink">
    <!-- Generator: Sketch 47.1 (45422) - http://www.bohemiancoding.com/sketch -->
    <title>icons/32/upload-error</title>
    <desc>Created with Sketch.</desc>
    <defs>
        <path d="M26.9804108,24 L28.7969503,22.1834606 C29.0676832,21.9127276 29.0676832,21.4737827 28.7969503,21.2030497 C28.5262173,20.9323168 28.0872724,20.9323168 27.8165394,21.2030497 L26,23.0195892 L24.1834606,21.2030497 C23.9127276,20.9323168 23.4737827,20.9323168 23.2030497,21.2030497 C22.9323168,21.4737827 22.9323168,21.9127276 23.2030497,22.1834606 L25.0195892,24 L23.2030497,25.8165394 C22.9323168,26.0872724 22.9323168,26.5262173 23.2030497,26.7969503 C23.4737827,27.0676832 23.9127276,27.0676832 24.1834606,26.7969503 L26,24.9804108 L27.8165394,26.7969503 C28.0872724,27.0676832 28.5262173,27.0676832 28.7969503,26.7969503 C29.0676832,26.5262173 29.0676832,26.0872724 28.7969503,25.8165394 L26.9804108,24 Z M26,18 C29.309,18 32,20.691 32,24 C32,27.309 29.309,30 26,30 C22.69,30 20,27.309 20,24 C20,20.691 22.69,18 26,18 Z" id="path-1"/>
    </defs>
    <g id="ðŸ¦-icons" stroke="none" stroke-width="1" fill="none" fill-rule="evenodd">
        <g id="icons/32/upload-error">
            <g id="icon-foto-error">
                <path d="M4.29375672,10.4406351 C3.70229173,10.4406351 3.22031754,10.9226093 3.22031754,11.5140743 C3.22031754,12.1066127 3.70229173,12.5875134 4.29375672,12.5875134 C4.8852217,12.5875134 5.3671959,12.1066127 5.3671959,11.5140743 C5.3671959,10.9226093 4.8852217,10.4406351 4.29375672,10.4406351" id="Fill-547" fill="#95999D"/>
                <path d="M15.3649998,17.9404978 C13.4871099,17.9404978 11.9594999,16.4128879 11.9594999,14.5349979 C11.9594999,12.657108 13.4871099,11.1294981 15.3649998,11.1294981 C17.2428897,11.1294981 18.7704996,12.657108 18.7704996,14.5349979 C18.7704996,16.4128879 17.2428897,17.9404978 15.3649998,17.9404978 M15.3649998,9.66999817 C12.6824389,9.66999817 10.5,11.8524371 10.5,14.5349979 C10.5,17.2175588 12.6824389,19.3999977 15.3649998,19.3999977 C18.0475606,19.3999977 20.2299995,17.2175588 20.2299995,14.5349979 C20.2299995,11.8524371 18.0475606,9.66999817 15.3649998,9.66999817" id="Fill-548" fill="#95999D"/>
                <path d="M15.3600001,20.4699965 C12.0840901,20.4699965 9.42000008,17.8059064 9.42000008,14.5299964 C9.42000008,11.2540864 12.0840901,8.58999634 15.3600001,8.58999634 C18.6349202,8.58999634 21.3000002,11.2540864 21.3000002,14.5299964 C21.3000002,17.8059064 18.6349202,20.4699965 15.3600001,20.4699965 M4.29375672,13.6609526 C3.1097533,13.6609526 2.14687836,12.6991511 2.14687836,11.5140743 C2.14687836,10.3311443 3.1097533,9.3671959 4.29375672,9.3671959 C5.47776013,9.3671959 6.44063508,10.3311443 6.44063508,11.5140743 C6.44063508,12.6991511 5.47776013,13.6609526 4.29375672,13.6609526 M21.2637567,7.22031754 L20.3384521,5.36970839 L20.3051755,5.31281612 C19.7416199,4.46694604 19.0106079,4 18.248466,4 L12.8812702,4 C12.1191283,4 11.3891897,4.46694604 10.8417357,5.28812702 L9.39259282,7.22031754 L6.44063508,7.22031754 L6.44063508,6.68359795 C6.44063508,5.82592004 5.66024479,5.07343918 4.77036371,5.07343918 L3.75703713,5.07343918 C2.91546081,5.07343918 2.17693466,5.82592004 2.17693466,6.6685698 L2.16083307,7.25037383 C0.395025618,7.44251945 0,8.61042127 0,9.60657283 L0,20.757459 C0,22.3880131 0.999371876,23.3219052 2.74371054,23.3219052 L21.0188298,23.3219052 C21.0188298,22.5 22.5,20 25.7625403,19.757459 L25.7625403,9.60657283 C25.7625403,8.51810551 25.2870067,7.22031754 23.0188298,7.22031754 L21.2637567,7.22031754 Z" id="Fill-549" fill="#95999D"/>
                <mask id="mask-2" fill="white">
                    <use xlink:href="#path-1"/>
                </mask>
                <use id="Mask" fill="#197BFF" xlink:href="#path-1"/>
                <g id="mixin/fill/danger" mask="url(#mask-2)" fill="#F52D2D">
                    <g transform="translate(20.000000, 18.000000)" id="background">
                        <rect x="0" y="0" width="12" height="12"/>
                    </g>
                </g>
            </g>
        </g>
    </g>
</svg>