<svg width="235" height="96" fill="none" xmlns="http://www.w3.org/2000/svg"><path fill-rule="evenodd" clip-rule="evenodd" d="M200.928 24.954c-5.059-11.554-17.316-19.097-30.915-22.13-8.974-2-18.555-2.516-27.779-2.746-9.844-.246-19.698.107-29.502.825-9.525.697-19.01 1.748-28.447 3.04-9.16 1.255-18.56 2.137-27.205 5.173-7.99 2.807-19.041 6.746-27.8 23.419-6.43 12.242-3.063 28.078 5.856 39.207 15.96 19.92 46.844 20.677 72.173 19.971 7.392-.206 14.844-.312 22.185-1.088a160.436 160.436 0 0027.241-5.286c8.107-2.32 16.379-5.189 23.325-9.517 6.103-3.802 10.902-8.74 14.551-14.385 7.122-11.017 11.726-24.129 6.317-36.483z" fill="#B3D3FF" fill-opacity=".24"/><path fill-rule="evenodd" clip-rule="evenodd" d="M41.116 62.454v3.23h-2.337V47.793a4.064 4.064 0 00-4.067-4.062 4.064 4.064 0 00-4.065 4.062v10.524h-2.895v-3.231a4.064 4.064 0 00-4.066-4.062 4.064 4.064 0 00-4.066 4.062v7.294a4.064 4.064 0 004.066 4.062h6.96l.068 22.12h8.132l-.067-14.752h6.402a4.064 4.064 0 004.067-4.062v-7.293a4.064 4.064 0 00-4.067-4.062 4.064 4.064 0 00-4.065 4.062z" fill="#66E475"/><path fill-rule="evenodd" clip-rule="evenodd" d="M.168 95.76s41.956-18.705 49.107-18.705c7.152 0 27.086 9.153 27.086 9.153s26.45-3.756 28.945-3.756c2.495 0 36.6 13.341 36.6 13.341L.168 95.76z" fill="#FFE4B5"/><path fill-rule="evenodd" clip-rule="evenodd" d="M92.418 95.754s33.518-12.44 41.275-12.44c7.756 0 29.376 6.096 29.376 6.096s28.686-2.502 31.392-2.502c2.706 0 39.695 8.885 39.695 8.885l-141.738-.04z" fill="#FFE4B5"/><path fill-rule="evenodd" clip-rule="evenodd" d="M165.635 29.763c0 9.667-7.844 17.504-17.521 17.504-9.676 0-17.522-7.837-17.522-17.504 0-9.668 7.846-17.505 17.522-17.505 9.677 0 17.521 7.837 17.521 17.505z" fill="#F7FAFF"/><path fill-rule="evenodd" clip-rule="evenodd" d="M204.806 54.829a6.897 6.897 0 00-6.9 6.894v5.484h-3.967V36.838a6.898 6.898 0 00-6.901-6.894 6.898 6.898 0 00-6.901 6.894v17.863h-4.913v-5.484a6.898 6.898 0 00-6.901-6.895 6.898 6.898 0 00-6.901 6.895v12.378a6.898 6.898 0 006.901 6.894h11.814v27.26h13.802V80.996h10.867a6.897 6.897 0 006.901-6.894V61.723a6.897 6.897 0 00-6.901-6.894z" fill="#66E475"/><path fill-rule="evenodd" clip-rule="evenodd" d="M87.177 83.472c-1.419 2.151-3.495 3.838-5.803 4.96-2.111 1.026-4.412 1.547-6.765 1.702A17.254 17.254 0 0079.3 87.98c.751-.3 1.482-.632 2.187-.99 2.804-1.43 5.38-3.495 6.987-6.237l.032-.056a11.162 11.162 0 01-1.33 2.775zm-30.433 1.482c-2.093-2.108-2.64-4.931-2.21-7.806.036-.236.077-.475.12-.715.133.526.284 1.042.447 1.541.945 2.895 2.586 5.627 5.137 7.374l.14.094c.19.163.383.323.585.476a9.404 9.404 0 002.114 2.577c-2.306-.741-4.61-1.806-6.333-3.54zm5.76-21.25c-.089.088-.177.177-.264.267a9.927 9.927 0 00-2.849 1.117 8.862 8.862 0 00-1.605 1.222c.092-.09.186-.18.281-.267 1.323-1.196 2.83-1.931 4.436-2.34zm10.176-2.755a9.86 9.86 0 011.856.616 17.435 17.435 0 00-3.588.668c-.211-.002-.421 0-.632.004a28.736 28.736 0 00-3.118-.345c.427-.224.867-.423 1.321-.587 1.335-.48 2.764-.66 4.16-.356zm7.98 2.685l-.105-.028-.006-.004c.037.01.073.02.11.032zm8.556 5.837c.882 1.294 1.143 2.676.79 4.196a9.264 9.264 0 00-.026-.114 10.742 10.742 0 00-.211-1.187 9.3 9.3 0 00-.9-2.33c-.473-1.108-1.085-2.148-1.912-3.031.862.73 1.636 1.553 2.259 2.466zm-24.814-4.379c.295-.02.591-.032.888-.04a18.856 18.856 0 00-3.496 3.338 7.96 7.96 0 00-1.094.724c.185-.492.421-.97.717-1.424.722-1.11 1.737-1.962 2.891-2.59l.094-.007zm14.38 3.135c-3.246-1.704-7.03-1.666-10.594-1.392-1.132.087-2.306.221-3.444.48a17.307 17.307 0 012.99-2.182c2.092.18 4.178.63 6.16 1.204 2.813.815 5.837 1.916 7.972 4 1.848 1.804 3.018 4.85 1.59 7.256a4.144 4.144 0 01-.102.16 8.772 8.772 0 00.27-2.25c-.04-3.187-2.087-5.831-4.841-7.276zm-.798 11.97a4.636 4.636 0 00.47-1.543c.673-.292 1.26-.763 1.64-1.408.687-1.169.495-2.626-.27-3.707-.778-1.097-1.995-1.87-3.343-2-.06-.006-.118-.008-.177-.01a5.68 5.68 0 00-1.2-.419c-2.731-2.198-6.332-2.471-9.72-2.31a11.84 11.84 0 00-1.09.094c.262-.08.529-.152.8-.213 1.47-.332 2.988-.433 4.49-.513 1.683-.089 3.397-.106 5.063.184 2.622.456 5.285 1.703 6.69 4.069 1.325 2.233.989 4.954-.24 7.143-.97.41-2.06.594-3.113.633zm-7.192-8.592c-.752-.52-1.587-.888-2.471-1.039-2.265-.383-4.96 1.025-5.601 3.264-.284-.948-.411-2.188.294-2.954.466-.507 1.208-.582 1.856-.625a32.28 32.28 0 012.352-.069c1.652.013 3.323.193 4.873.796.076.03.152.06.227.092a5.558 5.558 0 00-1.53.535zm7.572 5.462a4.59 4.59 0 00-.076-.279c.163-.4.275-.815.324-1.235.194-.217.245-.582.085-.83l-.085-.127a3.804 3.804 0 00-.077-.414c.338.42.566.92.567 1.459.002.603-.298 1.091-.738 1.426zm-15.71-.186c.01-.016.023-.031.034-.047 1.132 1.546 2.716 2.741 4.508 3.48.704.289 1.451.506 2.216.64.024.022.048.042.073.062-1.65-.033-3.29-.42-4.736-1.214a8.438 8.438 0 01-2.556-2.187c.14-.25.293-.495.46-.734zm-1.095-2.07c.105.262.224.515.352.765a9.988 9.988 0 00-.56.766 9.393 9.393 0 01-.984-2.695c.214-.551.459-1.09.732-1.614-.086.94.115 1.918.46 2.777zm5.85-2.707a9.58 9.58 0 00-2.615 1.014c.421-.47.98-.844 1.596-1.04a3.525 3.525 0 011.602-.127c-.196.041-.391.091-.583.153zm-.68 5.678l.042.033c-.794-.238-1.522-.635-2.087-1.251a2.394 2.394 0 01-.625-1.228c.32-.276.661-.529 1.018-.754-.137 1.242.692 2.412 1.652 3.2zm2.3-4.47l.075-.003a3.292 3.292 0 00-.333 1.645c.021.363.097.714.22 1.042a4.45 4.45 0 00-.435 1.363l-.104-.067c-.846-.57-2.514-1.772-1.819-2.992.217-.381.575-.632.99-.793.46-.108.93-.174 1.406-.196zm6.486 2.883a5.043 5.043 0 00-.202-.707c.184.156.363.32.534.49-.11.074-.22.146-.332.217zm.574 1.32l.236-.148a6.999 6.999 0 01-.13.169 3.11 3.11 0 01-.106-.022zm-3.479 1.837a16.888 16.888 0 01-.503-.18c.236-.056.47-.12.703-.19a1.709 1.709 0 01-.2.37zm-.132-3.42c.217.477.389.988.464 1.499-.316.11-.637.207-.961.291.052-.39.143-.773.247-1.118.066-.222.15-.448.25-.673zm-1.823.12c.114-.138.238-.265.371-.38-.07.175-.134.353-.191.532a1.263 1.263 0 01-.18-.152zm.062-2.646c.166.158.325.325.475.497a5.05 5.05 0 00-.99.619c.023-.192.07-.378.14-.545a2.01 2.01 0 01.375-.571zm-.713 3.945c.158.114.33.21.515.29a5.897 5.897 0 00-.03.376c-.177.024-.357.044-.54.06a2.241 2.241 0 01.055-.726zm-8.444 1.722c1 1.078 2.232 1.935 3.653 2.515 2.42.988 5.19 1.094 7.727.452.066.025.133.048.2.07a9.45 9.45 0 01-1.398.846c-3.38 1.66-7.907 1.26-10.546-1.375a7.644 7.644 0 01.364-2.508zm-1.907.198a7.858 7.858 0 01-.216-.594c-.022-.855.054-1.706.212-2.544.254.59.56 1.148.908 1.67a9.356 9.356 0 00-.633 2.041 7.16 7.16 0 01-.271-.573zm5.425 6.461a10.465 10.465 0 01-3.17-1.074 7.999 7.999 0 01-.362-.948c.102.068.203.137.308.2 4.13 2.531 9.945 1.695 13.341-1.667a4.044 4.044 0 001.52-.62c.998.056 1.997.006 2.966-.175-1.555 1.603-3.644 2.672-5.754 3.354-2.798.906-5.92 1.43-8.85.93zm16.697-1.845a14.508 14.508 0 01-2.36 2.269c-1.582.515-3.255.773-4.937.892-1.494.106-3.017.166-4.53.101l.12-.015c3.282-.447 6.654-1.486 9.308-3.525a11.595 11.595 0 002.726-2.97 6.611 6.611 0 002.246-1.905c-.476 1.877-1.338 3.653-2.573 5.153zm1.342-15.154c.358.633.655 1.296.896 1.978-1.001-1.43-2.421-2.59-3.992-3.46-3.042-1.684-6.541-2.694-9.977-3.228.255-.099.513-.191.772-.278 1.698.305 3.358.717 4.896 1.105a92.968 92.968 0 015.81 1.669 12.81 12.81 0 011.595 2.214zm5.444 4.913a9.862 9.862 0 01-.545 4.675c-1.174 2.119-2.635 4.135-4.53 5.66a.07.07 0 01.004-.006c1.82-2.546 2.737-5.701 2.715-8.82-.019-2.707-.758-5.378-2.185-7.665.265.129.526.266.782.415a7.545 7.545 0 013.003 3.213c.322.819.566 1.675.756 2.528zm-31.245-4.52a8.386 8.386 0 012.995-2.864 24.106 24.106 0 00-1.51 2.32c-1.628 2.857-2.572 6.167-2.17 9.465l.002.02a19.729 19.729 0 01-1.087-5.15c.454-1.342 1.038-2.636 1.77-3.791zm34.27 2.687c-.277-3.214-3.258-5.792-5.814-7.412a18.8 18.8 0 00-8.037-2.785 23.171 23.171 0 00-2.718-1.387c-1.598-.685-3.264-1.005-4.995-.763-1.61.226-3.139.89-4.496 1.771-.339.22-.67.453-.995.698-.968.087-1.928.26-2.87.544-2.796.845-5.483 2.694-6.729 5.406-.718 1.563-.933 3.3-.838 5.042-1.038 3.282-1.758 6.962-.311 10.229 1.17 2.642 3.614 4.472 6.178 5.652 3.028 1.394 6.37 2.15 9.668 2.546 6.616.795 13.794-.707 18.075-6.19 1.912-2.448 2.917-5.407 2.735-8.514.687-1.516 1.292-3.156 1.147-4.837z" fill="#FFC35C"/><path fill-rule="evenodd" clip-rule="evenodd" d="M132.442 90.585c-17.053 0-43.956-.076-44.98-.127-1.162-.099-1.875-.275-2.472-.962-.688-.79-.725-1.703-.766-2.76-.198-4.997-.27-9.787-.232-15.1.011-1.478.01-3.325 0-5.647l-.003-.492.002-.076c.012-2.322.012-4.169.001-5.648-.039-5.312.034-10.102.23-15.075.043-1.081.08-1.994.768-2.784.594-.683 1.337-.866 2.5-.964 4.22-.356 17.087-.395 22.423-.395 5.279 0 9.727.033 11.625.065l.054-.001c1.912-.04 4.973-.065 7.987-.065 6.671 0 11.804.113 13.732.303.653.064.964.196 1.292.335.362.152.636.29.702.328.213.14.493.422.547 1.227.21 3.104.174 6.29.139 9.372-.02 1.678-.039 3.414-.02 5.129.032 2.853.011 5.736-.014 8.444.025 2.734.046 5.617.014 8.471-.019 1.714 0 3.45.02 5.128.035 3.082.071 6.269-.139 9.372-.054.805-.334 1.087-.572 1.242-.042.024-.315.16-.65.302a3.848 3.848 0 01-1.319.346c-.154.008-1.592.032-10.869.032z" fill="#BBD9FD"/><path fill-rule="evenodd" clip-rule="evenodd" d="M129.587 39.114c-3.218 0-6.2.027-8.026.066a859.214 859.214 0 00-11.654-.065c-8.53 0-18.835.087-22.539.4-1.227.104-2.472.312-3.466 1.453-1.028 1.181-1.073 2.502-1.12 3.674a317.45 317.45 0 00-.23 15.142c.01 1.598.008 3.54-.002 5.63h-.003l.002.291-.002.29h.003c.01 2.09.013 4.034.001 5.631a317.45 317.45 0 00.231 15.142c.047 1.172.092 2.493 1.12 3.674.994 1.141 2.239 1.35 3.466 1.453.666.056 28.932.13 45.08.13 6.279 0 10.723-.011 11.004-.039.894-.088 1.366-.295 1.74-.453.391-.165.763-.348.879-.424.678-.444 1.14-1.17 1.219-2.349.329-4.857.067-9.72.123-14.58.031-2.827.011-5.651-.014-8.475.025-2.824.045-5.647.014-8.474-.056-4.86.206-9.724-.123-14.58-.079-1.18-.541-1.906-1.219-2.35-.116-.076-.488-.259-.879-.424-.374-.158-.846-.365-1.74-.453-2.36-.233-8.447-.31-13.865-.31zm0 2.88c6.622 0 11.7.11 13.582.296.435.043.599.113.871.227l.029.012c.124.053.236.103.325.145.007.043.015.099.019.17.207 3.049.172 6.068.136 9.264-.019 1.684-.039 3.426-.019 5.155.031 2.843.01 5.717-.014 8.417v.051c.024 2.7.045 5.573.014 8.415-.02 1.73 0 3.472.019 5.157.036 3.196.071 6.215-.136 9.264a1.515 1.515 0 01-.019.169 9.827 9.827 0 01-.325.145l-.029.012c-.259.11-.42.177-.809.22-.351.011-2.14.032-10.783.032-16.658 0-43.25-.074-44.889-.124-.993-.088-1.262-.217-1.482-.47-.323-.37-.372-.831-.413-1.872l-.001-.023a314.63 314.63 0 01-.229-15.008 483.883 483.883 0 00-.003-5.77v-.347l.002-.102c.011-2.316.011-4.17.001-5.666-.039-5.29.034-10.059.229-15.007v-.025c.042-1.04.091-1.501.414-1.873.224-.256.498-.385 1.534-.473 2.933-.248 11.06-.39 22.296-.39 5.276 0 9.715.033 11.607.065h.108c1.906-.041 4.958-.067 7.965-.067z" fill="#3281EE"/><path fill-rule="evenodd" clip-rule="evenodd" d="M147.452 50.17s.007-5.015-.162-7.52c-.079-1.179-.542-1.905-1.219-2.35a7.813 7.813 0 00-.88-.423c-.373-.158-.845-.365-1.739-.453-3.76-.37-16.992-.348-21.891-.245-5.365-.087-28.256-.165-34.193.336-1.227.104-2.472.312-3.466 1.453-1.028 1.181-1.073 2.502-1.12 3.673-.073 1.875-.168 5.53-.168 5.53l64.838-.002z" fill="#3281EE"/><path fill-rule="evenodd" clip-rule="evenodd" d="M143.971 44.606c-.098-.488-.431-.94-.717-1.136-.78-.539-1.958-.427-2.53.34-.577.771-.727 2.022.462 2.783 1.012.649 2.334.035 2.714-1.056.102-.292.132-.627.071-.93zM138.106 44.606c-.098-.488-.432-.94-.717-1.136-.78-.539-1.958-.427-2.531.34-.576.771-.726 2.022.463 2.783 1.012.649 2.333.035 2.713-1.056.102-.292.133-.627.072-.93zM132.241 44.606c-.099-.488-.432-.94-.718-1.136-.779-.539-1.957-.427-2.53.34-.577.771-.726 2.022.463 2.783 1.012.649 2.333.035 2.713-1.056.102-.292.133-.627.072-.93z" fill="#BBD9FD"/><path fill-rule="evenodd" clip-rule="evenodd" d="M100.641 68.116c-.165 0-.396-.043-.733-.38-.357-.355-1.173-1.581-.279-2.511.129-.134.913-.86 1.067-.996l.707-.62-.642-.685a10.868 10.868 0 00-1.04-.998c-.3-.246-.377-.611-.39-.874-.022-.475.157-.975.456-1.274.291-.291.634-.44 1.017-.44.42 0 .867.178 1.257.499.274.225.523.476.742.713l-.003.027.444.466.441.485s.729-.418 1.771-1.86c.254-.352.645-.462 1.006-.462.614 0 1.258.455 1.532 1.083.124.285.187.798-.096 1.166-.386.5-1.04 1.348-1.466 1.795l-.602.574.893.748c.191.158.371.307.537.464.472.439.601.93.391 1.463-.256.652-.951 1.144-1.615 1.144-.368 0-.714-.147-1.026-.439a23.74 23.74 0 00-.851-.745l-.602-.51-.59.522c-.258.228-.469.475-.655.692-.3.35-.81 1.144-1.671.953zM122.702 68.116c-.164 0-.396-.043-.733-.38-.357-.355-1.173-1.581-.279-2.511.129-.134.913-.86 1.067-.996l.707-.62-.642-.685a10.859 10.859 0 00-1.04-.998c-.299-.246-.377-.611-.39-.874-.022-.475.156-.975.455-1.274.292-.291.634-.44 1.018-.44.42 0 .867.178 1.256.499.275.225.524.476.743.713l-.002.027.444.466.44.485s.73-.418 1.771-1.86c.254-.352.645-.462 1.006-.462.614 0 1.258.455 1.532 1.083.125.285.187.798-.096 1.166-.385.5-1.04 1.348-1.466 1.795l-.602.574.893.748c.191.158.371.307.536.464.473.439.602.93.393 1.463-.257.652-.951 1.144-1.615 1.144h-.001c-.368 0-.713-.147-1.027-.439a23.754 23.754 0 00-.85-.745l-.602-.51-.59.522c-.258.228-.469.475-.655.692-.3.35-.81 1.144-1.671.953zM121.013 76.995c-5.019-.528-5.018-.826-10.035-1.553-2.066-.299-2.484 2.914-.413 3.214 5.016.728 5.016 1.026 10.037 1.553 2.069.219 2.496-2.994.411-3.214z" fill="#3281EE"/></svg>
