<svg xmlns="http://www.w3.org/2000/svg" width="272" height="196" viewBox="0 0 272 196" xmlns:xlink="http://www.w3.org/1999/xlink">
  <defs>
    <path id="b" d="M166,136 L221.995819,136 C224.215566,136 226,134.210675 226,132.003431 L226,3.99656855 C226,1.79440599 224.207267,0 221.995819,0 L122.004181,0 C119.784434,0 118,1.78932469 118,3.99656855 L118,38 L33.9965685,38 C31.794406,38 30,39.7927327 30,42.0041805 L30,141.995819 C30,144.215566 31.7893247,146 33.9965685,146 L162.003431,146 C164.205594,146 166,144.207267 166,141.995819 L166,136 Z"/>
    <filter id="a" width="129.6%" height="139.7%" x="-14.8%" y="-13%" filterUnits="objectBoundingBox">
      <feOffset dy="10" in="SourceAlpha" result="shadowOffsetOuter1"/>
      <feGaussianBlur stdDeviation="8" in="shadowOffsetOuter1" result="shadowBlurOuter1"/>
      <feColorMatrix values="0 0 0 0 0.221705603 0 0 0 0 0.376707582 0 0 0 0 0.585485757 0 0 0 0.154013813 0" in="shadowBlurOuter1"/>
    </filter>
    <rect id="c" width="96" height="124" rx="1"/>
    <filter id="e" width="100%" height="100%" x="0%" y="0%" filterUnits="objectBoundingBox">
      <feGaussianBlur in="SourceGraphic"/>
    </filter>
    <rect id="f" width="124" height="94" rx="1"/>
  </defs>
  <g fill="none" fill-rule="evenodd" transform="translate(9 20)">
    <use fill="black" filter="url(#a)" xlink:href="#b"/>
    <g transform="translate(118)">
      <rect width="108" height="136" fill="#FFFFFF" rx="4"/>
      <rect width="96" height="124" x="6" y="6" fill="#8DBEFF" rx="1"/>
      <g transform="translate(6 6)">
        <mask id="d" fill="white">
          <use xlink:href="#c"/>
        </mask>
        <use fill="#8DBEFF" xlink:href="#c"/>
        <rect width="90" height="127" x="11" y="11" fill="#8B572A" mask="url(#d)" rx="45"/>
        <path fill="#6E3E14" d="M12,57 C12,32 30.9999998,12 56,12 C55.9999989,19.0000001 56,129 56,137 C30,137 11.9999998,115 12,92 C12.0000001,84 12,66.6460601 12,57 Z" mask="url(#d)"/>
        <path fill="#E5C2A4" d="M46.8906788,107 C44.6478432,107 42.6336847,107 41.0006272,107 C21,107 21,139 21,139 L91,139 C91,139 91,107 71,107 C68.8999561,107 66.5276745,107 64.0356202,107 L64,99 L48,99 L48,107 Z" mask="url(#d)"/>
        <path fill="#FFDEC1" d="M41.0006272,107 C41.0006275,137 71,137 71,107 C91,107 91,139 91,139 L21,139 C21,139 21,107 41.0006272,107 Z" mask="url(#d)"/>
        <path fill="#CDA27D" d="M48,101 L64,101 L64,105 C64,105 61,106 56,106 C51,106 48,105 48,105 L48,101 Z" mask="url(#d)"/>
        <path fill="#E5C2A4" d="M25,54 C25,54 26,54 41,54 C56,54 56,40 56,40 C56,40 57,54 72,54 L87,54 L87,72.0099928 C87,88.5730164 73.5660196,102 56.9988697,102 L55.0011303,102 C38.4319635,102 25,88.5654971 25,72.0099928 L25,54 Z" mask="url(#d)"/>
        <path fill="#DF8E6E" d="M37,79 C34.790861,79 33,78.1045695 33,77 C33,75.8954305 34.790861,75 37,75 C39.209139,75 41,75.8954305 41,77 C41,78.1045695 39.209139,79 37,79 Z M75,79 C72.790861,79 71,78.1045695 71,77 C71,75.8954305 72.790861,75 75,75 C77.209139,75 79,75.8954305 79,77 C79,78.1045695 77.209139,79 75,79 Z" mask="url(#d)"/>
        <path fill="#E4C2A4" d="M16,69 C16,60 25,60 25,60 L27,78 L25,78 C25,78 16,78 16,69 Z" mask="url(#d)"/>
        <path fill="#E4C2A4" d="M85,69 C85,60 94,60 94,60 L96,78 L94,78 C94,78 85,78 85,69 Z" mask="url(#d)" transform="matrix(-1 0 0 1 181 0)"/>
        <circle cx="43" cy="66" r="4" fill="#32363F" mask="url(#d)"/>
        <circle cx="69" cy="66" r="4" fill="#32363F" mask="url(#d)"/>
        <path fill="#FD7461" d="M46,80 L66,80 C66,80 67,92 56,92 C45,92 46,80 46,80 Z" mask="url(#d)"/>
        <path fill="#FF9433" d="M78 133.002929C78 132.449027 78.4438648 132 79 132L79 132C79.5522847 132 80 132.437881 80 133.002929L80 139 78 139 78 133.002929zM32 133.002929C32 132.449027 32.4438648 132 33 132L33 132C33.5522847 132 34 132.437881 34 133.002929L34 139 32 139 32 133.002929z" mask="url(#d)"/>
      </g>
    </g>
    <path fill="#000000" d="M118,33 L164.997561,33 C168.312617,33 171,35.6888952 171,39.0017956 L171,136 L118,136 L118,33 Z" opacity=".15" filter="url(#e)"/>
    <g transform="translate(30 38)">
      <rect width="108" height="136" x="14" y="-14" fill="#FFFFFF" transform="rotate(-90 68 54)" rx="4"/>
      <rect width="124" height="96" x="6" y="6" fill="#8DBEFF" rx="1"/>
      <path fill="#2BBA40" d="M6,77 L130,77 L130,101.004543 C130,101.554319 129.550998,102 129.001869,102 L6.99813098,102 C6.44687846,102 6,101.544737 6,101.004543 L6,77 Z"/>
      <polygon fill="#0D8D20" points="6 79 29 89 29 77 6 77"/>
      <path fill="#0C8D1F" d="M16,83 C16,82.4477153 16.4509752,82 16.990778,82 L21.009222,82 C21.5564136,82 22,82.4438648 22,83 C22,83.5522847 21.5490248,84 21.009222,84 L16.990778,84 C16.4435864,84 16,83.5561352 16,83 Z M23,94 C23,93.4477153 23.4556644,93 23.9953976,93 L32.0046024,93 C32.5543453,93 33,93.4438648 33,94 C33,94.5522847 32.5443356,95 32.0046024,95 L23.9953976,95 C23.4456547,95 23,94.5561352 23,94 Z M66,98 C66,97.4477153 66.4474894,97 66.9985023,97 L78.0014977,97 C78.5529553,97 79,97.4438648 79,98 C79,98.5522847 78.5525106,99 78.0014977,99 L66.9985023,99 C66.4470447,99 66,98.5561352 66,98 Z M76,94 C76,93.4477153 76.4509752,93 76.990778,93 L81.009222,93 C81.5564136,93 82,93.4438648 82,94 C82,94.5522847 81.5490248,95 81.009222,95 L76.990778,95 C76.4435864,95 76,94.5561352 76,94 Z M111,96 C111,95.4477153 111.455664,95 111.995398,95 L120.004602,95 C120.554345,95 121,95.4438648 121,96 C121,96.5522847 120.544336,97 120.004602,97 L111.995398,97 C111.445655,97 111,96.5561352 111,96 Z M121,84 C121,83.4477153 121.453036,83 121.99703,83 L128.00297,83 C128.553614,83 129,83.4438648 129,84 C129,84.5522847 128.546964,85 128.00297,85 L121.99703,85 C121.446386,85 121,84.5561352 121,84 Z M35,94 C35,93.4477153 35.4433532,93 36.0093689,93 L37.9906311,93 C38.5480902,93 39,93.4438648 39,94 C39,94.5522847 38.5566468,95 37.9906311,95 L36.0093689,95 C35.4519098,95 35,94.5561352 35,94 Z"/>
      <g transform="translate(6 7)">
        <mask id="g" fill="white">
          <use xlink:href="#f"/>
        </mask>
        <rect width="2" height="28" x="5" y="55" fill="#0D8D20" mask="url(#g)"/>
        <circle cx="6" cy="45" r="10" fill="#2BBA40" mask="url(#g)"/>
        <path fill="#FFFFFF" d="M20,11 L17.0002124,11 C14.7920319,11 13,12.790861 13,15 C13,17.2046438 14.7909561,19 17.0002124,19 L42.9997876,19 C45.2079681,19 47,17.209139 47,15 C47,12.7953562 45.2090439,11 42.9997876,11 L42,11 C42,6.581722 38.418278,3 34,3 C31.2172372,3 28.7663239,4.42081715 27.3331245,6.57658733 C26.636602,6.20844602 25.8426436,6 25,6 C22.2385763,6 20,8.23857625 20,11 Z" mask="url(#g)"/>
        <path stroke="#8DBEFF" stroke-width="2" d="M38,11 C38,8.790861 36.209139,7 34,7" stroke-linecap="round" stroke-linejoin="round" mask="url(#g)"/>
      </g>
      <g transform="translate(25 26)">
        <g transform="translate(0 2.75)">
          <polygon fill="#FFAE5F" points="9.75 .25 83.25 .25 93 30.25 0 30.25"/>
          <polygon fill="#F5822E" points="28 29.25 56 .25 35 .25 24.929 29.321"/>
        </g>
        <g transform="translate(3 31.75)">
          <rect width="32.02" height="31" x=".98" y=".25" fill="#F5F6F7"/>
          <path fill="#D6D8DA" d="M1,0.25 L0.999999999,4.25 L15.9991286,4.25 C16.5518948,4.25 17.3125002,4.5625 17.7107567,4.96075654 L18.2892436,5.53924346 C18.6817835,5.93178346 19,6.70526288 19,7.24545703 L19,31.25 L25,31.25 L25,0.25 L1,0.25 Z"/>
        </g>
        <g transform="translate(11)">
          <polygon fill="#FFFFFF" points="35 0 70.5 35.5 68 37.547 68 63 3.015 63 3.02 37.547 .5 35.5" transform="translate(13)"/>
          <g transform="translate(21.5 36.25)">
            <rect width="22" height="4" x=".5" y="22.75" fill="#D6D8DA"/>
            <path fill="#FFAE5F" d="M6.5,4.75 C6.5,4.75 6.5,0.75 11.5,0.75 C16.5,0.75 16.5,4.75 16.5,4.75 L16.5,22.75 L6.5,22.75 L6.5,4.75 Z"/>
            <rect width="2" height="2" x="8.5" y="12.75" fill="#F5822E"/>
          </g>
          <path fill="#FFAE5F" d="M1,39 L9,39 L9,55 L1,55 L1,39 Z M52,39 L70,39 L70,55 L52,55 L52,39 Z M48,26 C45.790861,26 44,24.209139 44,22 C44,19.790861 45.790861,18 48,18 C50.209139,18 52,19.790861 52,22 C52,24.209139 50.209139,26 48,26 Z"/>
          <path fill="#F5822E" d="M0,38 L10,38 L10,56 L0,56 L0,38 Z M2,40 L2,54 L8,54 L8,40 L2,40 Z M51,38 L71,38 L71,56 L51,56 L51,38 Z M53,40 L53,54 L60,54 L60,40 L53,40 Z M62,40 L62,54 L69,54 L69,40 L62,40 Z M48,27 C45.2385763,27 43,24.7614237 43,22 C43,19.2385763 45.2385763,17 48,17 C50.7614237,17 53,19.2385763 53,22 C53,24.7614237 50.7614237,27 48,27 Z M48,25 C49.6568542,25 51,23.6568542 51,22 C51,20.3431458 49.6568542,19 48,19 C46.3431458,19 45,20.3431458 45,22 C45,23.6568542 46.3431458,25 48,25 Z"/>
        </g>
      </g>
    </g>
    <g transform="translate(0 2)">
      <path fill="#FFEBA5" d="M50,7 L50,5 C50,5 55,5 55,0 L57,0 C57,0 57,5 62,5 L62,7 C62,7 57,7 57,12 L55,12 C55,12 55,7 50,7 Z"/>
      <path fill="#FFE541" fill-rule="nonzero" d="M9,122 C12.3137085,122 15,119.313708 15,116 C15,112.686292 12.3137085,110 9,110 C5.6862915,110 3,112.686292 3,116 C3,119.313708 5.6862915,122 9,122 L9,122 Z M9,118 C7.8954305,118 7,117.104569 7,116 C7,114.895431 7.8954305,114 9,114 C10.1045695,114 11,114.895431 11,116 C11,117.104569 10.1045695,118 9,118 L9,118 Z"/>
      <circle cx="3" cy="41" r="3" fill="#FFEBA5"/>
      <path fill="#FFE541" d="M248,83 L248,81 C248,81 253,81 253,76 L255,76 C255,76 255,81 260,81 L260,83 C260,83 255,83 255,88 L253,88 C253,88 253,83 248,83 Z"/>
      <path fill="#FFEBA5" fill-rule="nonzero" d="M241,32 C244.313708,32 247,29.3137085 247,26 C247,22.6862915 244.313708,20 241,20 C237.686292,20 235,22.6862915 235,26 C235,29.3137085 237.686292,32 241,32 L241,32 Z M241,28 C239.895431,28 239,27.1045695 239,26 C239,24.8954305 239.895431,24 241,24 C242.104569,24 243,24.8954305 243,26 C243,27.1045695 242.104569,28 241,28 L241,28 Z"/>
      <circle cx="233" cy="140" r="3" fill="#FFEBA5"/>
    </g>
  </g>
</svg>
