<svg xmlns="http://www.w3.org/2000/svg" width="16" height="16" viewBox="0 0 16 16">
  <path fill="#95999D" fill-rule="evenodd" d="M136,48 C140.418278,48 144,44.418278 144,40 C144,35.581722 140.418278,32 136,32 C131.581722,32 128,35.581722 128,40 C128,44.418278 131.581722,48 136,48 Z M135,40 C135,40.2652165 135.105357,40.5195704 135.292893,40.7071068 L138.292893,43.7071068 C138.683418,44.0976311 139.316582,44.0976311 139.707107,43.7071068 C140.097631,43.3165825 140.097631,42.6834175 139.707107,42.2928932 L137,39.6004639 L137,36 C137,35.4477153 136.552285,35 136,35 C135.447715,35 135,35.4477153 135,36 L135,40 Z" transform="translate(-128 -32)"/>
</svg>
