<svg width="32" height="32" viewBox="0 0 32 32" fill="none" xmlns="http://www.w3.org/2000/svg">
<rect y="-0.00012207" width="32" height="32" rx="10.5681" fill="url(#paint0_linear_12591_91)"/>
<g filter="url(#filter0_d_12591_91)">
<path fill-rule="evenodd" clip-rule="evenodd" d="M15.992 18.195C15.992 18.1082 15.9899 18.0215 15.9856 17.9348C15.9813 17.8481 15.975 17.7615 15.9664 17.6752C15.9579 17.5887 15.9473 17.5026 15.9346 17.4168C15.9219 17.331 15.907 17.2454 15.8901 17.1603C15.8732 17.0751 15.8541 16.9906 15.8331 16.9063C15.812 16.8221 15.7888 16.7385 15.7637 16.6555C15.7384 16.5724 15.7112 16.49 15.682 16.4083C15.6527 16.3266 15.6215 16.2456 15.5883 16.1654C15.5551 16.0852 15.5199 16.0059 15.4828 15.9274C15.4457 15.8489 15.4067 15.7715 15.3658 15.6949C15.3249 15.6184 15.2821 15.5429 15.2374 15.4684C15.1928 15.394 15.1464 15.3207 15.0982 15.2485C15.05 15.1763 15 15.1054 14.9483 15.0357C14.8966 14.966 14.8432 14.8976 14.7882 14.8305C14.7331 14.7633 14.6764 14.6976 14.6181 14.6334C14.5598 14.5691 14.5 14.5062 14.4386 14.4448C14.3772 14.3835 14.3145 14.3236 14.2501 14.2653C14.1858 14.2071 14.1201 14.1504 14.053 14.0953C13.9859 14.0402 13.9175 13.9869 13.8478 13.9352C13.7781 13.8835 13.7071 13.8335 13.635 13.7853C13.5628 13.737 13.4895 13.6906 13.415 13.646C13.3406 13.6014 13.2651 13.5587 13.1885 13.5177C13.112 13.4768 13.0345 13.4377 12.956 13.4007C12.8776 13.3636 12.7982 13.3284 12.7181 13.2952C12.6379 13.262 12.5569 13.2307 12.4752 13.2015C12.3934 13.1722 12.3111 13.145 12.2281 13.1199C12.145 13.0946 12.0613 13.0715 11.9771 13.0505C11.893 13.0293 11.8083 13.0103 11.7231 12.9934C11.638 12.9764 11.5526 12.9616 11.4667 12.9489C11.3808 12.9362 11.2947 12.9255 11.2084 12.917C11.122 12.9085 11.0354 12.9021 10.9488 12.8979C10.8621 12.8936 10.7753 12.8915 10.6885 12.8915C10.6017 12.8915 10.515 12.8936 10.4283 12.8979C10.3416 12.9021 10.2551 12.9085 10.1687 12.917C10.0823 12.9255 9.99618 12.9362 9.91032 12.9489C9.82446 12.9616 9.73897 12.9764 9.65384 12.9934C9.56871 13.0103 9.48405 13.0293 9.39986 13.0505C9.31566 13.0715 9.23204 13.0946 9.14898 13.1199C9.06592 13.145 8.98354 13.1722 8.90181 13.2015C8.82009 13.2307 8.73913 13.262 8.65894 13.2952C8.57875 13.3284 8.49943 13.3636 8.42096 13.4007C8.34251 13.4377 8.265 13.4768 8.18846 13.5177C8.11191 13.5587 8.03641 13.6014 7.96196 13.646C7.88752 13.6906 7.81421 13.737 7.74204 13.7853C7.66987 13.8335 7.59893 13.8835 7.52921 13.9352C7.4595 13.9869 7.39109 14.0402 7.324 14.0953C7.25691 14.1504 7.1912 14.2071 7.12689 14.2653C7.06258 14.3236 6.99974 14.3835 6.93837 14.4448C6.87699 14.5062 6.81716 14.5691 6.75887 14.6334C6.70059 14.6976 6.64392 14.7633 6.58885 14.8305C6.53379 14.8976 6.4804 14.966 6.4287 15.0357C6.37699 15.1054 6.32703 15.1763 6.27881 15.2485C6.23059 15.3207 6.18417 15.394 6.13954 15.4684C6.09492 15.5429 6.05215 15.6184 6.01124 15.6949C5.97033 15.7715 5.93131 15.8489 5.8942 15.9274C5.85709 16.0059 5.82193 16.0852 5.78871 16.1654C5.7555 16.2456 5.72427 16.3266 5.69503 16.4083C5.66579 16.49 5.63857 16.5724 5.61338 16.6555C5.58818 16.7385 5.56504 16.8221 5.54395 16.9063C5.52286 16.9906 5.50385 17.0751 5.48691 17.1603C5.46998 17.2454 5.45515 17.331 5.44241 17.4168C5.42968 17.5026 5.41906 17.5887 5.41055 17.6752C5.40204 17.7615 5.39566 17.8481 5.3914 17.9348C5.38714 18.0215 5.38501 18.1082 5.38501 18.195C5.38501 18.2817 5.38714 18.3685 5.3914 18.4552C5.39566 18.5419 5.40204 18.6284 5.41055 18.7148C5.41906 18.8012 5.42968 18.8873 5.44241 18.9732C5.45515 19.059 5.46998 19.1445 5.48691 19.2297C5.50385 19.3148 5.52286 19.3994 5.54395 19.4836C5.56504 19.5678 5.58818 19.6514 5.61338 19.7345C5.63857 19.8176 5.66579 19.9 5.69503 19.9816C5.72427 20.0634 5.7555 20.1443 5.78871 20.2245C5.82193 20.3047 5.85709 20.384 5.8942 20.4625C5.93131 20.541 5.97033 20.6185 6.01124 20.695C6.05215 20.7715 6.09492 20.8471 6.13954 20.9215C6.18417 20.9959 6.23059 21.0693 6.27881 21.1414C6.32703 21.2136 6.37699 21.2846 6.4287 21.3543C6.4804 21.424 6.53379 21.4924 6.58885 21.5595C6.64392 21.6266 6.70059 21.6923 6.75887 21.7566C6.81716 21.8209 6.87699 21.8838 6.93837 21.9451C6.99974 22.0065 7.06258 22.0663 7.12689 22.1246C7.1912 22.1829 7.25691 22.2396 7.324 22.2946C7.39109 22.3497 7.4595 22.403 7.52921 22.4548C7.59893 22.5065 7.66987 22.5564 7.74204 22.6047C7.81421 22.6529 7.88752 22.6993 7.96196 22.7439C8.03641 22.7885 8.11191 22.8313 8.18846 22.8722C8.265 22.9131 8.34251 22.9522 8.42096 22.9893C8.49943 23.0264 8.57875 23.0615 8.65894 23.0948C8.73913 23.128 8.82009 23.1592 8.90181 23.1884C8.98354 23.2177 9.06592 23.2449 9.14898 23.2701C9.23204 23.2953 9.31566 23.3184 9.39986 23.3395C9.48405 23.3606 9.56871 23.3796 9.65384 23.3966C9.73897 23.4135 9.82446 23.4283 9.91032 23.441C9.99618 23.4538 10.0823 23.4644 10.1687 23.4729C10.2551 23.4814 10.3416 23.4879 10.4283 23.4921C10.515 23.4963 10.6017 23.4985 10.6885 23.4985H19.1741V18.195H15.992Z" fill="white"/>
<path d="M19.1732 23.4983C23.2739 23.4983 26.5981 20.1741 26.5981 16.0734C26.5981 11.9728 23.2739 8.64856 19.1732 8.64856C15.0726 8.64856 11.7483 11.9728 11.7483 16.0734C11.7483 20.1741 15.0726 23.4983 19.1732 23.4983Z" fill="white"/>
</g>
<defs>
<filter id="filter0_d_12591_91" x="3.75323" y="7.34313" width="24.4767" height="18.1135" filterUnits="userSpaceOnUse" color-interpolation-filters="sRGB">
<feFlood flood-opacity="0" result="BackgroundImageFix"/>
<feColorMatrix in="SourceAlpha" type="matrix" values="0 0 0 0 0 0 0 0 0 0 0 0 0 0 0 0 0 0 127 0" result="hardAlpha"/>
<feOffset dy="0.326356"/>
<feGaussianBlur stdDeviation="0.815891"/>
<feComposite in2="hardAlpha" operator="out"/>
<feColorMatrix type="matrix" values="0 0 0 0 0 0 0 0 0 0 0 0 0 0 0 0 0 0 0.1 0"/>
<feBlend mode="normal" in2="BackgroundImageFix" result="effect1_dropShadow_12591_91"/>
<feBlend mode="normal" in="SourceGraphic" in2="effect1_dropShadow_12591_91" result="shape"/>
</filter>
<linearGradient id="paint0_linear_12591_91" x1="3.50833" y1="28.964" x2="38.4285" y2="-6.03771" gradientUnits="userSpaceOnUse">
<stop offset="0.248154" stop-color="#FF4759"/>
<stop offset="1" stop-color="#FFD600"/>
</linearGradient>
</defs>
</svg>
