<?xml version="1.0" standalone="no"?>
<!DOCTYPE svg PUBLIC "-//W3C//DTD SVG 20010904//EN"
 "http://www.w3.org/TR/2001/REC-SVG-20010904/DTD/svg10.dtd">
<svg version="1.0" xmlns="http://www.w3.org/2000/svg"
 width="22.000000pt" height="22.000000pt" viewBox="0 0 22.000000 22.000000"
 preserveAspectRatio="xMidYMid meet">

<g transform="translate(0.000000,22.000000) scale(0.100000,-0.100000)"
fill="#000000" stroke="none">
<path d="M26 199 c-23 -18 -26 -27 -26 -85 0 -88 16 -104 108 -104 90 0 102
12 102 103 0 89 -17 107 -99 107 -44 0 -65 -5 -85 -21z m136 -56 c23 -21 23
-38 -2 -63 -20 -20 -71 -27 -104 -14 -25 10 -20 53 8 64 13 5 27 14 31 19 10
16 46 13 67 -6z"/>
</g>
</svg>
