<svg xmlns="http://www.w3.org/2000/svg" width="16" height="16" viewBox="0 0 16 16">
  <path fill="#95999D" fill-rule="evenodd" d="M65.0008717,65 C64.4481055,65 64,65.4499488 64,66.0068455 L64,77.9931545 C64,78.5492199 64.4446309,79 65.0008717,79 L78.9991283,79 C79.5518945,79 80,78.5500512 80,77.9931545 L80,66.0068455 C80,65.4507801 79.5553691,65 78.9991283,65 L65.0008717,65 Z M69,72 L71,74 L75,70 L78,73 L78,75.9906311 C78,76.5480902 77.544239,77 76.9975267,77 L67.0024733,77 C66.4488226,77 66,76.5561352 66,76 L66,75 L69,72 Z M69.5,70 C70.3284272,70 71,69.3284272 71,68.5 C71,67.6715728 70.3284272,67 69.5,67 C68.6715728,67 68,67.6715728 68,68.5 C68,69.3284272 68.6715728,70 69.5,70 Z" transform="translate(-64 -64)"/>
</svg>
