<svg xmlns="http://www.w3.org/2000/svg" width="16" height="16" viewBox="0 0 16 16">
  <g fill="none" fill-rule="evenodd" transform="translate(-96 -64)">
    <path fill="#95999D" d="M96,72 C96,72 98,66 104,66 C110,66 112,72 112,72 C112,72 110,78 104,78 C98,78 96,72 96,72 Z M104,76 C106.209139,76 108,74.2091391 108,72 C108,69.7908609 106.209139,68 104,68 C101.790861,68 100,69.7908609 100,72 C100,74.2091391 101.790861,76 104,76 Z M104,74 C105.10457,74 106,73.1045696 106,72 C106,70.8954304 105.10457,70 104,70 C102.89543,70 102,70.8954304 102,72 C102,73.1045696 102.89543,74 104,74 Z"/>
  </g>
</svg>
