<?xml version="1.0" encoding="UTF-8"?>
<svg width="16px" height="16px" viewBox="0 0 16 16" version="1.1" xmlns="http://www.w3.org/2000/svg" xmlns:xlink="http://www.w3.org/1999/xlink">
    <defs>
        <path d="M8.87940867,3.87953579 C8.48888438,4.27006009 7.8557194,4.27006009 7.46519511,3.87953579 C7.07467081,3.4890115 7.07467081,2.85584652 7.46519511,2.46532223 L9.05304103,0.877476309 C10.2226142,-0.292096843 12.1218341,-0.292252339 13.289659,0.875572597 L14.4691583,2.05507187 C15.6394269,3.22534048 15.6355011,5.12344332 14.4628542,6.29609024 L10.9986358,9.7603087 C9.4643126,11.2946319 6.92867661,11.3430173 5.46519511,9.87953579 C5.07467081,9.4890115 5.07467081,8.85584652 5.46519511,8.46532223 C5.8557194,8.07479794 6.48888438,8.07479794 6.87940867,8.46532223 C7.54950929,9.13542285 8.81932532,9.11119201 9.5844222,8.34609513 L13.0486407,4.88187668 C13.4415455,4.48897179 13.4428522,3.85719292 13.0549447,3.46928543 L11.8754455,2.28978616 C11.488721,1.90306165 10.855831,1.90311347 10.4672546,2.29168987 L8.87940867,3.87953579 Z M6.46519511,11.4653222 C6.8557194,11.0747979 7.48888438,11.0747979 7.87940867,11.4653222 C8.26993296,11.8558465 8.26993296,12.4890115 7.87940867,12.8795358 L6.29156275,14.4673817 C5.12198959,15.6369549 3.22276968,15.6371104 2.05494474,14.4692854 L0.875445471,13.2897862 C-0.294823143,12.1195175 -0.290897366,10.2214147 0.881749556,9.04876778 L4.34596801,5.58454933 C5.88029117,4.05022616 8.41592716,4.00184073 9.87940867,5.46532223 C10.269933,5.85584652 10.269933,6.4890115 9.87940867,6.87953579 C9.48888438,7.27006009 8.8557194,7.27006009 8.46519511,6.87953579 C7.79509448,6.20943517 6.52527845,6.23366601 5.76018157,6.99876289 L2.29596312,10.4629813 C1.90305823,10.8558862 1.90175154,11.4876651 2.28965903,11.8755726 L3.4691583,13.0550719 C3.85588281,13.4417964 4.48877278,13.4417446 4.87734918,13.0531682 L6.46519511,11.4653222 Z" id="path-1"></path>
    </defs>
    <g id="ðŸ¦-icons" stroke="none" stroke-width="1" fill="none" fill-rule="evenodd">
        <g id="icons/16/link">
            <mask id="mask-2" fill="white">
                <use xlink:href="#path-1"></use>
            </mask>
            <use id="Mask" fill="#000000" fill-rule="nonzero" xlink:href="#path-1"></use>
        </g>
    </g>
</svg>