<?xml version="1.0" encoding="UTF-8"?>
<svg width="16px" height="16px" viewBox="0 0 16 16" version="1.1" xmlns="http://www.w3.org/2000/svg" xmlns:xlink="http://www.w3.org/1999/xlink">
    <defs>
        <path d="M3.00247329,2 C2.45576096,2 2,1.55228475 2,1 C2,0.443864822 2.44882258,0 3.00247329,0 L12.9975267,0 C13.544239,0 14,0.44771525 14,1 C14,1.55613518 13.5511774,2 12.9975267,2 L13,2 L13,3 C13,3.55613518 12.6840146,4.31598541 12.2942268,4.70577316 L9,8 L12.2942268,11.2942268 C12.6840146,11.6840146 13,12.4438648 13,13 L13,14 L12.9975267,14 C13.5511774,14 14,14.4438648 14,15 C14,15.5522847 13.544239,16 12.9975267,16 L3.00247329,16 C2.44882258,16 2,15.5561352 2,15 C2,14.4477153 2.45576096,14 3.00247329,14 L3,14 L3,13 C3,12.4477153 3.31277239,11.6872276 3.70577316,11.2942268 L7,8 L3.70577316,4.70577316 C3.31277239,4.31277239 3,3.55228475 3,3 L3,2 L3.00247329,2 Z M4.5,3 C4.5,3.55228475 4.83559471,4.28765261 5.25944787,4.65095532 L8,7 L10.7405521,4.65095532 C11.1599836,4.29144262 11.5,3.54681396 11.5,3 L4.5,3 Z" id="path-1"></path>
    </defs>
    <g id="ðŸ¦-icons" stroke="none" stroke-width="1" fill="none" fill-rule="evenodd">
        <g id="icons/16/hourglass">
            <mask id="mask-2" fill="white">
                <use xlink:href="#path-1"></use>
            </mask>
            <use id="Mask" fill="#95999d" fill-opacity="0.5" xlink:href="#path-1"></use>
        </g>
    </g>
</svg>