<svg xmlns="http://www.w3.org/2000/svg" width="16" height="16" viewBox="0 0 16 16">
  <g fill="none" fill-rule="evenodd" transform="translate(-64 -160)">
    <path fill="#95999D" d="M71,168.585786 L71,164 C71,163.447715 71.4477153,163 72,163 C72.5522847,163 73,163.447715 73,164 L73,168.585786 L73.2928932,168.292893 C73.6834175,167.902369 74.3165825,167.902369 74.7071068,168.292893 C75.0976311,168.683418 75.0976311,169.316582 74.7071068,169.707107 L72.7071068,171.707107 C72.3165825,172.097631 71.6834175,172.097631 71.2928932,171.707107 L69.2928932,169.707107 C68.9023689,169.316582 68.9023689,168.683418 69.2928932,168.292893 C69.6834175,167.902369 70.3165825,167.902369 70.7071068,168.292893 L71,168.585786 Z M66,161.000872 C66,160.448106 66.455761,160 67.0024733,160 L76.9975267,160 C77.5511774,160 78,160.444631 78,161.000872 L78,174.999128 C78,175.551894 77.544239,176 76.9975267,176 L67.0024733,176 C66.4488226,176 66,175.555369 66,174.999128 L66,161.000872 Z M68,162 L68,173 L76,173 L76,162 L68,162 Z"/>
  </g>
</svg>
