<svg xmlns="http://www.w3.org/2000/svg" width="16" height="16" viewBox="0 0 16 16">
  <g fill="#979797" fill-rule="evenodd" transform="translate(1 1)">
    <path d="M7,15 C11.418278,15 15,11.418278 15,7 C15,2.581722 11.418278,-1 7,-1 C2.581722,-1 -1,2.581722 -1,7 C-1,11.418278 2.581722,15 7,15 Z M7,13 C3.6862915,13 1,10.3137085 1,7 C1,3.6862915 3.6862915,1 7,1 C10.3137085,1 13,3.6862915 13,7 C13,10.3137085 10.3137085,13 7,13 Z"/>
    <polygon points="1.293 2.707 11.293 12.707 12.707 11.293 2.707 1.293"/>
  </g>
</svg>
