<svg xmlns="http://www.w3.org/2000/svg" width="16" height="16" viewBox="0 0 16 16">
  <path fill="#32363f" fill-rule="evenodd" d="M64,129.99406 C64,128.892771 64.8945138,128 65.9940603,128 L78.0059397,128 C79.1072288,128 80,128.894514 80,129.99406 L80,142.00594 C80,143.107229 79.1054862,144 78.0059397,144 L65.9940603,144 C64.8927712,144 64,143.105486 64,142.00594 L64,129.99406 Z M67.7071068,137.292893 C67.3165825,136.902369 66.6834175,136.902369 66.2928932,137.292893 C65.9023689,137.683418 65.9023689,138.316582 66.2928932,138.707107 L68.2928932,140.707107 C68.6834175,141.097631 69.3165825,141.097631 69.7071068,140.707107 L77.7071068,132.707107 C78.0976311,132.316582 78.0976311,131.683418 77.7071068,131.292893 C77.3165825,130.902369 76.6834175,130.902369 76.2928932,131.292893 L69,138.585786 L67.7071068,137.292893 Z" transform="translate(-64 -128)"/>
</svg>
