<svg xmlns="http://www.w3.org/2000/svg" width="16" height="16" viewBox="0 0 16 16">
  <g fill="#5d6165" fill-rule="evenodd" transform="translate(-160 -32)">
    <path d="M165.082611,42.1593397 C164.543049,42.6798471 163.808912,43 163,43 C161.343146,43 160,41.6568542 160,40 C160,38.3431458 161.343146,37 163,37 C163.808912,37 164.543049,37.3201529 165.082611,37.8406603 L170.022669,35.3706317 C170.007705,35.2491857 170,35.1254927 170,35 C170,33.3431458 171.343146,32 173,32 C174.656854,32 176,33.3431458 176,35 C176,36.6568542 174.656854,38 173,38 C172.191088,38 171.456951,37.6798471 170.917389,37.1593397 L165.977331,39.6293683 C165.992295,39.7508143 166,39.8745073 166,40 C166,40.1254927 165.992295,40.2491857 165.977331,40.3706317 L170.917389,42.8406603 C171.456951,42.3201529 172.191088,42 173,42 C174.656854,42 176,43.3431458 176,45 C176,46.6568542 174.656854,48 173,48 C171.343146,48 170,46.6568542 170,45 C170,44.8745073 170.007705,44.7508143 170.022669,44.6293683 L165.082611,42.1593397 Z"/>
    <path d="M165.082611,42.1593397 C164.543049,42.6798471 163.808912,43 163,43 C161.343146,43 160,41.6568542 160,40 C160,38.3431458 161.343146,37 163,37 C163.808912,37 164.543049,37.3201529 165.082611,37.8406603 L170.022669,35.3706317 C170.007705,35.2491857 170,35.1254927 170,35 C170,33.3431458 171.343146,32 173,32 C174.656854,32 176,33.3431458 176,35 C176,36.6568542 174.656854,38 173,38 C172.191088,38 171.456951,37.6798471 170.917389,37.1593397 L165.977331,39.6293683 C165.992295,39.7508143 166,39.8745073 166,40 C166,40.1254927 165.992295,40.2491857 165.977331,40.3706317 L170.917389,42.8406603 C171.456951,42.3201529 172.191088,42 173,42 C174.656854,42 176,43.3431458 176,45 C176,46.6568542 174.656854,48 173,48 C171.343146,48 170,46.6568542 170,45 C170,44.8745073 170.007705,44.7508143 170.022669,44.6293683 L165.082611,42.1593397 Z"/>
  </g>
</svg>
