<svg xmlns="http://www.w3.org/2000/svg" width="16" height="16" viewBox="0 0 16 16">
  <g fill="#95999D" fill-rule="evenodd" transform="translate(-32 -32)">
    <path d="M32,34.0068455 C32,33.4507801 32.4509752,33 32.990778,33 L37.5089948,33 C37.7801695,33 38.1569366,33.1569366 38.3483734,33.3483734 L39.6516266,34.6516266 C39.8440279,34.8440279 40.2307968,35 40.5004358,35 L47.0029699,35 C47.5536144,35 48,35.455761 48,36.0024733 L48,44.9914698 C48,46.1007504 47.1054862,47 46.0059397,47 L33.9940603,47 C32.8927712,47 32,46.1029399 32,44.9941413 L32,34.0068455 Z M32,37 L48,37 L48,38 L32,38 L32,37 Z"/>
    <path d="M32,34.0068455 C32,33.4507801 32.4509752,33 32.990778,33 L37.5089948,33 C37.7801695,33 38.1569366,33.1569366 38.3483734,33.3483734 L39.6516266,34.6516266 C39.8440279,34.8440279 40.2307968,35 40.5004358,35 L47.0029699,35 C47.5536144,35 48,35.455761 48,36.0024733 L48,44.9914698 C48,46.1007504 47.1054862,47 46.0059397,47 L33.9940603,47 C32.8927712,47 32,46.1029399 32,44.9941413 L32,34.0068455 Z M32,37 L48,37 L48,38 L32,38 L32,37 Z"/>
  </g>
</svg>
