<svg xmlns="http://www.w3.org/2000/svg" width="16" height="16" viewBox="0 0 16 16">
  <path fill="#5d6165" fill-rule="evenodd" d="M295.5,102.914214 L294.207107,104.207107 C293.816582,104.597631 293.183418,104.597631 292.792893,104.207107 C292.402369,103.816582 292.402369,103.183418 292.792893,102.792893 L295.792893,99.7928932 C296.183418,99.4023689 296.816582,99.4023689 297.207107,99.7928932 L300.207107,102.792893 C300.597631,103.183418 300.597631,103.816582 300.207107,104.207107 C299.816582,104.597631 299.183418,104.597631 298.792893,104.207107 L297.5,102.914214 L297.5,110.5 C297.5,111.052285 297.052285,111.5 296.5,111.5 C295.947715,111.5 295.5,111.052285 295.5,110.5 L295.5,102.914214 Z M289.5,98.5 L303.5,98.5 C304.052285,98.5 304.5,98.0522847 304.5,97.5 C304.5,96.9477153 304.052285,96.5 303.5,96.5 L289.5,96.5 C288.947715,96.5 288.5,96.9477153 288.5,97.5 C288.5,98.0522847 288.947715,98.5 289.5,98.5 Z" transform="rotate(90 200.5 -88)"/>
</svg>
