<svg xmlns="http://www.w3.org/2000/svg" width="32" height="32" viewBox="0 0 32 32">
  <g fill="none" fill-rule="evenodd" transform="translate(0 2)">
    <path fill="#FDD5D5" d="M0,4.00585866 C0,2.89805351 0.889261723,2 2.00174332,2 L29.9982567,2 C31.103789,2 32,2.89354265 32,4.00276013 L32,15 L24,19 L8,12 L0,16 L0,4.00585866 Z M0,18 L8,14 L24,21 L32,17 L32,26.007983 C32,27.1081436 31.1107383,28 29.9982567,28 L2.00174332,28 C0.89621101,28 0,27.1125667 0,26.000385 L0,18 Z"/>
    <path fill="#F52D2D" d="M0,0.990777969 C0,0.443586406 0.449948758,0 1.00684547,0 L12.9931545,0 C13.5492199,0 14.3125,0.3125 14.7107565,0.71075654 L15.2892435,1.28924346 C15.6817835,1.68178346 16.4446309,2 17.0008717,2 L30.0059397,2 C31.1072288,2 32,2.89470506 32,4 L32,4 L17.0008717,4 C16.4481055,4 15.6875,4.3125 15.2892435,4.71075654 L14.7107565,5.28924346 C14.3182165,5.68178346 13.5500512,6 12.9931545,6 L1.00684547,6 C0.450780073,6 0,5.54902482 0,5.00922203 L0,0.990777969 Z"/>
  </g>
</svg>
