<svg xmlns="http://www.w3.org/2000/svg" width="160" height="160" viewBox="0 0 160 160">
  <g fill="none" fill-rule="evenodd" transform="translate(0 4)">
    <path fill="#93BEF8" d="M61.7628171 126.592957L58.5894737 134.526316 117.633785 134.526316 117.630584 134.526316C140.987057 134.526316 160 115.400178 160 91.8922409 160 69.6743933 143.022786 51.3718537 121.439574 49.4254598 120.280873 39.8479136 115.95975 30.9942331 109.013944 24.1545076 107.538088 22.7009252 105.974287 21.3686647 104.334927 20.1626813L101.178099 28.0547516C108.380772 34.2079377 113.066436 43.315831 113.297838 53.4645025 113.35298 55.9434333 115.354321 57.9108385 117.7968 57.9108385L118.137385 57.9108385C136.846842 57.9108385 152.066116 73.315622 152.066116 92.2486189 152.066116 111.184895 136.846842 126.589678 118.137385 126.589678L117.813019 126.589678 117.803288 126.592957 61.7628171 126.592957zM101.178099 20.0547516L104.334927 12.1626813C97.1283522 6.86121555 88.4616374 4 79.3870406 4 68.2449437 4 57.7238082 8.31102174 49.7601376 16.1577248 42.7855242 23.0264049 38.4515974 31.9283431 37.3217036 41.557364 27.7544161 42.6930287 18.9105167 47.0587427 12.0831416 54.072196 4.28911517 62.0861924 0 72.6771502 0 83.889024 0 107.400178 19.00014 126.526316 42.3662152 126.526316L58.5894737 126.526316 61.7628171 118.592957 42.537297 118.592957C42.4399871 118.586399 42.3426772 118.586399 42.2453672 118.586399L42.1383263 118.592957 41.8626148 118.592957C23.1531581 118.592957 7.9338843 103.188174 7.9338843 84.2518977 7.9338843 65.7451721 22.796355 50.3469468 41.0646734 49.9206755 43.4714724 49.8649325 45.4079401 47.9040851 45.4630824 45.4710607 45.8815151 26.977451 61.1007889 11.9333586 79.3820819 11.9333586 87.6312156 11.9333586 95.2555652 14.9951774 101.178099 20.0547516z"/>
    <path stroke="#297EF1" stroke-linecap="round" stroke-width="8" d="M50,152 L110,0"/>
  </g>
</svg>
