<svg xmlns="http://www.w3.org/2000/svg" width="16" height="16" viewBox="0 0 16 16">
  <g fill="none" fill-rule="evenodd" transform="translate(-128 -160)">
    <path fill="#5d6165" d="M137,160 L137,162 L140.5,162 L134,168.5 L135.5,170 L142,163.5 L142,167 L144,167 L144,161.002929 C144,160.449027 143.562119,160 142.997071,160 L137,160 Z M135,162 L135,160 L129.002929,160 C128.449027,160 128,160.444631 128,161.000872 L128,174.999128 C128,175.551894 128.444631,176 129.000872,176 L142.999128,176 C143.551894,176 144,175.562119 144,174.997071 L144,169 L142,169 L142,174 L130,174 L130,162 L135,162 Z"/>
  </g>
</svg>
