<svg xmlns="http://www.w3.org/2000/svg" width="32" height="32" viewBox="0 0 32 32">
  <g fill="none" fill-rule="evenodd">
    <path fill="#FFFFFF" d="M18.9066431,17.1462727 C17.9763901,17.8877605 16.8651586,18.3 15.7727858,18.3 C14.6537785,18.3 13.5144376,17.8667465 12.5706392,17.0900009 C12.6440913,16.8889099 12.6928189,16.6740783 12.7137146,16.4522347 C12.7396102,16.1773092 12.5377315,15.9334456 12.262806,15.90755 C11.9878805,15.8816545 11.7440168,16.0835332 11.7181213,16.3584587 C11.6794479,16.7690433 11.488749,17.1218365 11.232038,17.2963029 C11.0036483,17.4515214 10.9443314,17.7624972 11.0995499,17.9908868 C11.2547684,18.2192765 11.5657443,18.2785934 11.7941339,18.1233749 C11.8762072,18.0675961 11.9537871,18.0048462 12.0264893,17.9359576 C13.1270193,18.8099853 14.4519321,19.3 15.7727858,19.3 C17.0747477,19.3 18.380232,18.8244958 19.4713113,17.9744579 C19.5317222,18.0283807 19.5952893,18.0781673 19.661808,18.1233749 C19.8901977,18.2785934 20.2011735,18.2192765 20.356392,17.9908868 C20.5116105,17.7624972 20.4522936,17.4515214 20.223904,17.2963029 C19.9671929,17.1218365 19.7764941,16.7690433 19.7378206,16.3584587 C19.7119251,16.0835332 19.4680615,15.8816545 19.1931359,15.90755 C18.9182104,15.9334456 18.7163318,16.1773092 18.7422273,16.4522347 C18.7650849,16.694907 18.821246,16.9291888 18.9066431,17.1462727 Z M8.47324304,26.5052632 C3.80002801,26.5052632 0,22.6800357 0,17.9778048 C0,15.73543 0.857823034,13.6172385 2.41662832,12.0144392 C3.78210335,10.6117485 5.55088323,9.73860575 7.46434073,9.51147279 C7.69031948,7.58566862 8.55710485,5.80528099 9.95202753,4.43154495 C11.5447616,2.86220435 13.6489887,2 15.8774081,2 C18.1051873,2 20.2100546,2.86220435 21.8027887,4.43090151 C23.1919499,5.79884662 24.0561746,7.56958272 24.2879149,9.48509196 C28.6045572,9.87437074 32,13.5348787 32,17.9784482 C32,22.6800357 28.1974113,26.5052632 23.5261168,26.5052632 L8.47324304,26.5052632 Z"/>
  </g>
</svg>
