<svg xmlns="http://www.w3.org/2000/svg" width="16" height="16" viewBox="0 0 16 16">
  <path fill="#32363f" fill-rule="evenodd" d="M263,102.414214 L261.707107,103.707107 C261.316582,104.097631 260.683418,104.097631 260.292893,103.707107 C259.902369,103.316582 259.902369,102.683418 260.292893,102.292893 L263.292893,99.2928932 C263.683418,98.9023689 264.316582,98.9023689 264.707107,99.2928932 L267.707107,102.292893 C268.097631,102.683418 268.097631,103.316582 267.707107,103.707107 C267.316582,104.097631 266.683418,104.097631 266.292893,103.707107 L265,102.414214 L265,110 C265,110.552285 264.552285,111 264,111 C263.447715,111 263,110.552285 263,110 L263,102.414214 Z M257,98 L271,98 C271.552285,98 272,97.5522847 272,97 C272,96.4477153 271.552285,96 271,96 L257,96 C256.447715,96 256,96.4477153 256,97 C256,97.5522847 256.447715,98 257,98 Z" transform="translate(-256 -96)"/>
</svg>
