<svg width="16" height="16" xmlns="http://www.w3.org/2000/svg" xmlns:xlink="http://www.w3.org/1999/xlink"><defs><path d="M12.112 5.665a4.132 4.132 0 0 0-1.239-2.475A4.227 4.227 0 0 0 7.918 2c-1.112 0-2.16.422-2.955 1.19-.237.229-.43.487-.603.756l2.847 2.847L9 5v5H4l1.793-1.793-2.452-2.451a4.21 4.21 0 0 0-2.136 1.148A4.124 4.124 0 0 0 0 9.824C0 12.127 1.895 14 4.225 14h7.507c2.33 0 4.227-1.873 4.227-4.176 0-2.176-1.694-3.968-3.847-4.159" id="a"/></defs><use xlink:href="#a" fill-rule="evenodd"/></svg>
