<svg xmlns="http://www.w3.org/2000/svg" viewBox="0 0 16 16"><path fill-rule="evenodd" d="M5.58 1.38a2.8 2.8 0 0 1 4.83-.02l.1.18.03.06h.07a2.8 2.8 0 0 1 2.93 2.29l.02.17.02.17a2.8 2.8 0 0 1-.36 1.54l-.1.17-.04.06.13.22a2.8 2.8 0 0 1-.6 3.5l-.14.12-.15.1c-.4.26-.85.42-1.32.46v5.3a.3.3 0 0 1-.48.23L8 14l-2.52 1.93a.3.3 0 0 1-.48-.24v-5.3a2.8 2.8 0 0 1-2.53-2.27l-.03-.18-.02-.17a2.8 2.8 0 0 1 .36-1.53l.1-.18.04-.06-.04-.06a2.8 2.8 0 0 1 .5-3.66l.15-.12.15-.1c.45-.3.97-.46 1.5-.47h.2l.08.01.12-.22zm2.78.7a.8.8 0 0 0-1.02.26l-.06.1-.62 1.24-1.4-.08a.8.8 0 0 0-.76 1.14l.05.1L5.32 6l-.77 1.16a.8.8 0 0 0 .62 1.24h.1l1.39-.08.62 1.25a.8.8 0 0 0 .6.43h.25a.8.8 0 0 0 .53-.33l.06-.1.62-1.25 1.4.08a.8.8 0 0 0 .76-1.14l-.05-.1L10.68 6l.77-1.16a.8.8 0 0 0-.62-1.24h-.1l-1.39.08-.62-1.25a.8.8 0 0 0-.36-.36z"/></svg>