<svg width="96" height="96" viewBox="0 0 96 96" fill="none" xmlns="http://www.w3.org/2000/svg">
  <path fill-rule="evenodd" clip-rule="evenodd" d="M66.9629 43.145C66.9629 56.1807 56.3499 66.7502 43.2582 66.7502C30.1675 66.7502 19.5555 56.1807 19.5555 43.145C19.5555 30.1092 30.1675 19.5407 43.2582 19.5407C56.3499 19.5407 66.9629 30.1092 66.9629 43.145Z" fill="#BBD9FD"/>
  <path fill-rule="evenodd" clip-rule="evenodd" d="M42.6662 22.077C31.328 22.077 22.1023 31.2633 22.1023 42.5564C22.1023 53.8474 31.328 63.0337 42.6662 63.0337C54.0053 63.0337 63.231 53.8474 63.231 42.5564C63.231 31.2633 54.0053 22.077 42.6662 22.077ZM42.6662 69.1107C27.9626 69.1107 16 57.1988 16 42.5564C16 27.9129 27.9626 16 42.6662 16C57.3707 16 69.3333 27.9129 69.3333 42.5564C69.3333 57.1988 57.3707 69.1107 42.6662 69.1107Z" fill="#3281EE"/>
  <path fill-rule="evenodd" clip-rule="evenodd" d="M73.837 77.3724C72.2603 77.3724 70.6826 76.7729 69.4798 75.5751L59.2874 65.4255C56.8797 63.0288 56.8797 59.1427 59.2863 56.7459C61.694 54.3482 65.5951 54.3492 68.0017 56.7449L78.1942 66.8944C80.6018 69.2922 80.6018 73.1773 78.1952 75.574C76.9914 76.7729 75.4137 77.3724 73.837 77.3724Z" fill="#3281EE"/>
  <path fill-rule="evenodd" clip-rule="evenodd" d="M23.6373 93.174C25.6314 94.0474 30.7465 94.8038 34.8713 95.1076C46.1285 95.9345 61.861 95.4937 68.5284 93.9777C75.247 92.4509 75.5464 90.1362 58.4645 88.9838C43.9219 88.0025 26.9475 89.3898 23.3174 91.4596C22.3433 92.015 22.3979 92.6327 23.6373 93.174Z" fill="#BBD9FD"/>
</svg>
