<svg width="26px" height="32px" viewBox="0 0 26 32" version="1.1" xmlns="http://www.w3.org/2000/svg" xmlns:xlink="http://www.w3.org/1999/xlink">
    <g id="files-colored" fill-rule="evenodd">
        <g id="Path-files-colored">
            <path d="M-5.99272714e-05,2.002 C-5.99272714e-05,0.896 0.89,0 1.997,0 L19,0 L26.0000198,7 L26.0000198,29.996 C26.0010618,30.5266063 25.7912287,31.0358875 25.4166897,31.4117394 C25.0421506,31.7875913 24.5336067,31.9992052 24.003,32 L1.997,32 C1.46633154,32.0005353 0.957317,31.7896225 0.582547003,31.4139142 C0.207777006,31.0382058 -0.00186226549,30.5286655 -5.99272714e-05,29.998 C0.0481256825,16.0000829 -5.99272714e-05,16 -5.99272714e-05,2.002 Z" fill="#FFFFFF"></path>
            <path d="M18.5,0 C18.224,0 18,0.23 18,0.5 L18,8 L25.5,8 C25.776,8 26,7.768 26,7.5 L26,7 L19,0 L18.5,0 Z" fill="#FFFFFF"></path>
            <path d="M0,2.002 C0,0.896 0.890059927,0 1.99705993,0 L19.0000599,0 L26.0000797,7 L26.0000797,29.996 C26.0011217,30.5266063 25.7912886,31.0358875 25.4167496,31.4117394 C25.0422105,31.7875913 24.5336667,31.9992052 24.0030599,32 L1.99705993,32 C1.46639147,32.0005353 0.957376927,31.7896225 0.58260693,31.4139142 C0.207836933,31.0382058 -0.00180233822,30.5286655 0,29.998 C0.0481856097,16.0000829 0,16 0,2.002 Z"  opacity="0.242466518"></path>
            <path d="M18.5000599,0 C18.2240599,0 18.0000599,0.23 18.0000599,0.5 L18.0000599,8 L25.5000599,8 C25.7760599,8 26.0000599,7.768 26.0000599,7.5 L26.0000599,7 L19.0000599,0 L18.5000599,0 Z" ></path>
        </g>
    </g>
</svg>