<svg xmlns="http://www.w3.org/2000/svg" width="16" height="16" viewBox="0 0 16 16">
    <path fill="#32363f" fill-rule="evenodd" d="M14 0c.552 0 1 .448 1 1v1.024l-2 2.011V2H3v12h10v-3.05l2-2.011V15c0 .552-.448 1-1 1H2c-.552 0-1-.448-1-1v-2H.5c-.276 0-.5-.224-.5-.5s.224-.5.5-.5H1v-2H.5c-.276 0-.5-.224-.5-.5S.224 9 .5 9H1V7H.5C.224 7 0 6.776 0 6.5S.224 6 .5 6H1V4H.5C.224 4 0 3.776 0 3.5S.224 3 .5 3H1V1c0-.552.448-1 1-1h12zm1.612 4.299l.09.09c.396.396.399 1.046.002 1.448L9.55 12H8v-1.518l6.17-6.184c.399-.398 1.044-.397 1.442 0zM7 11v1H5v-1h2zm0-2v1H5V9h2zm2-2v1H5V7h4zm2-2v1H5V5h6z"/>
</svg>